<mxfile host="65bd71144e">
    <diagram id="ZhUnvmMKfp14g9iPRNfV" name="ページ1">
        <mxGraphModel dx="1158" dy="972" grid="1" gridSize="10" guides="1" tooltips="1" connect="1" arrows="1" fold="1" page="1" pageScale="1" pageWidth="1654" pageHeight="1169" math="0" shadow="0">
            <root>
                <mxCell id="0"/>
                <mxCell id="1" parent="0"/>
                <mxCell id="11" value="AWS Cloud" style="outlineConnect=0;gradientColor=none;html=1;whiteSpace=wrap;fontSize=12;fontStyle=0;shape=mxgraph.aws4.group;grIcon=mxgraph.aws4.group_aws_cloud;fillColor=none;verticalAlign=top;align=left;spacingLeft=30;fontColor=#AAB7B8;dashed=0;strokeColor=#000000;" parent="1" vertex="1">
                    <mxGeometry x="400" y="200" width="1240" height="880" as="geometry"/>
                </mxCell>
                <mxCell id="97" value="" style="rounded=0;whiteSpace=wrap;html=1;" vertex="1" parent="1">
                    <mxGeometry x="538.2500000000001" y="60" width="276.25" height="120" as="geometry"/>
                </mxCell>
                <mxCell id="2" value="VPC" style="outlineConnect=0;gradientColor=none;html=1;whiteSpace=wrap;fontSize=12;fontStyle=0;shape=mxgraph.aws4.group;grIcon=mxgraph.aws4.group_vpc;strokeColor=#879196;fillColor=none;verticalAlign=top;align=left;spacingLeft=30;fontColor=#879196;dashed=0;" parent="1" vertex="1">
                    <mxGeometry x="827" y="360" width="763" height="680" as="geometry"/>
                </mxCell>
                <mxCell id="17" value="Public subnet" style="points=[[0,0],[0.25,0],[0.5,0],[0.75,0],[1,0],[1,0.25],[1,0.5],[1,0.75],[1,1],[0.75,1],[0.5,1],[0.25,1],[0,1],[0,0.75],[0,0.5],[0,0.25]];outlineConnect=0;gradientColor=none;html=1;whiteSpace=wrap;fontSize=12;fontStyle=0;shape=mxgraph.aws4.group;grIcon=mxgraph.aws4.group_security_group;grStroke=0;strokeColor=#248814;fillColor=#E9F3E6;verticalAlign=top;align=left;spacingLeft=30;fontColor=#248814;dashed=0;" parent="1" vertex="1">
                    <mxGeometry x="990" y="580" width="410" height="160" as="geometry"/>
                </mxCell>
                <mxCell id="24" value="" style="rounded=0;whiteSpace=wrap;html=1;" parent="1" vertex="1">
                    <mxGeometry x="423.75" y="940" width="276.25" height="120" as="geometry"/>
                </mxCell>
                <mxCell id="4" value="" style="outlineConnect=0;dashed=0;verticalLabelPosition=bottom;verticalAlign=top;align=center;html=1;shape=mxgraph.aws3.ec2;fillColor=#F58534;gradientColor=none;" parent="1" vertex="1">
                    <mxGeometry x="1072" y="613.5" width="76.5" height="93" as="geometry"/>
                </mxCell>
                <mxCell id="7" value="" style="outlineConnect=0;dashed=0;verticalLabelPosition=bottom;verticalAlign=top;align=center;html=1;shape=mxgraph.aws3.route_53;fillColor=#F58536;gradientColor=none;" parent="1" vertex="1">
                    <mxGeometry x="1173.25" y="150" width="70.5" height="85.5" as="geometry"/>
                </mxCell>
                <mxCell id="14" value="" style="outlineConnect=0;dashed=0;verticalLabelPosition=bottom;verticalAlign=top;align=center;html=1;shape=mxgraph.aws3.internet_gateway;fillColor=#F58534;gradientColor=none;" parent="1" vertex="1">
                    <mxGeometry x="1174" y="321" width="69" height="72" as="geometry"/>
                </mxCell>
                <mxCell id="15" value="" style="outlineConnect=0;dashed=0;verticalLabelPosition=bottom;verticalAlign=top;align=center;html=1;shape=mxgraph.aws3.application_load_balancer;fillColor=#F58534;gradientColor=none;" parent="1" vertex="1">
                    <mxGeometry x="1174" y="480" width="69" height="72" as="geometry"/>
                </mxCell>
                <mxCell id="16" value="Private subnet" style="points=[[0,0],[0.25,0],[0.5,0],[0.75,0],[1,0],[1,0.25],[1,0.5],[1,0.75],[1,1],[0.75,1],[0.5,1],[0.25,1],[0,1],[0,0.75],[0,0.5],[0,0.25]];outlineConnect=0;gradientColor=none;html=1;whiteSpace=wrap;fontSize=12;fontStyle=0;shape=mxgraph.aws4.group;grIcon=mxgraph.aws4.group_security_group;grStroke=0;strokeColor=#147EBA;fillColor=#E6F2F8;verticalAlign=top;align=left;spacingLeft=30;fontColor=#147EBA;dashed=0;" parent="1" vertex="1">
                    <mxGeometry x="990" y="860" width="410" height="160" as="geometry"/>
                </mxCell>
                <mxCell id="5" value="" style="outlineConnect=0;dashed=0;verticalLabelPosition=bottom;verticalAlign=top;align=center;html=1;shape=mxgraph.aws3.rds;fillColor=#2E73B8;gradientColor=none;" parent="1" vertex="1">
                    <mxGeometry x="1072" y="899.5" width="72" height="81" as="geometry"/>
                </mxCell>
                <mxCell id="18" value="" style="outlineConnect=0;dashed=0;verticalLabelPosition=bottom;verticalAlign=top;align=center;html=1;shape=mxgraph.aws3.certificate_manager_2;fillColor=#759C3E;gradientColor=none;" parent="1" vertex="1">
                    <mxGeometry x="1280" y="484.5" width="73.5" height="63" as="geometry"/>
                </mxCell>
                <mxCell id="19" value="" style="outlineConnect=0;dashed=0;verticalLabelPosition=bottom;verticalAlign=top;align=center;html=1;shape=mxgraph.aws3.s3;fillColor=#E05243;gradientColor=none;" parent="1" vertex="1">
                    <mxGeometry x="560" y="507" width="76.5" height="93" as="geometry"/>
                </mxCell>
                <mxCell id="20" value="" style="outlineConnect=0;dashed=0;verticalLabelPosition=bottom;verticalAlign=top;align=center;html=1;shape=mxgraph.aws3.s3;fillColor=#E05243;gradientColor=none;" parent="1" vertex="1">
                    <mxGeometry x="560" y="667" width="76.5" height="93" as="geometry"/>
                </mxCell>
                <mxCell id="21" value="" style="outlineConnect=0;dashed=0;verticalLabelPosition=bottom;verticalAlign=top;align=center;html=1;shape=mxgraph.aws3.codedeploy;fillColor=#759C3E;gradientColor=none;" parent="1" vertex="1">
                    <mxGeometry x="450" y="797" width="67.5" height="81" as="geometry"/>
                </mxCell>
                <mxCell id="22" value="" style="outlineConnect=0;dashed=0;verticalLabelPosition=bottom;verticalAlign=top;align=center;html=1;shape=mxgraph.aws3.sns;fillColor=#D9A741;gradientColor=none;" parent="1" vertex="1">
                    <mxGeometry x="445.5" y="956" width="76.5" height="76.5" as="geometry"/>
                </mxCell>
                <mxCell id="23" value="" style="points=[[0,0,0],[0.25,0,0],[0.5,0,0],[0.75,0,0],[1,0,0],[0,1,0],[0.25,1,0],[0.5,1,0],[0.75,1,0],[1,1,0],[0,0.25,0],[0,0.5,0],[0,0.75,0],[1,0.25,0],[1,0.5,0],[1,0.75,0]];points=[[0,0,0],[0.25,0,0],[0.5,0,0],[0.75,0,0],[1,0,0],[0,1,0],[0.25,1,0],[0.5,1,0],[0.75,1,0],[1,1,0],[0,0.25,0],[0,0.5,0],[0,0.75,0],[1,0.25,0],[1,0.5,0],[1,0.75,0]];outlineConnect=0;fontColor=#232F3E;gradientColor=#F34482;gradientDirection=north;fillColor=#BC1356;strokeColor=#ffffff;dashed=0;verticalLabelPosition=bottom;verticalAlign=top;align=center;html=1;fontSize=12;fontStyle=0;aspect=fixed;shape=mxgraph.aws4.resourceIcon;resIcon=mxgraph.aws4.chatbot;" parent="1" vertex="1">
                    <mxGeometry x="600" y="960" width="78" height="78" as="geometry"/>
                </mxCell>
                <mxCell id="25" value="" style="rounded=0;whiteSpace=wrap;html=1;" parent="1" vertex="1">
                    <mxGeometry x="40" y="880" width="320" height="180" as="geometry"/>
                </mxCell>
                <mxCell id="26" value="" style="rounded=0;whiteSpace=wrap;html=1;" parent="1" vertex="1">
                    <mxGeometry x="40" y="560" width="320" height="200" as="geometry"/>
                </mxCell>
                <mxCell id="27" value="" style="rounded=0;whiteSpace=wrap;html=1;" parent="1" vertex="1">
                    <mxGeometry x="40" y="240" width="320" height="200" as="geometry"/>
                </mxCell>
                <mxCell id="28" value="&lt;font color=&quot;#000000&quot;&gt;users&lt;/font&gt;" style="outlineConnect=0;gradientColor=none;fontColor=#545B64;strokeColor=none;fillColor=#000000;dashed=0;verticalLabelPosition=bottom;verticalAlign=top;align=center;html=1;fontSize=12;fontStyle=0;aspect=fixed;shape=mxgraph.aws4.illustration_users;pointerEvents=1" parent="1" vertex="1">
                    <mxGeometry x="1320" y="40" width="100" height="100" as="geometry"/>
                </mxCell>
                <mxCell id="3" value="" style="aspect=fixed;html=1;points=[];align=center;image;fontSize=12;image=img/lib/mscae/Docker.svg;" parent="1" vertex="1">
                    <mxGeometry x="148.32999999999998" y="927.63" width="103.35" height="84.75" as="geometry"/>
                </mxCell>
                <mxCell id="9" value="" style="dashed=0;outlineConnect=0;html=1;align=center;labelPosition=center;verticalLabelPosition=bottom;verticalAlign=top;shape=mxgraph.weblogos.github" parent="1" vertex="1">
                    <mxGeometry x="80.00000000000003" y="620" width="75" height="75" as="geometry"/>
                </mxCell>
                <mxCell id="29" value="" style="shape=image;verticalLabelPosition=bottom;verticalAlign=top;imageAspect=0;aspect=fixed;image=data:image/png,iVBORw0KGgoAAAANSUhEUgAAAgAAAAEACAQAAABvmQbsAAAmnUlEQVR42u3dd4DU1NYA8HMyW2CXssAmWRZEFhFRFClKUUFBUVEBlYeIgr29J/YKomLBZxcLfo+nj6fSFORJUcEnTYoUBRVQFFFXpGySZalL2Z3J+f5AcHcmk0m5M5l9nh9/kXLnJDu5k+Teey4AY4wxxhhjjDHGGGOMMcYYY4wxxhhjjDHGGGOMMcYYY4wxxhhjjDHGGGOMMcYYY4wxxhhjjDHGGGOMMcYYY4wxxhhjjDHGGGOMMcYYY4wxxhhjjDHGGGOMMcYYY4wxxhhjjDHGGGOMMcYYY4wxxhhjjDHGGGOMMcYYY4wxxhhjjDHGGGOMMcYYY4wxxhhjjDHGGGMpgUEHYBVT/bzMWqHaZj0pG+oCAFA5HcjcHtmulQcdGmP/W9KjApAKjqeTzCJsDkVQBM0gK852B+A3+AWKYSN8Y64t3RZ02IzVdIFWAKoCXczO2BlOhXoedtdhGSyFz/WVUBnkUTBWcwVUAShtsY/ZD08R8vm7YS7OiXzIdwSMuZXyCqCgU+QK7AtFwgs2aRFOyZi6tTTVR8RYzZXCCqBhvczL6RZon9QPqcAZMF77GCKpOy7Gaq4UVQByO+k2Ggi5KTqqH+GljLe37kvRpzFWY6WgApDb46PQN+UPG6XwWuXoHbtS/KmM1ShJviwDuvgPK6Pn4VVjb0CfzljaS+Kl2aiJ9DwODLynwTYabrwDZsBRMJaWknV5Zii3w8hD/fiCh1/CUG1F0FEwln6SUgHI3XAMnBT0oVVjwpvmvaV7gg6DsfQivAJomb3nWbot8Bt/K8XStSULgw6CsXQSEltco9aVc6BfWl7+AHl0dZ2Gzecb3EeAsd8JvVTVG2k05AR9SPboi8y/bN0UdBSMpQdhFUDzWvvGwaCgD8eRUhykzQ06CMbSgaBHAFWpnAO9gz4Yh3Lgyjp7ypcHHQZjwRNSARS0oQVwYtCH4oIE5+U2KZ/NvQPYn52ARwDlXJgC9YM+EA9m5gwsPhB0EIwFyXcFIPfGDyA76MPwePCfRfpw3wD2Zyb5213tg9Nr6uUPQGdKnzSoifcujAni6w5APh8/gFpBH4JPy+hcHi7E/qx83AHIF+D0Gn/5A3TFD5rX/KNgzBPPrQD5HaXZUDvo8IVoUdm6fBpQ0GEwlnoeK4D8QmkeNAo6eGFOyM0p/zToIBhLPU8VgFxHmgutgg5dqNNzS8pXBR0EY6nm5R2AhBOgXdCBC/eq3C3oEBhLNQ8VgDIC+gUddhJk4pT8wqCDYCy1XDcDKl1hEWQEHXaSzNPP5e7B7M/E5TsAuQ7OATnooJOmRe7e8s+DDoKx1HF5B6CMh8FBh5xUFdTF+CroIBjzRm4J3aVCMxv00NqSxU6mx3FVAagD6d2gDzHpvtZPhXDQQTAAgIZNM4/ME11ZWrY76HjSW0GPyDN4apUFpfCs/PK3FfZ7uagA8utK38Of4DUZDTOeDjoGBqA+RcOq/Pcg9NX/G3RM6Ut5GB63WLws66LNZXb7uagA5JfwzhQcSTmspXX4G22SdkC5WSFlUT3IxYbUClpBK2iWggj2U1tjYwo+R4j8jqH+dBxVSutgkvZz0NGIpHwNJ1f9P76q3R50TOlKvg1fibNqqX6W3R2t4wpAaQurkvr2/yDMx09hrvat3Xv4/MahHmZP7JXkimCGfnFSyxekZfbusXD1kf+G4XH9iaBjEkf5BtpWWzBGHxp0TOmpoLm53mZUzr36C/H3dVoBoPIZJK2jDC2Etypn7NzpeAcpv1voauoP9ZIVEfaqCVkDlbfhqqhF9+nPBx2VsKPjCsAh9WWyuzfaJjeP/ybAYUcgeUCSLv8w/hvbGj2Mt11c/gBm6WfadVgI98DWpEQF9ILfTAnJl39KzOUP8FjThkHHxVLNvMR2dWOta/yVzr7mEj6ShLgJJtDx2nXaWm+7a+X6i/VawK1gJCG2tuplSShVKLzYYmFO5XlBx8VSK78Qj7LfQupss87JR8j9oY3wuNdAN32I35dtGw/qr1e0wlectHi6Q4+ne39HLLJcXOSyGFbDoZJwEzX+KicVAOLDgmMOw+N6R32pmMJ27tTuwNNB9Hv7Y5XLBZcoWqXVQqpwWwyr2UIJ/+J4MP46BxWAcongiT43Yzf9UbGdbbQV4Y44RWiUAPcKLk+076wWmuuDDoul1sEticav0Ob46xxUAPSg0HiXwilaEiblKNutDaQ7hA7lOVnpJT5OcaQpEFuzb6kzL+i4WGrt2AVr7LfARfHXJawA5PbVuhf69UG9s3UtWafCeIUuh4P+yzksJR2fPCsphuhHs4h5M8908OeD79iu/VJbF39twgoAbxQY6dv6gI0CL9BYxlS8AITl+KXzC1PR89Az/Tm4Bf7o6FlMF5V+FHRMLPXMN+DXuCvJtH2Dl6ACaFpb4ISf0/Xrxb+tj6bNx37C7gKk8HXJjtcffSw2w35wL96F5+jHGnOCjocFwdgLV8L+OCtfsv9WJGjqOng55gmKcr48UE/65Q8AoM1Xr6PxgjryXAuPp3eKEK0cZgYdAwuavlQ+D6fGNPdF4Cn9Ufs9E1wmKOoX8KesAYkGJoqjTcJH/ZcCAADN5NNSFTVj3hmLw63gMdhwZMEumAQd9EcSpbu3HQugKrRNyC/pfuxk9yIiCSRlNpwroiB8TbstpZGz3/FYAC/yG0Mh1sZt+ibrfiLRbB8BzAtQyI00PaCn9vIHMHEIfQ2NBcTeH4Q2LhbIVAC5UAfD5o5wWWhH+k1L1rBedpNIw6zVm/e73TO/rlRE9SEXc6UysyxjB5Ru3Rf00UQfW0aRmYe5kAt7Ya+0o/bGQFpNMuTmVD+UF6kVOkj7ImV1i8VFUboNtrkKxW4l9hES0zzjNVGH55ymq3+l6QIKalzQseQLv4U0aVR5JvagU7GV2eDQEoJDJ18pgZW4klZmLXF/wYnUJks/G86ArtgR6kUAoOJTx3dQmXJn7AHd4ARocviW0gSAMICpfA8rYSUu8TreQ5BDEXaHE6Cw6lMvwT5T+ZXWSQvMBcaa5L/rKTgh0kM6k9pCC8hEIJCAACAE+0jZAqtxBczTvkj1GyebR4CW2bsNqOv7EyoiJ2//PrUHdZg8Cy8SUMwjfkbZy3XwUrgKeiR8lNqN02CCttDNF0A9G6ZWXxJqt3VT1f83ahKaiq0P/4/20TPGq7HlKF3peulSalBt4R7dwWBr5TQYggOj9rTyHU3InFg9toRlC3kEULrCEBgIicdIbqIJ5vhkfVOVY2AIDIEWCTcsgf/Qm+6zUiqLMf5one52j982FYByHghoVsJnNLE9CV1QW9A6AfMXLtM9vghUFbiL/uYmawH9hk/Lbzp9XSqfj7OrL5GKSoqrRXAHja62gaYXRMXY0xyBPSwKT1QBSPKlOBzauzgdJs42H3b+5fZdAUjKxTicOrrYg3A2PSVqjMphamcaDn1cZd9ciaO0WW5mq4w5V1W107+xOUnxV6GbUxfPrgPPeN01v3F+R7Wn2qVR6zZZ3krQfqaxAo7hVDXX/U6FOfIoKqYH3SUtwaNgjLFeGSIqGwFlRy2o9v/8xsr7NM/y8k9A7amsxamuLn8AiS7EVfK7+SmZVK7gLOUbmObq8gdAugCWKP/NP05UFPmtlNm0HPq6zL7diWaoX8hnpOI82XzR7IYQODZ61w63u+TlqTfJM9Uyaav0Jc2jZaH1Rrn6pfKMcrLbkgDM5wV0CsqAzm53US8Kf4fDPd59tIB3lM/llr7jThTj5dJ30N/9fgWyMonmwQmePhRxoLROHe59VmonCvOV8eZ8ONHj7r2kNfIorz86f2iTJT8hrYHzve1NHXGROq5B/SSeJgCwrQDC0206GDqzKfyiux3kAvWVrC00FvtUe67MoI5wP3ytLFbPcVfe9i3wlv+TRO7q4kz1aZoJR/v6yM74jXqH/8jjQmUkTYI89zvK3c2vfPYOzaRRyhI18fOwRwWdwl/AYPdzXlWRhcONZcoxfqIobGYsxBGQ7aMIpGsz1yT7PsCmAijbjT1hBuzyWPJe+hB7uMvlrt6E39NtkBN3gzPoU3VKE1fTkkuvutnaGnZyvq1cIC+lB3x9/Q7JodHKBP+/Q5YylCnwaIIYLV9GKnfjfGgiIIIutCo5Yy3l282l0FxAQR1gleI5u5J8fngNdPW6dxXNcL6c1O7ots2A2s9wcTI/vKqW2bvH0RWJt6MBFV3kfs5fJZV8q65y+SQYw2zrdEvlGPivg3e9Tl1pNCz8i/C29JA8Af6ScKsPY5ag8qzAHAl5MEu5XJ8u9MhQfhKHCyutPsxSr9Emud9RuRL+DZmCosjEf8lFhuiUPEekSdqrprV3zwSHt/d4FCxUzteXOS58PPisAPCopg3tp1c4JL8VfAYFcVcTrMOFsA430HYoJzTzUMY2cDKdZZPTrXd4dsM+YufEUV6FgXFXroMl+CX8av4am6xNeR1usSl2K8ynlfiDWUzltfdX5kXypKOhPXakHnHfhGTDVOVafYK4I1NfJrtemwdxOS3AH0EnHfdG8lBBGU6kHtgh7huJTJqg1tb+5TKKG2is2JSyOELNTFZbWnpUAFLFZKeXPwAA1IMPCjs5bVU238OX/N6SH2wDixNt06iJ9Ency/8H+Fdk0vYtMcvnAADmd5QGwg1xnsi7Z8yCc5x163RCvhb+armimMZK72m/xN3vibiX/14Yj+9EJXkpA4DV8AGAXAcuwOvjdCrKgLeVvaLuApSH417+hLPNMZkLre+l8vKye9Pt0MVyT6SxynY3ESqX0D/EZ5SmB9Q92ijRpQI4TgueXOqD0M/tLuEZThvnjBL41neICW/r1dzQ7DjPnt/RAP0E/TmLy/8QKv1Sv89sBveidYtJd+Ul3/EflouvWyz9BQbrLY2n41/+6o04wnLFPngis7n+t/g5noy9xhT9POoQZ8yiBO80Pl7EgclXW06NBWDSm+bx2oXGx/EepXbu1CbrXbErzbJcHYLJBY5T4qhdYFJyWjjoCTkpearToAIoOIFGetitHT3mdFOc7zdGbJ5oC3rNMnPiAXpQb2e8n7h/X+ke/QVoDW9brrxV2IugzJgZZML0pNxan2iXqUE5mawnnvoET9Qf2bI98ccaX+n9sB9Y3bPVjUz339hV0MayYgP8HrobN5b+kLgEbbnRF/4CJRarapnv5eU5iaJ+A3rXZoYefxD/3ai1/2KipUEFYD7v8YXJHU7bymmB7yATJNtWBsM1Fos30mnGM85v3zVdvwYHQXnsGhxTID4xOwDAFuxmPGzf87AwB6ZYfK3D8IDeO/49g8XRzTzYDj6xWNEqw2d3rea1zPes2o7wtdrt3fTr06dltYEZFiuKsv/pZP/scT4bf+3lhCaJbxUKvAKQ20Nvj7tm4H3ONsQ1zrazYTsrcmE+jLZYvCKzi/te3dq7cJrFeK5aEQHNmTG+MU9NnKA1MgJi++7tx/76s246qwIA7NqhX2g1iSUOdNu/o7p9D1jMW0Fwv3ab21F2m8v0/mBRHdEANeHAOKW/izazMPxCC2EuzIcN4DxPRvvS+/2cJyuBVwB4g4+dr5TrONlMKwa/wy3z7VZWPg2xfRM+p3Oc3BzH0tdEesbeimIPdaCX0mx8lXl2acKho41a0z0xCw9iH81bHqKIdodVFWC+4r3ZTDkGYt+Qm3C1/py3CPVb6MnYxfRyU9t+nXIdcvamZhe+Rr0z6ustjB56L/1s/Tg9l7rRU7DFyc40rKC51/NkLegKAOFSH3vnorPOJCb85DNOm85H6okWeZO+y+rjfaT/9u/x3NgHAXrey5iEuDaZFzqpoEJPQfRtJ9FgzUfyce1OmBi9DI9XPE/9TU/GPqDgw/p47xEaD0Ps3kUVtkORpDsTTdAFADvhHmqq3WbMqfZCMmwsMR7Si/BKSNyulWMKnv854AqgcWubdnMHnA5koZ99Bmoz4JWGxTQy7o30d9JvID5tLdwcs7CpKWJ41iEH6eLEv/4ABW1i22fwWeN9X59NeDPEDlB12w70O/lYHBCzcJr2d3+nJ+tmXBWz8O749wBqLiXuuD0dj9NfjPuzUKlNyjieXk5YyiD5WH/HVl3AFYDzPnZxONwf/XaliftuV20R260G7/Q/rlyfCI9ACe44/A/KYGa278QkR4xw9nbCvD/6G4KrtBFO9rSjldMlsAR+rvLvO3zBW1l4X3SzG/1G17h9OxFt8378C0Q3GxZUXBN3hxvtHxIB8GH9Uk2332brPuNOvCLB8LUQ3u3v2KoLuCOQ2dxfDx1yOhXmHp+BZoJk3ZRH18S0+y7Vxok4N/oTIPh274hv9dFONmtYL6bLsAlDRUzqZmwUM928mksxMzhKD2gC0qyVFCvPQVRqWbwe/s96a0rQTEvD9Kedfa42Wd6B020HEV0p3ycukVzAdwCS3xZgp/v77kzb3LoBBmFIzKJ7/P7+JN09zi7izAExjWvvJWNaN+/okpicVSu0d8WUjc9Fv5ijjtaNsfkd7GfPxFcNh5c/AIAxB+3T0NZFP+/NogT9CJCqS8X36LwMy0iVLjG9/+ZpK1J0TF6t1j9xtiFFP9wQuPgipwLFtow8Kqr61cop5k2CadkSI9nPI/11XYfN1Uc++Y0EE91eLOYIAQKvAHz/MjsdrOw7t+FGy9ZaPDtm0f8lLCpg5LBHQctsiB6LvlT336NCpAw8M2rJFn2uuOKzJ8c8j59tueHZNoUQDHU/HV7kTqvuYEf0auknz0A1QVcALnqSWXH8dt9VYi4Llda/KxTVCoE76n3opLgA7Y/8x9mGO7tEj+NDH01ryaCeElOxTxI5+dzmMoiea/HU2J4n9RtAO5tCZnjJMVi6DZ61W79P2HiDoF8CrvF3JJLDXySq5/MZwDpltxQzhuzT5E5+6h8ucDq4GGPGx1V+HHT0UWJSteHRqtCHFIrueZFJHeGz6ouyO9n+jL4Onuij1C1g2eBnVoZmissREXAFsP0HZZuv6TscDvNBv0k6LFv1C5uGo16SCRh1kGTmIqdbSsdF3fT8WCYiS6RAFDM4hpIyYq6q0HHRFQC2tnnpsEX32mUq4jYPgTdBPwIQTvOx9+7Qp462C4Gv/G4AWGq1NByTPRZd9/1PNWmV0y0p6ujw66Bjj5GS/MLVUczfnOyiWJDeU8sGXwEAvenjre0kZ7dCSnNfyRkBgCzvAKhp9JIDGxKXFSzpR8ebRh2dmX7H1tR/EW5RbEZEuyic560KSOAVgP4NfeRx10p0Otyjnd8o0XqoRvQrqAPuk6Cn2ratjjeNft1V4njPVHE0FEwsjHmdTDYtTOhqLqQgBF4BAMDdHnP3v6Q5bQPwMPVFdWTZWiFF/+nTbqLPGAdcJBdL/6PzP3GdgM+U7CqABJ1/g5cGFYDxIzziYbfVWSOdbko9fQdpWQFQdBOGwCaoJHFT1UY1nGD6Pc0G8e2NeW1OdpPrpMH1ZS8tAtSfA7evAkvC/ZzOptuoCfpPpWR5r4HRIwyC+EVKnqhffEq/o/M7wsOL2EZUuzsjkQO4kyI9sgJTzuD9tekCx9uX4cXOm6RCl/vuCExh6/lVo7+AtQtzhGfxDwztwbyq/8d8jwUlz56oweS7odRjSU6VY0wHHdwT/y02tQQfmRNSIT0qACg+AH3VUfSAo403mH2dpHk8YoiLbeOEF6fzjBb1fwwfC98kLq5mkDSqnuJC2JSZwpREdZWZpwscJuOYZrPuJMelBMS2AshvJb0C3Wym6rJTAYvMoS4u1Ij2oLIOXk44k/uk8F/dTJShtAUPk4pGWRsn5A0xT1An/e9UAPQDnBJ1bGmGNmD1QcX+/9JeorD7jnucGjR1bCqABvWleT5aWrPgHGl+XpudO53vok8o+MR8EG6O9+REC2lk6WfOywMAwDv8Dw7DOOP7Sn9WKqvnsqOzQOBMNwGL/mK3KZBLjKCDqgqjI2zR8Kiy31Ifhc037BilrdcBVEpbVKzXhL7eKuxRx6YCyLjYd0eLwsz74CE3O5QYcE/Dx0L98SLoBvKRxRXwFX0amlzyndsAGh5Fg/2fJDPerECVuCZq3sFz4yUOqXnoy5hmgPPSq3qTvog+1Zm9wVECb5EqV9ndRuMdcL2XUtUraGK8iiW8GVqImivKrhXATx/9w4d/e6HrV0dlu41/6/11JUOmDnSm1ImO1XP1LsbD7i9/gIwHwX8m9YrsL+Otiu77j0cVdPd/1tLE4pgvmYDKVKRay6MHadGVqY+ibDPY9JGkwV7y+Kq59LzN6oJ8YdOP2FQAkogMdHUqPWeQ21pqfGUsKvnC2Og1CVV+K2+1b5Tl8RscKWYwkuknzXlaMfbCyqhF56jiZj4WoPgAfB61qJuYicZcshuSlmV6yRAxwu7nlxaXCmsAtakAtEWw0/8H4K1KIK9mAACk0X7HAAAA0Oz46+rPj5nPb2B6XSR+YHT23xAJn5jCp+gIMTIs9UEkGNB2vvI3d+UpvezPs+RtTgbrsmzWVZLD1FG2MmBMcqZLTES+zPOcQ9XNib9q40F6L/p4raaVqJlocsy917XJmJ/Ou4PvxfRtvEJul+ootPlg3yvlZeU856WpJ8GkBNflZHGx2zYD4iwQMRvN6fJ9bpIiipFfiK8JKWiTYduwh29R9LTZg9R/+Zk448gRXIiDpapV5xptVGrTjeqa8jH0rbYoKzQGzvEfRYFsPgdVx9XtlZ4q8fDIuWuHPB2rf0dD+Bp09/8iNi8v87lqU8KW0wtGvJfBJr2Dw20Ky4DpyiBnk4zL7emTBCnGZ+qak5Kcsa0AsmZXhEV0FcLHCuZ5+fP6EApNItl/MQAw1f7rrq1QP6OozHQ0rkkHb9OC/aGgkzkNsqt99AB5keE4nYcgz0ZVAAA9lbv0F32WmkFTIeqcRfK8DdmiZ/GyqJ6ep6vDtFE+I5SyJke34aMCp8XbHF+Bu8Bu6rBa8L7yhD4q0dss+VocY1sOAIDfs1/9QO1Wbi4DMV+4LPM/iioy7ETkx6MvSq+k9xJtQbFftmaV4/1VnIX55tSY9xflkPIR+fpSWhiz8GnZZ0uH8lTsX0fymEu5dHXsIxqNdHPLbRnhI7FdeMgmQl3DRPl7QjBSXa7apA9VT1Lm4LiEl/9c/XMQKMFgoISH5VRT+E+htx6FHqjXo6hXQRtLvky0if6pxVvg3upY7yMQ8vIis6FZ9FIaZQQwIh+Hx9xOZ+IMxceMTsrdEJsme1vE8282PRQzCjMDpuaf4qmwQxHeYjE+Va943G6fyN8TZ7imjjRXWare1CRqpkm5jtJf/Yi+hsTVlim56leTWIIKoO40YcMrTgtPF5fM2I56Ef3D/zwAh9A4J8+7oaGxUzzTdeqb3u4CmjbMmk2xX98N9YXe+jmlL6PYeY7yYF5BJ2/lqXeBVQv3fd4btoyvMDbxZl1prnKah8IAQLkZXo/9/tAw+2QvpVvR2aD202hspaF8L09WX1Gfkkcr45XVuAPepwucjMylcSUrE2/lRoIP3XiQxPX96rV7Yhv/3XISkHvTFGFDnML0lpPNtq0niyTOdJ0ys0kjJ/tXpZ5UsTIm1zAA0B1B5RvOHGYx3CXfnO9+uvKW2fIb9GLsxYWf6ZP8RFjxsMVb+PowT7nK/cGqr4LVz8dy461Eu2pj0Gm+RYTj8HK6jYbhHTAY2jv+vm7NetDhlo4lrHVCbwr8tP7GTKFTXMdQhuCMhE9Rzs1yMoMuAIDxOFg9mfWuXG331BdDkm+jZVYJTGm0McdFOUJtLcXBFm/Vc+ld5Z95ec7Lye+w+3O06ialVw7x166wYxcNsni9VgveVsbXb+C8HPUkZRFZTQK+Ha9w0K4QNi/3PwWdDROv8vtqOVbCCqDkW1gi8PPOo8WFzfwXYwnlB+Ht6oNz/CHnN92V4cvB6o/TjOYqkxRHOYnlM5Rl+IrVQChaYLicXEosbS5Y9224Met79QYnd3VygfqytAI6WKyqNC/zP4DHWELWPU4HZ/8g3+rkO1EgK8/SKqt7L4jAIM3RBDbGRroxiQ21j4loXI7m4LnDFNuG3z78hatfRYeaNpRn4N9FPfsDAMByw0XVV/Yb9AHrZCCD4HtlYsFZ8c9109ryAGUpLgbr5+pfMy8TMSOvH/rIOMOAVHrD+FG5v1GTuLtiQSfln1hMt1vf6NI9bsd3WjOehTcsV8j4mvKLOrzhUfH3ze+ojDF/hfviVBQP6s6SzwOAMQV9T54ex2Q9KXNFO7pg1C/IxztVCyaMrjdc5DOt3B3Hg+g7i/66w0m0Dsu/UPog/q8N/SZ9SgtoXeaGw1mDmjY8eAK0l7rRBTapozab58TLqiCfj1HdlKWikuKq/1fuh2eqbbBLz/N4NjKVGTY9K01YQfOlFZEf8n7deBAAsH5eZhG2w1PgQtu/y2P6yHirlG+gelvDGH0o2AkpU+GSuGsJVtB8abn5vVF8aJBTXl7W0dRO6kgXgc0k8/i05rJFSX2Zbvd4juMH/6HS/9uK+OtjzlVV7XSbrmzOXj88ATOEHo8Ed+/uK99uzPZfFEDThpWP0lDh2Q3XOuu5VVXpR/mXSFPiJVDBo+g6uA4hDEo57IUMaFAhIYD9PeNGqZdeLPjIvKnMuXTfRIiXcUeCrtiVQILdoFTAPshzUCLhPdpLAiOM6AOVt+CKOGsRumAXAgQF4ADupwaHFtrfsdMw3fX9r3anchDEPrLNrH+Z3eXvh6PLRpsFq4V/ckv8WJmu+swyo+Yq91RupNvFJzfFEV66k5Z+BOdA4hc1uaBCIwcxrzG7V/9FD1LxAf0y+IeDDbMcXf5hvFHo5Q8AUKkPASdl1iInrwbD8DdPXdhJvx/uFZgVYox+afJagJxdOISPO9rOrX70tTrFa3ttg/rqQ1QMzzv6Y7q1XJvlbUd9WUYHENNXa2xGV6etECkS0f9K19pOXO3UT3hGUua+M/W7cZCQd/HFcKbueap3/QU8D0T02N8Pt+hDk5lu3uEvpzYDBM67XvXzaQAsVVbJQ111FQ7JvZWJmdvoSUhOplrCu7y/zd26ST+TngR/t2zb4RL9lnTMMGy8JXUCj912j3jHbK/5LSMu7V06BRb7LGRSZTt/XW61udSOfE4Vj6ukU/Sxgk9PFMe3zuZQn19pOx3wVdgiL1AfUrraNyqpRer1ygRlK34MVwhs7482UVvua/+w8XConeeZgivgdTrR/RuIVCn5Tj8Nb7aeL9mB1dRbv1pcQgsrxo/6mXQNeJ2V52vzIv3KHbt8R1Fi9MGL4Vdve+MOGqp19pIFyx3HfeZKf1BfJOH9kKoI4Vl0FoBRqayHtbjJ3AK6dAD2R7JDdaC+2QiOwdZwHKUiN/3uiIDj3LYeeirnwkPgbuBMBCbiSGetzlZz9VREYspLsIcnpvbPhu+GbsU7QXGzG62HR4xpju+tomN3cyNMxtvyNLwZ7nGZ2G4DPqJNFff8rs1oOWf3tXC/XTtDLNxBL1eMdlUF2Zwb+/Pmot28MCf8LTQXdWrS2N+8P/vFUrvQNXiZk/cUtF6aEJqw1cV0kk0bVqyGo6ssWKafUf3LK7fDRdXmK3pDv0ncsRXmVA7Aq+AsB/eRu3Eaji/5zM2lpdwPT1f5fu6TLixZ6DbC5rX29YfB0MtBSpo9MA3HawuTktI1Q+kHV0FvBx2SCFbiG/Cu5vI9S9S5qlrgF8bpdglEXXWcUfvR9CScnvSyRD9T9JegZfaus7En9ISTLO+4DFxJK82PSxOOO7SQoR51+G8YCm/9LfbXtTAncmT2nMj+ZLxUbNREOhd7QPdqVdFh++ErWglLsz9yOpFb9djLjwwfa1ruvSFMLsBe0BO6Q5HF9/33CDM/TvYbl8L88HnUA88C636hm2E5zA/Pcj7jVfxz9QekRGn5XfacU/4JNyb3NAWs3OxQmrRR922ySlqEWqNCeVAHK6gMy2g7bnR6w5/u5DrUSmqOjaCOmYW7sQy2Q4n2g6j01SI0rV3RClpQA6gDtXEXbZe2g576CNVcsxW0lBpQHtSmA1AuldEv+JMW0DzCLiuAwpzIKkqrrHBi4Q1JaZxiLE257jsvt8dlInLtpqX39QFBh8BYKrnO17uvJHc/nBt02EmxobLPgYDG3DMWDA8Ju8uX57YEHymh0lQ5nlua8nnlGAuWlz70lHMD+Osok35MukZbF3QQjKWap0E0xQcy+sBPQYcu1DDjff+FMFbTeE6gUdDG/BzqBR2+IGP1W/wXwljN43kYbcm30sWQhoNV3MMp+q1Bx8BYMHyMoy9ZQOfD3qAPwLf/1r0qmcMtGUtnvhJpGIuxXw2/C5id0y+odNuMBc9nJh1tPvUWkiAiGDPrXVJ8IOggGAuOgCy68hn4QZIScyT30MdpN/HNP/tzE5BLz1iCnWl90AfiEsFj2vV8+bM/O0F59Os3yJqGnqZ3DsQBvF7zNRkVY/8bPHQFtnLwQNHk8sbYwX9JKfCLeb7x36CDYCwdCKoAAIzIvll1NsA5UCvoQ7KHH2f1Lvk56CgYSw8ip9ICgMZHRybAGUEfVFwHaKTxXFKSPjFWIwm7Azhk767y8TkhPF38RB0CfIMX6P9J4uSNjNU44i/UsDGCToFlQR9YlAPwmNxJWxt0GIylF8GPAEdI6g30d2gY9OH9fpAfmXcaG4OOgrH0k6wKAAAK8yufxmtEP2S4RevhbmNOsDEwlq6SWAEAAKgt6AG4zvn0I4JtwlHaOAgH9OmMpb0kVwAAAPnHSSNgUMrvBH6C5+R/J2tSZcb+N6SgAgAAkI+VhsKQpMzja2UZvKB/wM19jCWSogoAAKBl9q6+eBOcndTP3AXv0T+Mr1J3VIzVZCmsAA4paENXUh84UXjB+/BDmpLzEQ/vZcy5lFcAh6gtoC/1ge5CXg/+CnNgDn7qdkJFxlhAFcAh+XVDp0IX6gydQXW9cwR+oGWwBJYaPwZ5DIzVZIFWAH8oaE4nmUVQhEVQBEXVJrT+w0HYDpvgF/oFfqS1db7lm33G/EqTCiCKVL9+Rk6olpkn1TIPAmXug33h7UbNT0DKGGOMMcYYY4wxxhhjjDHGGGOMMcYYY4wxxhhjjDHGGGOMMcYYY4wxxhhjjDHGGGOMMcYYY4wxxhhjjDHGGGOMMcYYY4wxxhhjjDHGGGOMMcYYY4wxxhhjjDHGGGOMMcYYY4wxxhhjjDHGGGOMMcYYY4wxxhhjjDHGGGOMMcYYY4wxxhhjjDHGGGOMMcYYY4wxxhhjf07/Dzf4f0VOKvq2AAAAAElFTkSuQmCC" parent="1" vertex="1">
                    <mxGeometry x="50" y="300.5" width="158" height="79" as="geometry"/>
                </mxCell>
                <mxCell id="30" value="" style="shape=image;verticalLabelPosition=bottom;verticalAlign=top;imageAspect=0;aspect=fixed;image=data:image/png,iVBORw0KGgoAAAANSUhEUgAAAgAAAAEACAYAAADFkM5nAAAslklEQVR42u3dd5yV1Z3H8c+5M0OTpmChSFGxBEEQxYImoiYq2DcYW4zGtI0m0VhjHRM1lhiziWbXNdWsaGQtqGCJisZuRAliR4RRQaUXKVPu2T9+w4YQZm55zlPuzPf9et01y9znuec5c+c5v+eU3wEREREREREREREREREREREREREREREREREREREREREREREREREREREREREREREREREREREREREREREREREREREREREREREREREREREREREREREREREREREREREREREREREREREREREREREREREREREREREREREREREREREREREREREREREREREREREREREREREREREREREREREREREREREREREREREREREREREREREREREREREREREREREREREREREREREREREREREREREREREREREREREREREREREREREREREREREREREREREREREREREREREREREREREREREREREREREREREREREREREREREREREREREREREREREREREREREREREREak8Lu0CtAUHTPPV6zqu2Tqfa+iyZvma+TMP2eazVAricUOn1m5dk2/stiZf//HbR123Mu26ERGRbFIAUA7v3Z7PLz/Q4Y7GMw4YzD/X5QocT5F3kzv4/D3P7N9zaVxFGf7gRbu6XNUE8McCOwE1G/x4FfhnHe7uhlz13a8fWrsk7aoTEZFsUABQoj2fW7FvLu+v844xRR6yCrihynW/9vl93ZpQ5Rg+tba/c41X4zmZ4n6Pq5znhmVdqq+ZO7Z2bRp1JyIi2aEAoEgT7vJV8/qtvAr8BWWe4p28d0e+vF/3t6OWZfjUS77s4DagcxmHz3Ku+ogZh9XOjbO+REQk2xQAFOGAab7T6g4r7gMOiXiqxc5z+Iv79Xih3BPsNuXiH+Lc9UAuQjk+9rn8+JmHXv1KDNUlIiIVIEoj0m6s7rj8JqI3/gC9vOOB0U8tG1zOwbs9dPExOPczov/etnH53JSRj9b2DV1XIiJSGRQAFDD6meVn4t3pAU/Zmxo3acJdvqqUg4Y98qOd8e42wvXabJNvaLyT2lp9B0RE2iHd/FsxYtrSnjhqg5/YM6qu38pTSjkk11R9HdA1aDkc+4/Ys+n44NcnIiKZpwCgFR065M4FesVxbo+/YtTLvqaY946ccvEe4A+PpRzO1x4wrbY6jnNLm9Id2HyDV9hgVEQSpwCgNY4TYzz7trn65Z8v5o15575LfBM2hyxdmz8oxuuUyrE7cAMwGZgFfAysADywHFiywWslUA98ArwC7JJ24SVTtgJewr47pbzywGNYwCkxUwDQgtFPL90NT1mT9YrlvDuq4JtsjP6wWC/W58fHen6pFLcCPwSOBIYCWwPdWnl/DXajHwkckXbhJVP+HdizjOMccBBwdNoX0B4oAGiJqyrny1viZzC60FtG7t00DNgm5pJ8KfZrlUrQI8Kx5eSkkLard8Tju6R9Ae2BAoAWOHz8S+Q8BT/DN+UHJXC5AxP4DMm+klambETzSGRDHSMeH+W7KEVSANACn2PLBD6m4JO9z7m4n/4BOo24t7ZnAp8j2aYAQELpFPF4tU0JUCW3wHmWJfAxBVcBOO+jdMsWLd+lcfMkPkcyLUoAUNSKFmk31ANQARQAtCAPC9IuA4DHJZKu2TdUKy20qAdAQlEAUAEUALSgKp9/I+0yiCRMPQASStQAQG1TAlTJLdh2Qc+ngUVpl0MkQeoBkFCifh/UA5AABQAtmHSca/L4B9Iuh0iC1AMgoUQdUlTblABVcitcIz/Bsp2JtAfqAZBQogYA6gFIgAKAVrz0hZ7vA7ekXQ6RhKgHQEJRAFABFAAU0KW++/nOclqLtHXqAZBQorYtapsSoEou4Mmxbi1Vjf8G1KVdFpGYRWnEFQDIhtQDUAEUABThxb17fdhU70aBfyrtsojExBHtpq0hANmQJgFWAFVykaaP7b5oyfIehzjP5dhWqCJtSdQnLvUAyIbUA1ABFACUYPY4t+7F/Xr8uJrcDt7xY7ybmXaZRAKJesNVD4BsSHMAKoCi9jI8N6bbp8DlwOWjnlkyoMa77Zpyuf4557WFpVQq9QBISOoBqAD6o41o+n5b1KEJglL5FABIligASIC6WUQEot9wtZmUbMhHPF5tUwJUySIC0QMA3UtkQ/mIx6sHIAH6oxURUA+AhBW1B0ABQAIUAIgIqAdAworaA6DvUwJUySIC6gGQsNQDUAEUAIgIqAdAwtIcgArQJpbuHDDNd2qsXt45zTJUN9Y3PDl2q1Vp10WWTLhrQtWk4yY1pV0OKYp6ACQkrQKoABUXAIx+cUUv3+gPy8HhHoYDfVazomfa95/6Dh0Z/ezy1cACYLZzPNTo/YPTx/R8L+06S8LQh2u3qG5qGO+cO9J7tyvO938Huu429ZIVHj7KeWZ43H2dXNXDL46rXZF2eeVfqAdAQlIPQAWomABg1LQVvas6cC6N+e87XOeo4WVMugDbA9t7zyFVuF/s9czyx1yVv+CFfXq+knbh4jB0Wm3X6jWNZ5BvvBjnunkA90+/ne4OunvHLuBPWEvjqt2mXnLz2ob6q94+6rr2sqdCV2Ao9t3YGtgW2Az7++sGfAbUA8ub/3cd8EHzf+cAjQmUMWoDrh4A2ZACgApQEQHA6OeWn4j3twBdK+0+4x0H+7z7217PLruxc32PC58c65K4mSdit4cu3o81jZOAbUo4rCtwQaeamq+MmHLRMTPGXz0j7euIQW/gS8AXgf2whr/cL+5a4DXgVeA54DHgo7QvcBOS7gGoBgYBQ4Adm/93F/4RVOWwRuSz5tciYD7/CKreJpnAKgk5YIfmetixuU56AT2wQLMTFmB+BiwDVgOfNNfBW82vxYHLVEmTAEcDJwF9gA+Bv2F/a/MSLEMqsh0AeO9GP7/iBjxnp12UiHIed85nHVeO2u/pZcc+s3/PpWkXKKrdplz8Vbz7DdChvDO4Qd65Z0ZMufikGeOvmpz29QRQBRwLfA1r/ENtjtMJ2LP59a3mf3sLeAD4MzA97QtvFndk3gUYAxwIHASMIFodrw+sngUeAZ4C1sReS+EMAQ4DDgA+jzX4USwAnmh+PU70xq9SlgGeB/yUTQccC4AXsGDgaeBloE3Nacr0uN3o51Ze2QYa///nvD+gPucm7zDVd0y7LFGMmHLZF3Hud5Td+P+/zbxzdw6fevHeaV9TBFXAN7CnqbuA8cS/M97O2I3rZeAd4Fxgi5TrIY57SRVWn5OAJcCjwIVYMBS1jtcHVmcBD2FPwLdhDWpWuxl7AWdijdI7wH8AxxC98Qd7+j0J+C0wFwuOzgP6lXm+SugBuAy4rpXP6oPV7/VYnS8B7se+M7uR3e9J0TIbAOz57PKTwV+UdjlisP8WPZffnHYhyjXiodpB3uX/TLjeo04Od8/IqT/aMu1rK8No4CXgVqybPw1DsBvUB8BNQN+UyhHyZrg5UIt11z8IfBmIO2juDHwVmAa8AhwR8+eVoh9wY3N9/ArYK4HP3BVrHOcBU4EvlHh81nsArgKuKPGY7tj34kZgBtZD8BOiPwilJpMBwJhnFnZz8LO0yxEb704f/cyK/dMuRllF940/xW7QIfXJU3Vp2tdWAoc9dT8L7J52YZp1Ac4AZmNdmqVuTR21AQ9xL9kCuBJ7Ar2c9IKZEdiT3lPY2HpaumNP+XOwp840thuvwoYangSewYZfipHlHoDrgRAPl1sDlwAnxFjWWGUyAGhwHS/GKrfNcs5XXIAzYspFI4DjYjr9t4c/csngtK+xCNVYV/H1ZHMOTWesm3wWNgExKVECCAd8HRtGuRhr+LLg88DfsSGepH0Fm+vxfbLzhDkGm4Q6Eeseb00WVwE4LKA6N+A5G8nOPJySZS4AmHCXrwJ/WtrliJuH0aOfXrpb2uUoicudSnzfmQ6u0Z+U9iUWUIWNR5+cdkGKMBgbM09qaKLc78UO2ASr32KrJ7KmCzbE87MI11iKrlgDeyeFG9m0nIDNEfhiK+/JWiIgB/waC6hC8c3nmxW4rInJXABQ13fZ54Gt0i5HEpzL/VvaZSiF9xwZ6/mdOyrtayzg58DRaReiBJ2Jr8dmY+XcS76KjbePSaxGyncOcAvxTvzaBXiRyuhS7oVNnvxaCz/PUg9ADgvivhPwnOsb//8MeM7EZS4A8C73+bTLkNy1ckDaZSjWbg9c3A9HrF30DkaNeqA2jXHOYnyFsE8PSVmX0OeU0jBWYxMWb8PW7FeKb2CTvuIwGhtj/1zaF1mCKqxhHbGJn2VlDkAV8Afg9IDX7YHvYt/hipa5AAB8/7RLkKByl9gkryaRsrp1VY1Z7Pbcksr8Y28A7i7yvUlNAuyBjSOfkValRHQR4VcIfB6rk7SXcpajBthpE/+ehVUA1cD/YD1NoeSBbwP/FfCcqclgAOBKySpX4XzBxs47n0hykg7V9a1+jvfJ/F6qXOE6ScFFZHN8upA/kVw2s2IDiNMofUlZljhsvkKov4dR2DK7SuoJ2dByLHjZWNo9ADXYPIrjA15rHvgm1uvRJmQuAHCWrrKdcAV3D3SeTxIoSNN2K979tLU35EgmeZHL+6ztqLg1FvFXmiZsOWBSir2XLEmhLkLbkjB1OwDL6LhZ2hcUwY/ZdBrhNHsAOgL/C4ScY9WEBa+/C3jO1GVuGZPPZp7zuBS81rxnQS7+fFMLs7Jtb766w/y0y7CRU7DJdKHUAX8BXsdy03+I3Vy6YsvfumJdqsOA/YGeZX7OHVhOgKQU+y29A1vqt2OCZYvDKVhCmJllHt8JyzWQxR6vYr1Ny0NjafUAdALuwXIXhNKETXa8PeA5MyFzAQDOv4Ov+AyLRV4r7xR6S75LzSu5NY3riDMTmue5tKui2dKZz7Mo7UJsJNT44avYUMKjFP90VIXNkD8Ry4ZXbMrXPMk+/UPxT2wN2Pj/o1R2KtUccCkwoczjr8bSyVayH2KbDG1KGqsAugCTgYMDXmMjdg+4M+A5MyNzAYCvrp7sGpp+TQaHJ0JznnsLvef1sbWrdpt6yVPYBjMxFcRNSbsuAPBMobY26o0jpD5YStSobgZ+QOkbiTQBf21+fQ97qvk+hbOx3Q28UeJnRW2MSzn+MeD3WPKfKNYCz2O9Ke9gKx6asIagN9aTMhRbXhdHYpmjgf5YL04pDsS+D3FqxJ7Q52A7/63/u+qJbUc9hGjzWh7C5i60JOk8AF2xtNEh55c0YPsjTAp4zkzJXADwt9FdPx797LJnwLX15YCrqWqcWswbveMu52MLANbkaHwg7coA8Pj70i7DRvYnesM4CWu8o94QG7Au4/uB4cDZ2M1p401xPJbnPGml3rDPBQ6h9JUw65rr4E/YrnWrizhmCyyAPhkLokI9XFRjk8IuL+GYGiwhTRwPOIuxHSLvwQKjQnUzBAsmDwLGUnwP03JsGVxrkuwB6I4FIyHzSTRgEwjvCXjOzMnkU7bzvjbtMsR/jdzw4t69VhTz3potP73NwXuxlAN386vjfrow7frAu7e26FKTtW2Bh0Y8fi3WUEdt/Dc2E5uQNARLTrNhN+wfsPS1SSs1UFqKjasW21B8iu3e1h9LbvQAxTX+YBMP7wQOx36nfwl43aUOAXyHTS+bi2IRFmQOwIZXig2M3sWWs03Aeru+3Fw3hb6v38f2a2hNUnMAemLDSSEb//rmOmnTjT9kNAB4cb/Np2FjOW2Sh/mdG9ZdV+z7p+/x3w14d1kMRVla1VR1bdr1AeBd/vwnx9Y2pl2OjUTdCOYvxDupdR7WoAzAGsVx2BNpGsq5lzyOZVdszTLgR1hq459A5Dkib2G9AecQJjDbheInNHbHgpiQJjZ//k0UHxBtyvqcEV9qPt8f2HRwNglL4FRIEqsAemHDSSF3R1yHrR5os+3PhjIZAAA01btvkOws5qTU53z+5CfHblXScrcZ438yEXzIJSh55zh5+hG1WZh09/uZ467KxDDERqLus17qOHy5PsFuzA9R+jyDUMptTC/Btlbd2BpsO9rtgGuI1rhtys8JNw4/rsj3fZ1w+SQ8tkPgSVhvSkizsR6mUcATG/z7R8C/F3mOuIcAtsQCyFEBr3stcAw2l6BdyGwAMH1s90W5XO5INr3GtFLlcZzW3MNRsi6rVp8JvBCiIN5zyYzDrixqDkKcPDxVvdWnWV1n3zXi8ZW0p0VaM/LXYY3Yhomo/hd7sr6A8I3bhn5FmCe9fYp4Tw44M2DZv4XtbBenGdj8gJOwbvYvU/z9OGog2lrbtA0wjbCrKNYAR2FBdLuR2QAA4IV9ur3Z5Jt2B15OuywBLMEx7qV9e0ws9wTPH3fjmuWdq8diE33K1eQ8Z84cf2XSy8Q25c81TdXjpu/x3w1pF6QFpc7u3tgXqewkL6WI0p3+BjYh8HpsMtoEkstgeHHEskNxAcBhhNuZ8WrgN3FWykYmYr+fUh4+ogYALfUA9AOeJPr8nA2txtI7PxrwnBUh0wEAwPT9tqhr6vjZFxz+BkgmLW5gHu/vzeXyo17at8cjUU82d2zt2r+/VH2ix5+HzcYtmoOZee8PnDH+yptTrpNFznPm3w+78oTpR9SG7toNaWXE4/tjSwAzt9omg54Gzsdu7kl6HcvREMW2FO7t+Uqg8r5AaasO0hJHADAA+36EnET5GTAeG05odzIfAABM36Pv6hfH9Dy3ynUYgo3dzUm7TEVYAtyO96Nf2q/nsS/ss/ncYGeurc3PHHfVz3xV9Y4O9zNaf1rKA8967745ZNXbu782/qq/plgnbzvPFdU1DTvMGH/lzbjgs+ND+zT6Kfga1q24c9oXE7Os/y5b83yAcwxp5WcdCLOB0PqNaLI2WXZTQg8BDAaeIvrE3A2twuZvPJlctWRLRT2ZPL9vl4+w2bvn7PXXlZ/L5/IjHWzlcFt5l35WMefzyz25+Q7eGzC/2/OTjnOxTsiaeUjtp8B5eM4fNuXS3XMu/zly9HO47vk8n+D4qKq6+rlXv1Q7H8rPWQrQlM+9lXO+nBUDCx3+47xzL8887Mq346yPGLwZ6DwHA69hE/X+gD1tZCL1ckCVHACEWKmxA/BsCz8bS/kpnTd0O9H+jJMUsgdgB2wy4rYBy7cSG5Z5NuqJRKRt2gVr2EK/1ids+Q6wB3GmeS7erhGvKURvSVq+FvHaPXBFK+e/MsD5PfZdqRTXRLzW9ZMNd8YCtJB/f8sobt6GiLRzc4gnCNjwVQ+8gk3s+i6wN5bONklRA4Akdq2My+ERr90D/9nK+R8PcP4ZaVdSia6KeL15LOHQJwHqbsPXUmB02pWTFRU1BCCSgjuxRDRxqgFGNr9Ob/63JiyX+6vYxK/HsCQ27V1nbKfEAdgky97YDnDdsCWFq5tfi4AFwPtYFs3WJnSGWIXS0vr+HLBngPNXWmKaqEMAjvDLHJdiiY7awqoyEUlAP6xhibsXoJjXh9gcghMI30MQtQfg45jqvwe2G9t/Y8FQQ5nlmwPchaVm3niDpwMD/G6eYNP6BTi3x/alqCSXB7ruUK9GKmsIRUQy4nrSv4Ft/FqONYr7BrrGoRHLEzIAqMF22puEJWiJo/4+wFYU7Y0tP4x6vpdauJb9Apy7iehJqZK2Pr9CVl7rCJeFUUTaka5YetS0b2ItvWZiWdqirIT5XMQyLAhQz9XYMrf3M1Cnpb6mt3BNpwQ4dyUse97YhRn4nWz8uof0Ml5mUkXkARBJ2SrsiTRqYqC4DMOelp/DtgouR9Tc7VGNwSZC/hcwKOWylKOlzHVbBDh31IyUacjiMtdjiH8+T0VRACBSnFlYxrCitnBOyd7YBKezyjg2agDgyzwuB/wYS/IyLLaaiV9LE6o7Bzh3JS6xzGIAALaj5KFpFyIrKm4VwPuDTu3pfMM47/0h4Ac757bGs2WJp5k7qG7i7lHK8frQCR26LK8+MJdzR3nLAtYH6AJuPuTne++eoKrh3sFzJ8U1Oer/LZyy2465fP5w790YnN/Ge/q4MIlHovrUeT71UOfwTzTClK2PmlXJy8WexpK63E12n1JrgBuxxvSbFN+wl9uAR9EZ+B/g2BQ+O7SWegBCBABr0764MmQ1W2EO29tgT2x1SLtWMQFA3bbH921yuctdvv40oMYGcly5t62l5Zbj/UGndsrl63/gV3IBOTb/14/3g8DhHF8mX3PT3G1PmNzk3QXbfzjx3dB1snDyruOdc1fQlB9l5fDgMzXItbl3lrfb406qgvyi+4dPzVc1XbrV+NdnpF24Mr2CzSa+CTg+7cK04uvN/z29yPcn3QPQCbgPW5bVFrQUAISYvJfVzbJak9UeAIDNsfkA+2J7AbRbFTEE8P62J30n73LvOtsCsya1cvQ/fi+Xr3/DW5arzYs4JIdzx1TlmDVvwAmXhWqbF04e2XfR/cOedM49SNj9sOOWA394rin3ysL7h//mg7v2CfF0lIbF2FK8w8h2atavY8lUipHkHAAH/JG20/hDyw9TITYw65T2xZUhywEA2FyZW9MuRNoyHQB4JlTN3fbEm5zz/0nymdH+ydyBJx3jcrknsE0pStXB466YN+DEP3/Qf0KkRm/J5KFjnGucDnwhzfqIyDn86Z07rXp26ZRdBqZdmAgexpL3TMAS9aTRjV7IdRS3gUqSPQA/AI5LrUbi0VIPQIgnzEpbAgjZDwDAgvgfpl2INGU6AJg3sOY6HGekXo4BJx2E95OIHoRMaKqq+V25By95cPiu+VxuCrBN2nUSyMh8U/UTC6aOLHUOR5bkgf8FvojNBbmGMJvLhNIR+FmR15GE7bH97Nualnr3QkwaDbkJTlKyOgdgY9di83rapQwNF/+zeQNOPMVbN2Ec5gyqm7h9UW8cfOLAXBMvEzCJhMedPbju9l+UcsynU4Zuk2vM/Q1H/5jqJDUe/0zvbr3HurFPVspNoxAHjMBmGx+KjTWmOd8mj22q0to8lH5EW272IcU1VPcBR8V4rfOAd4C5za9F2PLN9QmF+gFbY3kPvgR0D/i5gzbx70cSPY3vcmzIMYs9TC05hfju36EtxOb11KVdkKRlchLge9tN6OEb+Xna5QBwTfyKwBmkHP6a2X2Pv3uH+Xd+UOwxuUZ3bVts/K0+3H6LVyz+Djaxri3wWNraV4GfYo3M6I1efRIsTw6bDHhhgTJHveZChmMNYkhLsRS/fwGeB+aXcGwH7OnvGixgi6KlLu+5Aa6xBzaME3wicYziGgKoB07Ffne/J8xD7JbYyp79qcwVF2XL5BBAVVPN+UCvtMtRt+3xezjbKSy0jlXVuUuKffPCB4eNwrmT066PWDlqlz04rJiJlZVoBTZH4GosoVBfbDObE4BfYVnk4u79GFfg50kMAZxBuF7HWdg8gj7Ytsp3U1rjD9aYPILNp4m6PLWlBm99VsOoQqV8TkocAUAjtvLmDqx34ZaA596D1nd0bJMyFwB4anN49/XoZ4ou73LnE9MwiYPT5vc9oaieBZfnDDL4uwqsV2OTy/KyutA+wHYa/D528+kJHAz8gni6IneFVvNlxD0JsCNhJv6tBM7EJl9OwnK8R7WC6PM2Wqq/lYRZb35EgHMkKXQA0IRtCnXvBv92LmF7RU7FtuNuNzLXqNQNeHtf8KlPcnt96IQOxJsxqqah2h1W6E1+2gHVHl9pf/zlyfm2kBCmXJ9h+8afjY0lfwmYEvD8DtillZ/H3QOwL9GTU33SfJ6bCd9j0iHi8a01eH8LUL5DsaGAShHy95PHlrTeudG/fwZ8LfBn3YilpW4XMhcAeOcyMSOz68oO+2N7jMd4rQW7ZVm8cuFIh2sfu1h5DvC3jEotz0OGeGxM+3BsjPrtQOcd0srP4u4BiLpstQGbPzArUF1srGPE41urv5eKPkvLNsOeUCtFqB4Ajw3x3NbCz5/H5nCE0gHrWeobX9VkR+YCALzPxJIX7/wu0c9S6EMsS15rHFUD0q6LBFUv7bs2yclxleBJ7Kk3xFNka3Ms4u4B2C3i8TcRpiFtSdQAoLUG79FAZTyPlPOhlCBEAOCxIbJCCXt+TMu7MZajDzaxtCrqibIucwGAtyU66csnUQ5XsLHz3rerBtGT65d2GTJoCXAi0ce7W0soE/cqgCFFnaVlv4p4fCFRlwO21uC9gW0nHVU/4KKY6yGUEAHARIpbGdSALTsMOYN/DHB+DPWSKZkLABwuibzXBfcCcC7s0r9N8wUT4HhXkXnAy5bHhZjU1RbNJvoTcGtP+XFnbovSpToHm00fl+5En59QqAfl/kBlvQDYJ8a6CCXEuPxfS3jvG0DRK6uKdDmVvUNlQZkLAPAsiP8jCi8XyidTN0V0MfksZZWLXT6fz+r1OuAc4E2sQbqN4lLshrQw4vGtZaWL2gNQ6Ia/WYRzF50vo0w7BjhHoQAqVFKcamwjm0FxVkizPbG5KH+k9GyEIQLKUoOIG7EdO0Pp2HztbXZeUvYCAHyckT4ADjc37assVi7v56RdhgSt3OrVWVEbubhciqXU3RnbD+Kr2IS0n5JcrvaoAUdrwXXUOQCt3fAd0W6isU7GBQ4JcI5CPXUzsQlrIWwDTCP6sEprzsAa04Ox7vUXsTTOxQrRA1BqEJEHTgNWBayHkdjffpuUvQAgl38o7o/w+fzUtC+zWL2Ofv0NXPvYt9o5P8XVJrorXbEOwLoDN9YRy673NjZTOepEstaMwDLpRfFWKz+LMwDwwOoI5x5AfGnL+2CbE0VVzFBdyEQzg7CAInSisv7YLPib+Ofvcx8smVWx2UjrA5SlnF6E9wg/dv8jLFdHm5O5AGDQvD+/ieOdGD9iZWOnZdPSvs4S3Z12ARKRd/ekXYRN6IRlHGvtb6UvdnOfjSWpCb19a2cs7WkUq0kvAADLZ1+u3sSzNrsrtpFTiM2oimnw7iBs4ppe2NyC24m+YVB34CpsH4Uvt/CeQVgQsFUR5wsxd6ncYYT/woYuQqnGhgIqcVvmVmUuAABwnhviO7n75ZDZD1XYRLPcLwmzrWiWvbXFxx3uS7sQm3AOxY8R98dmq7+H9RiE2Op4MNYVOyLief5K66sI4g4AojZ8Z0U8fmNbAQ8RLsVuMQFAI3BZ4Otw2AqR2VgjdQClLV/bARvGmo2tMCi0XflOWPrkQsMyafUAgPU4nQ4sC1CG9T4H/CTg+TIhkwHAgLqG32KzOkNb1FRVf33a11eq3kf8/SPnfMWVuxR5xznu29OztuKhN+V1J/YFarHJgn/F1m8Ppfi/txz2xHsL9tQ+KsC13Ffg51EnARa6WUdN4PNvWNa3EMZh68b3C3Q+KP6J9y7C5HTYWAdsrH4a8DE2UfAiYELzdX4OCyLHYOPkvwBexwKzCymtF2QElpWvtUAjxN9ylHkEHxA+aDybNpYlMJO7ATomNb2fO+l0l/fTCNft4nHuW9vPmRSlKzI1K7quurbryu5fdPg29QUEcHDLVke8lsV5GecQbX14DtthbH/gOiwv/KvYTXc+Nqt/HTZBrhcWcKy/UYfcDGs1/5pGdWNRewAK3awfxyaWRfFb7PdxE+UFLPti47lxbPBV7BNvHns6fZno6Ydb0hs4pvkVl3HAz2l5/kSaPQDr/RE4lnA7UFYBf8D+PttEj2wmewAABs+9/QUH3w52Qsdlg+bdfm/0E6VUH2Pnru3oao5ucxMCvX9ki269zky7GJuwGSG/f6Yb8HmsAbgU+CX2lH8TcAXwPeAgwu+E+XuKG4OPEgQUulk/RvRELVVYnb2AbY5TaNLl+v0PzgNeAZ4lnsYfSmvwXsPG2yvd92l585w05wBs6FvAooDXvANwbcDzpSqzAQDAwLqJt3nPCUSbQew9XDFo3sQr076eqLofMX1RQ1X1PsATaZclDPen+lzHY93YJ+PeCrccx9N66txKsZriG5s4A4CV2CS4EEZjk98WAQ9jAdSFWJKcC5v//4eBT7GhxOuw5VxxKvWJ96dYd32luwFbIbCxLPQAgG0g9c3A1/xdLFCveJkOAAAGfzDxznyesd6i5lK97z2HDa6bWJv2dYTSZ9yrC3st6HAo+KuBNWmXp0yfOMfXex8585S+R0yPEtzFKe4GIylXQNHJteIMAMDGnUMu8+yKreE/A2tQr2n+7xnN/57kJlqlPvE2YOPzld6j14lN91hlpQcAbP7LbwJes+Mfw1EVLfMBAMB2H058aVDdjiO85zS8/3uh93t41+PO/qxbw86DP5j4SNrlD819e3pD7yNnXex99Q7YrPNP0y5TkWbj+FFjR7d9ryNei7qsLW7lBJxZ8yKUtKImSuNcTC/OTGwMtS0q54l3MTY+ndXkV8WYyqYneIboAQjZM3g2YZdgDsQyD1a0uJJrxGruwK8O9vmmQ3EMdDbjOof3Hzvn6sA9NrDu9sgrCN4fcOItzsaPYjWobmLk34GvJbd4xPA9fS6/P7i+DrbGZSB9Zd6vwbkFeD4kx2O9j3jtregnTUx3bJZ0sYlPsmY+sBfwYQnHrKbwMrCWTKG48fUtgRm0ve1Wr6f8BDRDsTkS26R9ESV6CesK31TmvQ5E37zqAOCpgOXdC3iGsJPfD8e++xUpk6sAChk070/vEzarVkWz7HkzX8Se+CSMFVg38j1QeNvmjFmGPVmW0vhDtB6AYm/2C4GTsC1y0w9Sw4nS5f06MBbLSzAo7Qsp0qvYSoCW0u5maQhgvReBK7EluqHcCuyK7dhZcSpiCEAkJW9gG6JMTLsgJViMPZWVsz96lACglBn+TwKnRvy8kOooPVjaWNQu77ewdLMPp10ZRXgAW82yuJX3eKIHAXHsUHkV4fZkAJsAWcyWxZmkAECkdSuxJ9bxwNy0C1PADKyb85Uyj0+iB2C9icDJZRwX2gtYoqX/iHieEGPei7Hv2WUZqJdNacAyXB5DcRvuZDEAaMQ28loZ8Jwn0HL65ExTACBSnKlYkp5zyN6kyyasAduXaLPKk+oBWO8O4EBgXnxV06pbsd6SRURbagxhurzBfgc/wTZ+ejyletmUGdjyyx9TfMMcNSiKa3nwe4TPEvhr4t+1MjgFACLFW4NlP9sO+CHEumlVsZ7FnvrPIvqy0CjpgMt9Yn0O2A1LiBTHE9+mvItN3voW/2j4oz5xh+gB2NA72Fa8R2OT7dIyB0vBvAcWBJQiiz0A6/0Om98TSp54dwONhQIAkdJ9hi0B2hm7Sd9O2I1HCsljk+gOxPK8lzPevylRGsEoxy7HtlMeie18GdfcgHeaP2co/zpzO2rwFDoAWG8yFuAdjI29x/U5G3sO2zNgZ+A2ymuMo5Y17oDw29hqmVI0Ytt/343NJzgBSw08gLAZBxNRkasARDLCY920j2Mz2r+ApajdHxhG2L+vPDa2Pxm7IdfFcD1TgG+UeWyIiVWvYWOp22NPnSc2/+8oPsFm1/8Jy7zXUi/HC9gYfDlpmBuJP2/E+u/ZFlh++wnYkE/XQOfPY0/4jzTX1ZsBzjkNm+dRjjriHxpahE1GfYh/3dhoAdb7MQcbMniz+fU2yQVhsavIPABJqKQ8AJJJXbEVBLtj+cO3b/5vfwovf1uDPZm8iSXPeQWbOb+YeFUBh1H6Gv3ZxJeeeiesp2MUNlQwkE3vXNeE3bTnYTPqp2Nd569SfI9Ch+bP64A16sVOFFtFOvNCqrGnz/2wOQPbYdtH96f13t1GrGF7o7muZmC/v9AJiXLYvJn1XeNdKK6bfE1zmZLacGcMNr9hNv9o9Cs1y2pJ1Pi0ICsBwKLJw7+G898r5ZzOs5qc/yjv3cc5/PNUr32417jZK+K+FilaF6An0KP5f4ONl67C1hMvS7uAGdcJS1jUExvDrweWpl2oDOmAbWbVEwvqemAN2nIsv0XIGfBSwTQEkHXOb0OJ+8F7Z//HAR53Fo2d1y16YNj9Pu8u3fKomW+nfUnC6uZXqeOPYtY2v9Tob1o9CoqkCJoE2D50xDPBOT9r4f3Dfu5vGdWWMrCJiEgZFAC0L9UOzl7cp/7RFQ+MSnKnNBERyRgFAO3TAfW+/tH5D4zqEv1UIiJSiRQAtF8jO/r6kHtki4hIBVEA0I55OGHh5F3Hp10OERFJngKAds45d72fdoBWg4iItDMKAGSXJSsWjU27ECIikiwFAILHHZV2GUREJFkKAAQch6RdBBERSZYCAAEY4L3SQouItCcKAFrgXCJ7kzemfZ3NOqx8cFQ5u6CJiEiFUgDQAu+T2N3Lf1LwLY5VSVzvZ1V59QCIiLQjCgBa4t3H8X+IW1BEQZLYMKZ+m8NeXZTA54iISEYoAGhBFe71uD/D4Qt+hs/zQfzl4EPn8HF/joiIZIcCgBZs+8G654DF8X5K7sFC7+i9bpdXgYVxlsI7/0i81ykiIlmjAKAFjklNwNQYP2JNY3X9XwqW47hJTcCUWK/VVU2O8/wiIpI9CgBa4fDXAvlYTu79r7efM2l5cW/1N0NsXfRvb7HZ5o/HdG4REckoBQCtGFh3x+vAHTGcemVDQ+O1xb55y6Nmvexxd8VykY4L3dgns7IcUUREEqIAoIDqpuofAHNDntPjvjfk40kljevn8vnzgMLLBksryL29j3jtvqDnFBGRiqAAoID+H922OJ/nK8DaMGd0vxpcd/sfSz2q19GzPnB5fyywLtClveFq1pwaqp5ERKSyKAAownYfTnwJlz8IF202vodfDqwbcla5x/c6etZzLpc7ClgW8ZJe8A2NB/caN3tF+NoSEZFKoOxvJZgz+OSdck35/wH2KPHQ5Q533sC6228NUY6Fk4fv5Jy/AxhZ4qF5B7eu6LbyrMFj5wbq0RARkUqkAKBEntrc3AHvftXhLwF2KPD2z3Dc1rCu4fJSx/wLlqOW3OKRu56I4zJwQwq8vck5Hm4kf/HWR7z+91QrUEREMkEBQARzBx4/0vnckR63g8MP8M51dN5/7HF1OKZVNdU/vO2Hk9bEXY4l9w0bls+5I4GdwPcDuoH7xHm/gBzP11dVP9hn3KuxJhMSERERERERERERERERERERERERERERERERERERERERERERERERERERERERERERERERERERERERERERERERERERERERERERERERERERERERERERERERERERERERERERERERERERERERERERERERERERERERERERERERERERERERERERERERERERERERERERERERERERERERERERERERERERERERERERERERERERERERERERERERERERERERERERERERERERERERERERERERERERERERERHJrP8DWH7JB+E4PXIAAAAASUVORK5CYII=" parent="1" vertex="1">
                    <mxGeometry x="320" y="1080" width="160" height="80" as="geometry"/>
                </mxCell>
                <mxCell id="32" value="" style="rounded=0;whiteSpace=wrap;html=1;" parent="1" vertex="1">
                    <mxGeometry x="220" y="261" width="120" height="60" as="geometry"/>
                </mxCell>
                <mxCell id="33" value="" style="rounded=0;whiteSpace=wrap;html=1;" parent="1" vertex="1">
                    <mxGeometry x="220" y="359.5" width="120" height="60" as="geometry"/>
                </mxCell>
                <mxCell id="34" value="" style="rounded=0;whiteSpace=wrap;html=1;" parent="1" vertex="1">
                    <mxGeometry x="220" y="582.5" width="120" height="40" as="geometry"/>
                </mxCell>
                <mxCell id="35" value="" style="rounded=0;whiteSpace=wrap;html=1;" parent="1" vertex="1">
                    <mxGeometry x="220" y="695" width="120" height="40" as="geometry"/>
                </mxCell>
                <mxCell id="36" value="" style="endArrow=classic;html=1;edgeStyle=orthogonalEdgeStyle;entryX=0.5;entryY=0;entryDx=0;entryDy=0;entryPerimeter=0;exitX=1;exitY=0.5;exitDx=0;exitDy=0;strokeWidth=3;strokeColor=#000000;" parent="1" source="32" target="19" edge="1">
                    <mxGeometry width="50" height="50" relative="1" as="geometry">
                        <mxPoint x="780" y="610" as="sourcePoint"/>
                        <mxPoint x="830" y="560" as="targetPoint"/>
                        <Array as="points">
                            <mxPoint x="598" y="291"/>
                        </Array>
                    </mxGeometry>
                </mxCell>
                <mxCell id="37" value="&lt;font style=&quot;font-size: 16px&quot;&gt;ビルド結果をアップロード&lt;/font&gt;" style="edgeLabel;html=1;align=center;verticalAlign=middle;resizable=0;points=[];fontColor=#000000;" parent="36" vertex="1" connectable="0">
                    <mxGeometry x="0.0465" y="-3" relative="1" as="geometry">
                        <mxPoint as="offset"/>
                    </mxGeometry>
                </mxCell>
                <mxCell id="38" value="" style="endArrow=classic;html=1;edgeStyle=orthogonalEdgeStyle;entryX=0.5;entryY=0;entryDx=0;entryDy=0;entryPerimeter=0;exitX=1;exitY=0.5;exitDx=0;exitDy=0;strokeWidth=3;strokeColor=#000000;" parent="1" source="33" target="21" edge="1">
                    <mxGeometry width="50" height="50" relative="1" as="geometry">
                        <mxPoint x="350" y="301" as="sourcePoint"/>
                        <mxPoint x="608.25" y="517" as="targetPoint"/>
                        <Array as="points">
                            <mxPoint x="480" y="390"/>
                            <mxPoint x="480" y="797"/>
                        </Array>
                    </mxGeometry>
                </mxCell>
                <mxCell id="39" value="&lt;font style=&quot;font-size: 16px&quot;&gt;CodeDeploy&lt;br&gt;開始を指示&lt;/font&gt;" style="edgeLabel;html=1;align=center;verticalAlign=middle;resizable=0;points=[];fontColor=#000000;" parent="38" vertex="1" connectable="0">
                    <mxGeometry x="0.0465" y="-3" relative="1" as="geometry">
                        <mxPoint as="offset"/>
                    </mxGeometry>
                </mxCell>
                <mxCell id="40" value="" style="endArrow=classic;html=1;edgeStyle=orthogonalEdgeStyle;entryX=0;entryY=0.21;entryDx=0;entryDy=0;entryPerimeter=0;exitX=1;exitY=0.5;exitDx=0;exitDy=0;exitPerimeter=0;strokeWidth=3;strokeColor=#000000;" parent="1" source="19" target="4" edge="1">
                    <mxGeometry width="50" height="50" relative="1" as="geometry">
                        <mxPoint x="780" y="620" as="sourcePoint"/>
                        <mxPoint x="830" y="560" as="targetPoint"/>
                    </mxGeometry>
                </mxCell>
                <mxCell id="42" value="&lt;font style=&quot;font-size: 16px&quot;&gt;ビルド結果を取得&lt;/font&gt;" style="edgeLabel;html=1;align=center;verticalAlign=middle;resizable=0;points=[];fontColor=#000000;" parent="40" vertex="1" connectable="0">
                    <mxGeometry x="-0.1978" y="1" relative="1" as="geometry">
                        <mxPoint x="-1" as="offset"/>
                    </mxGeometry>
                </mxCell>
                <mxCell id="43" value="" style="endArrow=classic;html=1;fontColor=#000000;strokeColor=#000000;strokeWidth=3;exitX=0;exitY=0.79;exitDx=0;exitDy=0;exitPerimeter=0;" parent="1" source="4" edge="1">
                    <mxGeometry width="50" height="50" relative="1" as="geometry">
                        <mxPoint x="800" y="710" as="sourcePoint"/>
                        <mxPoint x="640" y="693" as="targetPoint"/>
                    </mxGeometry>
                </mxCell>
                <mxCell id="44" value="&lt;font style=&quot;font-size: 16px&quot;&gt;画像アップロード&lt;/font&gt;" style="edgeLabel;html=1;align=center;verticalAlign=middle;resizable=0;points=[];fontColor=#000000;" parent="43" vertex="1" connectable="0">
                    <mxGeometry x="-0.0099" y="-3" relative="1" as="geometry">
                        <mxPoint as="offset"/>
                    </mxGeometry>
                </mxCell>
                <mxCell id="46" value="" style="endArrow=classic;html=1;fontColor=#000000;strokeColor=#000000;strokeWidth=3;exitX=1;exitY=0.5;exitDx=0;exitDy=0;exitPerimeter=0;edgeStyle=orthogonalEdgeStyle;entryX=0.5;entryY=1;entryDx=0;entryDy=0;entryPerimeter=0;" parent="1" source="21" target="4" edge="1">
                    <mxGeometry width="50" height="50" relative="1" as="geometry">
                        <mxPoint x="800" y="690" as="sourcePoint"/>
                        <mxPoint x="850" y="640" as="targetPoint"/>
                    </mxGeometry>
                </mxCell>
                <mxCell id="47" value="&lt;font style=&quot;font-size: 16px&quot;&gt;デプロイを指示&lt;/font&gt;" style="edgeLabel;html=1;align=center;verticalAlign=middle;resizable=0;points=[];fontColor=#000000;" parent="46" vertex="1" connectable="0">
                    <mxGeometry x="0.4084" relative="1" as="geometry">
                        <mxPoint x="-181" as="offset"/>
                    </mxGeometry>
                </mxCell>
                <mxCell id="48" value="" style="endArrow=classic;html=1;fontColor=#000000;strokeColor=#000000;strokeWidth=3;exitX=1;exitY=0.79;exitDx=0;exitDy=0;exitPerimeter=0;edgeStyle=orthogonalEdgeStyle;entryX=1;entryY=0.5;entryDx=0;entryDy=0;entryPerimeter=0;" parent="1" source="4" target="5" edge="1">
                    <mxGeometry width="50" height="50" relative="1" as="geometry">
                        <mxPoint x="800" y="690" as="sourcePoint"/>
                        <mxPoint x="850" y="640" as="targetPoint"/>
                        <Array as="points">
                            <mxPoint x="1149" y="694"/>
                            <mxPoint x="1180" y="694"/>
                            <mxPoint x="1180" y="941"/>
                            <mxPoint x="1144" y="941"/>
                        </Array>
                    </mxGeometry>
                </mxCell>
                <mxCell id="49" value="&lt;font style=&quot;font-size: 16px&quot;&gt;DBマイグレーション&lt;/font&gt;" style="edgeLabel;html=1;align=center;verticalAlign=middle;resizable=0;points=[];fontColor=#000000;" parent="48" vertex="1" connectable="0">
                    <mxGeometry x="-0.5438" y="-1" relative="1" as="geometry">
                        <mxPoint x="48" y="55" as="offset"/>
                    </mxGeometry>
                </mxCell>
                <mxCell id="50" value="" style="endArrow=classic;html=1;fontColor=#000000;strokeColor=#000000;strokeWidth=3;entryX=1;entryY=0.5;entryDx=0;entryDy=0;exitX=0.5;exitY=1;exitDx=0;exitDy=0;edgeStyle=orthogonalEdgeStyle;" parent="1" source="24" target="30" edge="1">
                    <mxGeometry width="50" height="50" relative="1" as="geometry">
                        <mxPoint x="800" y="680" as="sourcePoint"/>
                        <mxPoint x="850" y="630" as="targetPoint"/>
                    </mxGeometry>
                </mxCell>
                <mxCell id="51" value="&lt;font style=&quot;font-size: 16px&quot;&gt;デプロイの開始と&lt;br&gt;終了を通知&lt;/font&gt;" style="edgeLabel;html=1;align=center;verticalAlign=middle;resizable=0;points=[];fontColor=#000000;" parent="50" vertex="1" connectable="0">
                    <mxGeometry x="0.2126" y="-5" relative="1" as="geometry">
                        <mxPoint x="62" y="5" as="offset"/>
                    </mxGeometry>
                </mxCell>
                <mxCell id="52" value="" style="endArrow=classic;html=1;fontColor=#000000;strokeColor=#000000;strokeWidth=3;entryX=0.5;entryY=0;entryDx=0;entryDy=0;entryPerimeter=0;edgeStyle=orthogonalEdgeStyle;" parent="1" source="28" target="7" edge="1">
                    <mxGeometry width="50" height="50" relative="1" as="geometry">
                        <mxPoint x="800" y="540" as="sourcePoint"/>
                        <mxPoint x="850" y="490" as="targetPoint"/>
                        <Array as="points">
                            <mxPoint x="1209" y="100"/>
                        </Array>
                    </mxGeometry>
                </mxCell>
                <mxCell id="53" value="" style="endArrow=classic;html=1;fontColor=#000000;strokeColor=#000000;strokeWidth=3;entryX=0.5;entryY=0;entryDx=0;entryDy=0;entryPerimeter=0;exitX=0.5;exitY=1;exitDx=0;exitDy=0;exitPerimeter=0;" parent="1" source="7" target="14" edge="1">
                    <mxGeometry width="50" height="50" relative="1" as="geometry">
                        <mxPoint x="800" y="530" as="sourcePoint"/>
                        <mxPoint x="850" y="480" as="targetPoint"/>
                    </mxGeometry>
                </mxCell>
                <mxCell id="55" value="&lt;font style=&quot;font-size: 16px&quot;&gt;route53&lt;/font&gt;" style="edgeLabel;html=1;align=center;verticalAlign=middle;resizable=0;points=[];fontColor=#000000;" parent="53" vertex="1" connectable="0">
                    <mxGeometry x="-0.3854" y="-5" relative="1" as="geometry">
                        <mxPoint y="-21" as="offset"/>
                    </mxGeometry>
                </mxCell>
                <mxCell id="54" value="" style="endArrow=classic;html=1;fontColor=#000000;strokeColor=#000000;strokeWidth=3;entryX=0.5;entryY=0;entryDx=0;entryDy=0;entryPerimeter=0;exitX=0.5;exitY=1;exitDx=0;exitDy=0;exitPerimeter=0;" parent="1" source="14" target="15" edge="1">
                    <mxGeometry width="50" height="50" relative="1" as="geometry">
                        <mxPoint x="800" y="530" as="sourcePoint"/>
                        <mxPoint x="850" y="480" as="targetPoint"/>
                    </mxGeometry>
                </mxCell>
                <mxCell id="56" value="&lt;font style=&quot;font-size: 16px&quot;&gt;Internet Gateway&lt;/font&gt;" style="edgeLabel;html=1;align=center;verticalAlign=middle;resizable=0;points=[];fontColor=#000000;" parent="54" vertex="1" connectable="0">
                    <mxGeometry x="-0.3917" y="-1" relative="1" as="geometry">
                        <mxPoint x="1" y="-19" as="offset"/>
                    </mxGeometry>
                </mxCell>
                <mxCell id="57" value="&lt;span style=&quot;font-size: 16px&quot;&gt;テスト実行&lt;/span&gt;" style="text;html=1;strokeColor=none;fillColor=none;align=center;verticalAlign=middle;whiteSpace=wrap;rounded=0;fontColor=#000000;" parent="1" vertex="1">
                    <mxGeometry x="220" y="359.5" width="120" height="59" as="geometry"/>
                </mxCell>
                <mxCell id="58" value="&lt;font style=&quot;font-size: 16px&quot;&gt;ビルド実行&lt;br&gt;デプロイ開始&lt;/font&gt;" style="text;html=1;strokeColor=none;fillColor=none;align=center;verticalAlign=middle;whiteSpace=wrap;rounded=0;fontColor=#000000;" parent="1" vertex="1">
                    <mxGeometry x="220" y="262" width="120" height="59" as="geometry"/>
                </mxCell>
                <mxCell id="59" value="&lt;span style=&quot;font-size: 16px&quot;&gt;master&lt;/span&gt;" style="text;html=1;strokeColor=none;fillColor=none;align=center;verticalAlign=middle;whiteSpace=wrap;rounded=0;fontColor=#000000;" parent="1" vertex="1">
                    <mxGeometry x="220" y="582.5" width="120" height="40" as="geometry"/>
                </mxCell>
                <mxCell id="60" value="&lt;span style=&quot;font-size: 16px&quot;&gt;feature&lt;/span&gt;" style="text;html=1;strokeColor=none;fillColor=none;align=center;verticalAlign=middle;whiteSpace=wrap;rounded=0;fontColor=#000000;" parent="1" vertex="1">
                    <mxGeometry x="220" y="695" width="120" height="40" as="geometry"/>
                </mxCell>
                <mxCell id="63" value="&lt;span style=&quot;font-size: 16px&quot;&gt;開発環境&lt;/span&gt;" style="text;html=1;strokeColor=none;fillColor=none;align=center;verticalAlign=middle;whiteSpace=wrap;rounded=0;fontColor=#000000;" parent="1" vertex="1">
                    <mxGeometry x="140.01" y="1060" width="120" height="59" as="geometry"/>
                </mxCell>
                <mxCell id="64" value="" style="endArrow=classic;html=1;fontColor=#000000;strokeColor=#000000;strokeWidth=3;entryX=0.5;entryY=1;entryDx=0;entryDy=0;exitX=0.5;exitY=0;exitDx=0;exitDy=0;" parent="1" source="25" target="26" edge="1">
                    <mxGeometry width="50" height="50" relative="1" as="geometry">
                        <mxPoint x="800" y="620" as="sourcePoint"/>
                        <mxPoint x="850" y="570" as="targetPoint"/>
                    </mxGeometry>
                </mxCell>
                <mxCell id="65" value="&lt;font style=&quot;font-size: 16px&quot;&gt;git push&lt;/font&gt;" style="edgeLabel;html=1;align=center;verticalAlign=middle;resizable=0;points=[];fontColor=#000000;" parent="64" vertex="1" connectable="0">
                    <mxGeometry x="-0.0325" relative="1" as="geometry">
                        <mxPoint as="offset"/>
                    </mxGeometry>
                </mxCell>
                <mxCell id="66" value="" style="endArrow=classic;html=1;fontColor=#000000;strokeColor=#000000;strokeWidth=3;entryX=0.5;entryY=1;entryDx=0;entryDy=0;exitX=0.5;exitY=0;exitDx=0;exitDy=0;" parent="1" source="26" target="27" edge="1">
                    <mxGeometry width="50" height="50" relative="1" as="geometry">
                        <mxPoint x="199.01" y="560" as="sourcePoint"/>
                        <mxPoint x="199.01" y="440" as="targetPoint"/>
                    </mxGeometry>
                </mxCell>
                <mxCell id="67" value="&lt;font style=&quot;font-size: 16px&quot;&gt;check out&lt;/font&gt;" style="edgeLabel;html=1;align=center;verticalAlign=middle;resizable=0;points=[];fontColor=#000000;" parent="66" vertex="1" connectable="0">
                    <mxGeometry x="-0.0325" relative="1" as="geometry">
                        <mxPoint as="offset"/>
                    </mxGeometry>
                </mxCell>
                <mxCell id="84" value="&lt;font style=&quot;font-size: 16px&quot;&gt;Google API&lt;/font&gt;" style="edgeLabel;html=1;align=center;verticalAlign=middle;resizable=0;points=[];fontColor=#000000;" parent="66" vertex="1" connectable="0">
                    <mxGeometry x="-0.0325" relative="1" as="geometry">
                        <mxPoint x="-60" y="-342" as="offset"/>
                    </mxGeometry>
                </mxCell>
                <mxCell id="85" value="&lt;font style=&quot;font-size: 16px&quot;&gt;Twitter API&lt;/font&gt;" style="edgeLabel;html=1;align=center;verticalAlign=middle;resizable=0;points=[];fontColor=#000000;" parent="66" vertex="1" connectable="0">
                    <mxGeometry x="-0.0325" relative="1" as="geometry">
                        <mxPoint x="60" y="-342" as="offset"/>
                    </mxGeometry>
                </mxCell>
                <mxCell id="91" value="&lt;font style=&quot;font-size: 16px&quot;&gt;Git-Flow&lt;/font&gt;" style="edgeLabel;html=1;align=center;verticalAlign=middle;resizable=0;points=[];fontColor=#000000;" parent="66" vertex="1" connectable="0">
                    <mxGeometry x="-0.0325" relative="1" as="geometry">
                        <mxPoint x="-84" y="208" as="offset"/>
                    </mxGeometry>
                </mxCell>
                <mxCell id="68" value="&lt;span style=&quot;font-size: 16px&quot;&gt;RDS&lt;/span&gt;" style="text;html=1;strokeColor=none;fillColor=none;align=center;verticalAlign=middle;whiteSpace=wrap;rounded=0;fontColor=#000000;" parent="1" vertex="1">
                    <mxGeometry x="1048" y="962" width="120" height="59" as="geometry"/>
                </mxCell>
                <mxCell id="69" value="&lt;span style=&quot;font-size: 16px&quot;&gt;ACM&lt;/span&gt;" style="text;html=1;strokeColor=none;fillColor=none;align=center;verticalAlign=middle;whiteSpace=wrap;rounded=0;fontColor=#000000;" parent="1" vertex="1">
                    <mxGeometry x="1256.75" y="530" width="120" height="59" as="geometry"/>
                </mxCell>
                <mxCell id="72" value="&lt;span style=&quot;font-size: 16px&quot;&gt;EC2&lt;/span&gt;" style="text;html=1;strokeColor=none;fillColor=none;align=center;verticalAlign=middle;whiteSpace=wrap;rounded=0;fontColor=#000000;" parent="1" vertex="1">
                    <mxGeometry x="1080" y="681" width="120" height="59" as="geometry"/>
                </mxCell>
                <mxCell id="73" value="&lt;span style=&quot;font-size: 16px&quot;&gt;Chatbot&lt;/span&gt;" style="text;html=1;strokeColor=none;fillColor=none;align=center;verticalAlign=middle;whiteSpace=wrap;rounded=0;fontColor=#000000;" parent="1" vertex="1">
                    <mxGeometry x="580" y="1021" width="120" height="59" as="geometry"/>
                </mxCell>
                <mxCell id="74" value="&lt;span style=&quot;font-size: 16px&quot;&gt;SNS&lt;/span&gt;" style="text;html=1;strokeColor=none;fillColor=none;align=center;verticalAlign=middle;whiteSpace=wrap;rounded=0;fontColor=#000000;" parent="1" vertex="1">
                    <mxGeometry x="423.75" y="1020.3800000000001" width="120" height="59" as="geometry"/>
                </mxCell>
                <mxCell id="75" value="&lt;span style=&quot;font-size: 16px&quot;&gt;CodeDeploy&lt;/span&gt;" style="text;html=1;strokeColor=none;fillColor=none;align=center;verticalAlign=middle;whiteSpace=wrap;rounded=0;fontColor=#000000;" parent="1" vertex="1">
                    <mxGeometry x="423.75" y="880.0000000000001" width="120" height="59" as="geometry"/>
                </mxCell>
                <mxCell id="76" value="&lt;span style=&quot;font-size: 16px&quot;&gt;S3&lt;/span&gt;" style="text;html=1;strokeColor=none;fillColor=none;align=center;verticalAlign=middle;whiteSpace=wrap;rounded=0;fontColor=#000000;" parent="1" vertex="1">
                    <mxGeometry x="540" y="760.0000000000001" width="120" height="59" as="geometry"/>
                </mxCell>
                <mxCell id="77" value="&lt;span style=&quot;font-size: 16px&quot;&gt;S3&lt;/span&gt;" style="text;html=1;strokeColor=none;fillColor=none;align=center;verticalAlign=middle;whiteSpace=wrap;rounded=0;fontColor=#000000;" parent="1" vertex="1">
                    <mxGeometry x="538.25" y="600.0000000000001" width="120" height="59" as="geometry"/>
                </mxCell>
                <mxCell id="78" value="&lt;span style=&quot;font-size: 16px&quot;&gt;ALB&lt;/span&gt;" style="text;html=1;strokeColor=none;fillColor=none;align=center;verticalAlign=middle;whiteSpace=wrap;rounded=0;fontColor=#000000;" parent="1" vertex="1">
                    <mxGeometry x="1148.5" y="530" width="120" height="59" as="geometry"/>
                </mxCell>
                <mxCell id="79" value="" style="shape=image;verticalLabelPosition=bottom;verticalAlign=top;imageAspect=0;aspect=fixed;image=data:image/png,iVBORw0KGgoAAAANSUhEUgAAAgAAAAIACAMAAADDpiTIAAAC9FBMVEUAAAAAmAAAmQAAmAAAmQAAmQAAmQAAmgAAmQAAlwAAmQAAmQAAmgAAmQAAmQAAmQAAmQAAmQAAmAAAmQAAogAAmgAAmgAAmAAAmQAAmAAAmQAAkgAAmQAAmQAAmgAAmQAAmgAAmAAAqgAAmQAAmgAAmQAAmQAAmgAAlgAAmgAAmgAAmAAAmAAAmwAAgAAAmQAAmQAAmAAAmwAAmQAAmQAAmQAAmQAAmQAAmQAAkgAAlQAAmAAAmQAAmwAAmAAAmQAAmQAAmgAAgAAAmQAAmQAAmgAAmQAAjgAAmQAAmQAAmQAAmgAAqgAA/wAAmgAAmgAAmQAAmQAAmwAAlgAAmQAAlwAAmQAAnwAAmQAAmAAAmQAAmQAAmAAAmgAAmQAAmgAAmQAAmAAAmQAAmQAAmQAAmwAAmAAAmQAAmQAAmQAAmAAAmQAAmQAAlwAAmQAAmQAAlwAAlgAAmQAAmgAAmQAAmQAAmQAAmQAAmQAAmgAAmwAAmQAAmQAAmQAAnAAAmgAAlQAAmQAAngAAmQAAmwAAmAAAmgAAmAAAmQAAmQAAmAAAnAAAmQAAmQAAmAAAmQAAmQAAmQAAmAAAlAAAmQAAmQAAmQAAmQAAmQAAmQAAnQAAmAAAmQAAmQAAmQAAmgAAnwAAmQAAmgAAmAAAmQAAlQAAmAAAmQAAmAAAmQAAmQAAmQAAmQAAmAAAlwAAmQAAmQAAmQAAmAAAmQAAmQAAnAAAmQAAmgAAmQAAmQAAmQAAmgAAmwAAmQAAmQAAmgAAmAAAmgAAmQAAmwAAmQAAmQAAmAAAmQAAmAAAmQAAmQAAmQAAmQAAmgAAmAAAmAAAmQAAmQAAmAAAmQAAmgAAmgAAmQAAmAAAlwAAmQAAmgAAmgAAmAAAmQAAmgAAmQAAmQAAmAAAnQAAmQAAmgAAmQAAmQAAmQAAmgAAmQAAmQAAmgAAmQAAmgAAmAAAlwAAmQAAmAAAmAAAmAAAmQAAmgAAmQAAmgAAmQAAmgAAmQAAmQCf0VilAAAA+3RSTlMAJXu95Pn8v4IxClqr1/Ty1aVNBQtWplRGco4OS3aSloNhBoehqpNvIiZ0lZ9CBKz9xz3i0zx16+kHDIbuM6n60VsC7cU/yAlk9f6NAwGIYNz4LicZIKAI3i+JgFd52FH3RTfx2xwq5hSoPu8eG/OeOxHhsMrdrfajWCG0tuoSOh3wFb4XuESQUG45JGu7pKdfha4T++PladLGDcKKhOhTEHrJY9YYi85ey53UlJoWKNmZd5tsH8xlVbznNSmPwCuzMK847EE0jGhwI32yfllIcdBKf0xq4HwsLU5iQ2a1onhtGpHEw9rNl89nXQ+6XEDBUoFPc5yYR99Jt5TnVHoAABQMSURBVHja7d13nFbVncfxByOj0qUoig0UOzCKowygoyMJ+jBjiSAoSrCibEDBEhElaOwSJEhWRWNLNrFFAyaIxgi6xlBcosnGxLhEQyyxrtnqev9ZaXrLKb/fOXdmyOv1ef/7nHLv+X3nzlPPrVQAAAAAAAAAAAAAAAAAAAAAAAAAAAAAAAAAAAAAAAAAAAAAAAAAAAAAAAAAAAAAAAAAAAAAAAAAAAAAAAAAAAAAAAAAAAAAAAAAAAAAAAAAAAAAAAAAAAAAAAAAAAAAAAAAAAAAAAAAAAAAAAAAAAAAAAAAAAAAAAAAAAAAAAAAAAAAAAAAAAAAAAAAAAAAAAAAAAAAAADw96fdVl/aun3N1ttsu11ZI3bo2Klzl67dtu/eo63PzaZnrx26df3sCHfsYG3So/dOO++8U+8yT6HPLrvutvsefds5mvTrvede/ffeZ98SZ91v/wM6HbjtgIGWh/cdVJtsdtDBpczYa/DmAQ+pK/FEytPh0MM2H+GQfeqNTYYOG76xwfBhQ0ua9fAjGjZNeuRRjeYm9YcevanJiC+XNGvdVzaNeNiuI02PH3NsklId1RQ9Y/NxqQFrjtd0rT8hiXGi8BL21c7pXkeeZGiy3dZfNNi6lCtj06ia1KRfGm1qM6ZbqsnJY0uYtXHn1IjjTik2ODW/iIOiL3njM+NVT1N0PT2q/kkyoadklq9NzPbqekahyZlnpRucdWZ8JXr0z0569jnFNudOyjQ56Lz4Wc/PjNhlF8GKxyZgck12vH/4urjrlKmRAUguEMzSvX2+V5cLc02mTc82mD4tthL9LspPenG/fJvzLsk1OTI2AT0uzY34jdyZ1tUkRf0HBk222Yj8eJeJu14WW/8kmeGd5PKuxV5Dcit9QL7BAZGVqJ9ZnHSrfKMrCk0iE1Cof5JcOSvdoLFbYnJETAK+WRiuYba0azU+AFdd7ZvlW6Zu2ZBeMzH/+MRroiox8lrTofbJNrrO0CYqAYb6J8n16RY3WFbx/IgEDCsOd6OsZ+PF8fVPkvGeWW4y9qrenG4zp9hgTkQhKh2+bZw09/zYmMyIBBjrn0xMv6aZa1vFW8JfC4wojnaRrOe8MuqfHNbBPcsF5m7fSbeZX3x8fvCCVCo9tzHPeUSm1a0LjI2CE2Cuf5LsmGozzrqM2wcn4LvFwc4WdRz6j6UEILnNPc3t5l53pNucHXoORgvvtBxpdkzb5TgwAbb6J3elGk1MrOaGJuDE4lhXiTp+r5z6J2e7j7yLudfd6TZXhZ6DSZ8RtiOdmmk3x9YsKAHW+idzU61c63hZYAJMY0n6jflGSQFI7lEf32eqZZyDyb1fsR9ppuF91mYBCbDXP9lBGIDQ5wGhi9c/KcvFIQFIfG1C63+/40gzLb9vb/eDf9LWf759sB9KA5Cc3KicNmbxDi7hJeBmddrja7kA3Poj14Fmmn7Z0VB5DXD8/SfJA+IAJAeGJCBs8RofLK/+7lcdrRqAq490Hmim7cCjHS1V1wDX339Sk86SbyUfCkhA2OL1LbH+Se1JyuNrqQBc87D7QLOtH3E1VVwDnH//SX/JYsQkIGjxFk7yHorGj7eMAPjqnxvz0atcbcXXAOfff7LgMVUAkh83t0oA9iy1/s43blsvAFN+4jvOXIejnM+DjvS+yb2x/s6//2RX0WKkLNImIGTxLp8oOBKNPbaAAHzd/92GfJfFztaiBHjqn/tgTrKWjyv/C4Qs3qWSA9E4eqjq+FoiAIL6F8d0J0DwX8B9/U8uzX3UL1rMx3XXgIDFu7DEl4Cb/LStA/Az+9vsrjEjE6CsvywAyucB+sVrXFJq7TcYN1BzfPlj1J9DXrvvJgKGjlEJ0NZfGABdAvSL94Rt3qWS+Z409+3VpgE4aetEwtQ1IgHq+ksDoHomqF68hU9ZZl0imvXn5v8fD7ZlAB4TfrBp7BycAH39xQFIrpcnQL14d9kmPUM24UXm3rZvVbdCAJ6Wvqth7h6YgID6ywOQ/KLFArDviZYpnxFOuKzW2H15mwXg2cMSIcsAQQkIqb8iAPIEaBfvOduM/yyd0fxV0uqyNgrAds+LF9U2REACguqvCUCyc8sE4Je2+QaJV3xMe+MAD7VNAA53faYjHVOdgLD6qwKQjGqJADTZPi6rOVccgMruxhFONP72pqUD8MJwxZLah1EmILD+ugAkv2qBAKywTfaQaLKNRh9rHGJYGwTgwrMSBcdAqgSE1l8ZAFkCVCfax/YScKL850QVw+/bNhi+sNUDcHDXRMM1lCIBwfXXBiDzbaJSAjDKNpPw/80m08zX3ZWtHYDJyp+2OQcTJyC8/uoAZL5SXEIAVtleAk59VBWAymrjKIM1L31LCEBv7fda3cMJExBRf30AklNLDcCLtmn+RVf/ytC7jcOsadUA/Fr9obZnQFECYuofEIDkuBIDMMA2yZULfbPkvWQc52XDG5gtFoDf6L/U4BtSkICo+ocEIPltaQFout02h/DHhCljpxsHGtB6AfhX27+ziAD4ExBX/6AA+C7P8hP9nW2GV+orascYR7qi1QKwY0Oi5z8tTwJmx9Xfuhjub+j8vpwA3Gt9y3yevv6VgRNMI1X/0EoBWLMgcbsyLAC57VbyjnU+6q2/dTGatg9PgPhEf2Eb/pD4bYoiqYs1w1v/VwMD4LkGxNXf/tcQkQDpid7c3jb6H9uw9Lpz2Oy12sRtyKvhby6FJkBQf8flsGmuc/CtdGOa2s20jX2/+pvopVMW6xhf/e9eFvP2clgCJPV3/T9scu/Xc1/s4v2bdehftmHldeewyVpv/c9Vj5kRkgBR/Z1PiDwJOD1u8QYeYhv4T21Xd+U5bLLC953mp85Vj5mjT4Cs/u5nxE2vO6d4I2rx/mwbtlradrURNMXayVeLwTerxyzQJkBYf89Loqa9QhIgOtFp1peAO1S2AIpiHeqrxfRV6jENdAmQ1t/3mrjpZOc0i8MXbzfbmA03V7YA8mJ5CzN9X/WYYROF1N/7pkijMwHVG6Vj5ts8Zn3bbHfBUY+cNm3dvssOr7vuuu5LH1i7dp/F44877i+LXu/ff/m331zS7ZJLJg0vvit7ivP48scoLpa3LK9crg9VbALk9fcvhicBfw4MwBW2EY9dZz7Qny2e+9aS9aV1/oLa7knFOSuK9R3fvCfM1ofKZrzwXBX1FyxG4wWuuapzZGPmmpxhHXBP42Fe/lzsjwd30ZyzuFh3JR5vn6MeMzoBmvpLFqPxIdds1d8FBKD5Hdtww417Ms+L3j9sQrPqnGXFat458ZiwTjtmfAJU9RctRuPjrvmqK/QBmGEdzfi08o343w7fpjxnSbGad0s8Oo/WjhmfAF39RYtRaT7ANWPhGuAdr4f1h/OTTLu8dtRWu+jonspzFhSreW/frJ2zz2cEY/r5ngkq6y8LQKV5kWvO6hPKAPzUOtQKwyG2K2H/yGHac/avifu6uN4hua81+scU6PED55y259CRAag0/9U1a+0xuhO1Pql42xTfQYFFT2mYUnoAmg70TVrYz0Wwzv76z/fMertsHyFtACrNu7tmrX1NdaJjbN+dMn3hdFkJm4fMVZ+z7/Em750t3i3s6iZZ59j6qxMgWYyNCXA+46m+pzpR2zdBTK8Btg2peM7Pyw6AoP63ita69Pprd5WVLMamBDif89Qe7x4zO9Z5tp9Pfa8470H6eufdqT9n9+M9OvmmfNAQZdk6x9ZfvJucNgCV5utds9bO05zo7y2jdCmm96kk2g0lB6CftxDvzKoUCdc5tv66a4BkMWQJqHlfcaI9bTuoPFKYNeC71jmXNOnP2fV4/XLfjAd9IF3rlqi/6hogWYwvOLfz/DwBkvFsOwM3rMq3fEVTa6P8J1aSc3Y8Xv9i4jGiT8VEvs6R9ddcAySLkTLKNWtNR/mJNto2UZ+bb/lkEumq/I+MJOdsf3zkh74J37L8qkmxzpH1V1wDJIuR5vz0q+Yj+Yn+u2WM2vz3gfZRnbhB4SftknO2Pm65/VeKrf5RAVDWX34NkCxGhvPzr5oZ8hO1bO2VzMy1Wxf5JGDBmDIDMPRj33zbWO9dq1rnyPqLrwGSxcg6zjXrgl7iE93P9pWQ/O3LvR+5ud0SdM6Wx/u86ZvuSfs963TrHFl/aQIki5HjfCa4YKn4RG2vKd7MtZsl2nPVplq8XbbknM2Pf+B9U+JD4/3ZIwMQVH9hAiSLked8b65mjfREp9k2U+uea7hdzKdBL4ads/Fx1+2/NrrWUf/gAATWX/Y8QLIYBc77+zX8TTreSssIt+e3p/9NlyTYTeUF4NZ3Eo8/jdWudUvWX3QNkCxGkfMa0CAdr9/blhHez7d84e0k0LcCz9n0+Mu+yZa7f9SuX2dB/Ts7H/UnQLIYBv+hLYRxFNutUsf1y7esvy/wrrLXlRgAn4v6VZwC1tlb//k9xjsf9yZAVbCU3yoXxzyK5ZbKieG7xk0DVl4/d+Zbtw9WbcN3f+g5K09vQy089Q8KgLf+vm+J+RKgK1iK8qdK5kGetfyo0r1D0Mh1y+q6P7B2n/F/eX35m90muTbm+c/WC0CnoL0Y4uo/s95fCs8zweAAWD/QU41n+1rNav/8qUCMftWyO9/Dxt+Zt0gAjhjoPU79Ogv+/tcb72zlvgaEB8D/mzjBeOssz++VuwTuaJn1qOBzboH66wMg+vtfL+IaEBGAyv7xAbA+l9DtE2p5f/4Sc1VaIAC3COqvDoC4/jEJiAlA5b/iAzDSvLmbbqfgVZanEmvDz1lX/x0k9dcGQFH/iAREBUCRAOsQ8ywdNHuF/9A8xFOWt2VKD4Dw9rq6dVbVPzwBcQHw743gHc9203DF3QL6XWkeYqeIc9bU/7+FN9ZUrYuy/sEJiAyAZYNWzXjftHzt+1JxAI4yD/C87d6hJQdAfGNVzbqo6x+agNgAVFbKvrbvGMF2qjdJD+FOc3/rS8lyA7BIfGNdxboE7f8alIDoAPh3SPKNZ7tp2MfCA3jafABdp9k6lBqA/2mJ2+kF7v8bkoD4AFTekyTANcAoS5/esvktv1ixb2peZgD+2hI31Aze/zkgASUEoLJWkABXf9uWwS+LLq4jzfcKmTja2qPEAKjerpCuS8T+3/oElBEASQKc/W+0dDpNMvlr5r576woRFgDZTbSUAYja/12dgFICUHnCt1Ome7yB3cyd3pb81v1+Y9eGMfYepQVAcPscfQAi9//XJqCcAPj3ynV3/6Ol13v+mU8x97xAWYiQAHhvnRISgMj6qxNQUgC8CfB0t/zYYlIH78TmrStqXW8jlRQAbf1FAYiuvzYBZQWg8n13Ajy9T6kRrLhCf20h9AHw3TgnLADOrViE+7+4E7BkqPegggLguQb4ejt3IlNzbzdcSgDuq6gJ1sX9M6j5wv1/xjtHmdnsO6iwALjvmeDrfI3qm14+7v3GywiA+6Y5oQEY7fz6s3z/J/c1oFcLBaDS15EAb+fVZQagrqUDsH/I+vjX5ZFy6u+5BpzQ7Dmo0ABU1tj/k3v72r4YEOJjfSFUAaiurITwrkvTYY5Jdfu/Oa8BL7RUACrzasLH+6i8APxvywagqr+poSwAdaXV330N2MpzUOEBsN87y9+1+eKy6v+u5/35yAAYN8guJQCvlVd/5zVgUaqZ5d92beA5Vj6qCR7v4LICcI9nIstlqkYWgOqKSiBvAE4vsf6ua8CgVCvLL28Hh55kpZfxGvC8pKt36y2Zzr7PkAab+41Lt7Hej9GwObaU4Sn+1EwD22ciQfV3XAPSt2S409zkzpAJNzI+E5wg6bkqfj+o9R7wzWPZdObadJtPLINnt8TUMYz5SabBPaXW334N2DXVZld/Ey3T84C3RD0tX+7U+cS7WivMHeel2/Q3t6mZ5xvcwfB+94eZBo+a/zmF1t+agPSWCeuMv+Vt0G45nHFaMQGPiDre63oZJHWbf5qupn5DMj/tP95c//e9gzu8URzwjWyLZ8qtvyUBP8k0GWZqMixsus2WFhJwg6zjnPj6PzXWP43xpuVLM006HG2qf8eoZdmv8Iy7dr9siwEl19+cgBmZFmMfLrZ4WLCITvk7qQ/x/XB2E/MNwFUk79E3Xlvsl/8dgmFL+wWiL6g4FPY9H5RvcUTJ9Tcl4OPcq+Qphbs3nDAlbK6Ue7IJED9z7hhb//bXSKbpOSLfr3/+fuVNhf/YDUslQ7vcnPvf07Vwh7wO+U1oYutfTMD0ws8uZ9+RbXHH7Ng5P/N/6Zt7PSf+5nST+3YIfrfI5ll4fqZX9dTib7tm5TaEOfZr8asyI/NPoHZGscWt2acBj0fXv1J5KfPU8oSniy0Grk4ls+tq0e/cvJ7+4qtaD9XLu3WMDMBk6UR9U1uOPHyGqcUHmZ0MO/+hjFXplXqle2IvU4sev2r/eYvhwe85ZfT+4vVntdMsY5NZq9/d8L3O6rurZylHt2pe+uT654K1n9ZpekVeAg6RzzTyxhEb/h4bPuxou0DN+HwDns59hc9ifB77dPOQnz5mabJq0ZANDc7eo6xa1N+4ZEN5p3Zy/Nhm3eSOHSdHvformla3Zs05yj5xl4A5qrmurlsz48IPHA2atzv09bc+3OulZSUuSrvFlz3zzGWL2zmaND3bfd6v24lHlJgy4P2/nRn73L5VRF0CpvaJPwAAAAAAAAAAAAAAAAAAAAAAAAAAAAAAAAAAAAAAAAAAAAAAAAAAAAAAAAAAAAAAAAAAAAAAAAAAAAAAAAAAAAAAAAAAAAAAAAAAAAAAAAAAAAAAAAAAAAAAAAAAAAAAAAAAAAAAAAAAAAAAAAAAAAAAAAAAAAAAAAAAAAAAAAAAAAAAAAAAAAAAAAAAAAAAAAAAAAAAAAAAALYc/w9B2vy5e/yGwQAAAABJRU5ErkJggg==;fontColor=#000000;strokeColor=#000000;" parent="1" vertex="1">
                    <mxGeometry x="1200" y="582.5" width="157.5" height="157.5" as="geometry"/>
                </mxCell>
                <mxCell id="80" value="" style="shape=image;verticalLabelPosition=bottom;verticalAlign=top;imageAspect=0;aspect=fixed;image=data:image/png,iVBORw0KGgoAAAANSUhEUgAAAgAAAAIACAYAAAD0eNT6AAA/CklEQVR42u3deXhdVbn48e86J+lMGUWgE6g4chG8OF5UUHCeuaCClCStrYBWOiQp+FPPdYAmKSmzUtskLeBA9Yp6HUFFxOkqgggqTlDaMitTB9oke/3+KF6Gnoz7nLNPku/nefI8cPbaa79rJz3nPWvv/S6QJEmSJEmSJEmSJEmSJEmSJEmSJEmSJEmSJEmSJEmSJEmSJEmSJEmSJEmSJEmSJEmSJEmSJEmSJEmSJEmSJEmSJEmSJEmSJEmSJEmSJEmSJEmSJEmSJEmSJEmSJEmSJEmSJEmSJEmSJEmSJEmSJEmSJEmSJEmSJEmSJEmSJEmSJEmSJEmSJEmSJEmSJEmSJEmSJEmSJEmSJEmSJEmSJEmSJEmSJEmSJEmSJEmSJEmSJEmSJEmSJEmSJEmSJEmSJEmSJEmSJEmSJEmSJEmSJEmSJEmSJEmSJEmSJEmSJEmSJEmSJEmSJEmSJEmSJEmSJEmSJEmSJEmSJEmSJEmSJEmSJEmSJEmSJEmSJEmSJEmSJEmSJEmSJEmSJEmSJEmSJEmSJEmSJEmSJEmSJEmSJEmSJEmSJEmSJEmSJEmSJEmSJEmSJEmSJEmSJEmSJEmSJEmSJEmSJEmSJEmSJEmSJEmSJEmSJEmSJEmSJEmSJEmSJEmSJEmSJEmSJEmqaiHrACSpqtQvfyHEYyC+HNgX2IMYtxLCPwjxdiI3k8vdwOolt0KIWYcrDZcJgCQBNLS9EuKnibx+kHvcQwhXE/kaU8Z/jwsXbM96CNJQmABIUn1rE/BZoGaYPTwMfJGYu4CuJX/KejjSYJgASBrbGloWE8PykvUX+BkJ57PlwP9m3Qm9WQ9P6osJgKSxq77tdRCvBnJl6P1PRD5BV+NXvVdA1cgEQNIYFQP1bb8BXlLmA91C5FN0Na3LesTSk5kASBqbGlqPI/LVflrcC2wA9n/8J+0swU+IyUfoWvr7rIcuQXmmvSSp+kVm97FlI/A+Zm2dTmfTS+lsmk7cOpkQjiXEdmD9MI/4WkLut9S1rOCkC6ZmPXzJGQBJY0+hkGP9pEeBSbtsi7yGrqaf9rvv7ROPJhc+Aryd4X2R2kQudyKrl1yX9anQ2GUCIGnsmdt2EL3x77u8HriBjqYjBt3P7HOfS753ETAbmDjEKHogLqSz+aKsT4fGJi8BSBp7kt7iU/CR24bUz9rFf6az6UPQM4sYCsB9Q9i7BsKF1LecT6Ew3PoD0rCZAEgae3JhRx9b9h1Wf51n3U9X438Rt86C+BF23kA4SGEB6yddTd05B2Z9WjS2eAlA0thzcttkauKj7PoeuIW4dR+6Co+l6v+0whS2TVoELAF2G+Re2yB8GbiHmDxMLjwI4SFi78OQf4gYHmZc/mEejA+xbtG2rE+hRj4TAEljU33r74FDdnk9hpPoavxiSY4xb8X+9PS0EOPJJY09xrvJhetJ+Bkxdz0Hbb6RQiGpxGnT6GECIGlsqm9dDizedUP4HbO2vKSkH6h1rW8h8HlgRplGcz/EH0PuR8T4I7qa/lKm42gUMQGQNDbNOfdwkt7fFt0WqKejqaukx5u3fB96ki8PYbXB4YvcTmAdIa6jo/k3ZT+eRiQTAEljV13r9wm8ociWjdRufR4rC1tLerxCoYY7Jn6eEOZUcJR/I8TLScLn6Wq6p4LHVZXLZx2AJGXmxcfeTqChyJapJLV7cdPV3y7p8a69NuGma77JYcf+k8Drqcx78F4QjiKwgMOPncGhb76R333/0QocV1XOGQBJY1tdy/8QwluLbwzvorPxG2U57uy2Q8nzSYjvorKPZG8FzmHKhDYuXLC9gsdVlTEBkDS2zV42k3zuFoo/rvcPYu8RdJ15R/kDiYH69umQHAwcTGBfYtydEKeShL0I7AXsyc6FiZ5ZggPeBuE0Oht/VP6xqRqZAEhSXetHCFzQx9bfsrnmyKp69n7est3pqXkVJG8mcgJpEoLIFdR0L2bVx4ZQvEijgQmAJBED9W1fB97ZR4PL6Wwq7bP8pVIo5LhzwquIuZOB9wHDWWnwYSKfZMuBF7HuhN6sh6TKMAGQJIDZZ+9NvuZG+n5W/zQ6mz6XdZj9Or59Irv1vJeEhQQOHUYPvwY+RGfTb4exr0YYEwBJ+pe6llcQwk+AcUW27iCEo+ho/EXWYQ5KQ9sxxGQRhDcxtPf6Hogt1O7xX6yc3531MFQ+JgCS9GT1bfMhfr6PrXcSa19M18KHsg5z0E5Z9iJC7r8IvIchvefHG8nlZrO68Zash6DyMAGQpKerb/0CMLfotsjX6Gr6z6xDHLK65S8lJJ8A3jaEvboJ8WwePejT3hsw+pgASNLT1RUmECZdB7y0eINYR2fzmqzDHJb6ttdBshzC4YPfKVxP6DmFjjP/nnX4Kh0TAEkqZs7yWcTkRiJ7Ftn6KAmHs6bpb1mHOSzHX5lnyu2nQvg0sMfgdgqbCXExHU0rsw5fpWECIEl9qWt5DyF8rY+tv2TzgUeO6Knxk9v2JR9bCJzCYD8PQvwyE7Z9kEsKm7MOX+m4FoAk9eWma/7IS96wL8UvBUyn9uGHuenqkfFUQDE3X72Fm67+Boe94ScEjmJQswHhEHpq38Vhb/wRN/3ggayHoOGrZP1pSRp5Jo9fBPHGottC/DQN5zwr6xBT62q8ltqtL4J4ARAHsccLCfHXNLSdkHXoGj4vAUjSQOqWP5+Q3ABMKrL163Q2vSf1MQqFGu6c8CKScCg5nk0MU4DdSFjLmqafVWysDcvfTExWAQcMonUE2pm1dSmFQk/FYlRJmABI0mA0tJ1BjCuKbIkQXkln469S9X9y22Rq4/eJ/MfTtvQQ4ll0NC2HMJhv5+mdeM6ejM9fBJw4yD1+QuR9dDXdU5H4VBImAJI0GIVCjvWTfwLxyCJbf0Rn0+tTH6Nu2b8Rcr8Gxu+yLbCOmVtPrOg37bq2EwlxJTB5EK3vJEnewpqlt1YsPqXiPQCSNBiFQkKOU4Fid/2/jrrWw1Ifo2vp7yHOL7otcjzrJ328omPuavwiufAK4C+DaD2TfO6n1LW+uqIxathMACRpsFY33gJhbfGN8cMlOUZn8xpCaOlj60Jmn713xcdcm7wU+OaAbSN7EvgBDa3HVTRGDYsJgCQNSe6TwK6L5IRwInUr9ijJIWZuOYtIsfoDu5GvLVR8yCuXPkxn47sg/D+Kz4A82QQiV1LX+pGKx6khMQGQpKHoXLwB+G6RLROh5/iSHKNQSBi3dTaEv+66Mf57NgMPkc7GzxJ4C4EHB2icI3AB9a0tEL3XrEqZAEjSUMXwlaKvB2aX7BgrC1shFrsU8I9Mx97R9AN6k1cDGwbRuon6ti6Ov9Kic1XIBECShqqXa4Bk1w3xP5i9bGbJjrN561pg49OO8bush8+apbeSj68CBnPH/2wm37GKQsHPmyrjL0SShuqyxvsIFKsOGKjJpy8K9C/rCjsI4dynvJaE7w6zt9Ja1byR7b2vBn46YNtAHesnfc7LAdXFBECShiPy3T5eL+0d8DVbVgL3P/5/11S0KuBAvnjmg0yZcCzEKwfReh4NrZeaBFQPEwBJGpakj2/i8VXUte5XssOsLGwFLgBupba2dPcYlMqFC7az+aATgYGXCY7hgzS0Ls86ZO1kAiBJw7H5Wb8CipW+zZGL7yrpsWLtRdTmjmLlwruzHnZR607opbPxQ8CqgccSFlHXek7WIcsEQJKGZ90JvcT45aLbYijtZYCuhQ+xckmVL70bIrO2zgfWDtyUpTS0Ls064rHOBECShi3/xT42HMW85ftkHV3FFQoJmw9sIHLFgG0jZ1PX9r6sQx7LTAAkabi6lvwauK3Ilhp6krdkHV4m1p3Qy5YDTyH0MTvyhECIHdS3vTzrkMcqEwBJSiOGL/Wx5d1Zh5aZdSf0UrPHbOBbA7ScSEy+ztyW6VmHPBaZAEhSGjFeDsRdX+eNnNw2mGV0R6eV87vZXPNe4Bf9tgthf3rDtzitMCXrkMcaEwBJSmNN09+I/LrIlonUxjdlHV6m1i3aRm3uHcDfBmh5GNsmfcWSwZVlAiBJaYXQ101v7806tMytXPIASfJO4OEBWr6Fyet9PLCCTAAkKa38jq8APbu8HnnnmHwa4OnWLL2VwAkUO0dPFuIS6trennW4Y4UJgCSltepj91J8ieBx7EhOyjq8qtDR9ANC+NAArQK5uIY5y2dlHe5YYAIgSSURVvexoSHryKpGR+Nq4Px+20T2pLd3rfcDlJ8JgCSVwqwt3ybGXUv1Bg6loeWIrMOrGrW7N0L4eb9tQngNU+74RNahjnYmAJJUCoVCD7lc8TK4MczPOryqsXJ+N7HnJAIPDtDyYzS0HJ11uKOZCYAklUrS83mK3+g2m9nLZmYdXtXoOvMOCHMoVj/hCXliuJz6s5+RdbijlQmAJJVK15l3AFcW2TKOfO5jWYdXVToavw7xwgFaHUDMd2Yd6mhlAiBJpdQbWij+zbaeuW0HZR1eVandYwnwy37bhPBW6ltOyTrU0cgEQJJKaW3jzQS+X2RLLb3x/2UdXlVZOb+bhA8AW/pvGM5l7mefmXW4o40JgCSVXPgUxWcB6mhYdmTW0VWVnaWUB7o8sje9NRdkHepoYwIgSaXW0fgLCF8vsiUHYTV1hQlZh1hVDtx6IYTr+28UTqChbeyusFgGJgCSVA69uTOB7l1ej+G5hEneEPhkhUJCSOYCj/XbLkku5sRz9sw63NHCBECSymHt4j8Dq/rY2kzd8pdmHWJV6Wi+jcin+20Twv5MyLVkHepoYQIgSWXT80nggSIbagnJt2g451lZR1hVxu3eBtzUb5sY5logqDRMACSpXDrPuh/Cwj62PpOY/5FJwJOsnN8NzAF6+2kViOFzFAo1WYc70pkASFI5dTZeDnynj62ziPkfMW/F/lmHWTU6m35LiB0DtHoe6yfPyTrUkc4EQJLKrTc5FXikj62z6O7+BscXxmUdZtXI9XwceLT/RvETzCtMyjrUkcwEQJLKbe3SOwnhOGB7Hy1eyuRJp2YdZtVY9bF7iSwboNUBdE/6cNahjmQmAJJUCR2N1xDim4GtRbeH8GGIIeswq8aWmhXA+gFafZR5l9ZmHepIZQIgSZXS0fxj6Gtp4Pgc6tosd/sv6xZtA84coNUBdD/8n1mHOlKZAEhSJXUuuQLCX4tuG5frGWJvo1tn45eBXw3QakHWYY5UJgCSVEl1/zUeYrFH2Lbw4MwHsw6vuoRIEgeqmvgKGlqOyDrSkcgEQJIqatJ84MBdXg7cxLoTeofc3Wi3pvmHBG4YoNW8rMMciUwAJKmSQqgv+nqM12YdWtWK4bz+t+feT0PLblmHOdKYAEhSpTS0HADx0KLbkvDdrMOrWpvzXwMe6rtBnAKclHWYI40JgCRVSuRYoNijfpvYeuAvsw6vaq1btI3Il/ttE70MMFQmAJJUMeFVfWz4ktf/B5CPnf03CId7M+DQmABIUsXE4ksAR67IOrKqt7r5f4Hf99sm9lVjQcWYAEhSJZxWmALhkCJbbqGr6aaswxsh1g6w/f3MW7Z71kGOFCYAklQJj016FVCsbO1lWYc2YkQuB7r7aTGZnuC9AINkAiBJlZBwdJFXe+mtcfp/sLqa7gG+1G+bGBa4PsDgmABIUiWE+MZdXov8kLWLNmUd2oiSC21A7KfFdHY89L6swxwJTAAkqdzmrdgfwmFFtvxP1qGNOKsbb2Gg8xZCoysrDswEQJLKrae7+PP/IffDrEMbkRJaBmjxbzS0HZt1mNXOBECSyi4euetL8W46F/8x68hGpDVNP4Nwfb9tEhZnHWa1MwGQpHKL4ZW7vhh+BCEOvTPtFPufBQgcS8OyF2cdZTUzAZCkcqorTABeuOuG8NusQxvROhu/DdzST4sAeWcB+mECIEnllJ/8HIq91+aC0/+phEiMrf02ifF9zF42M+tIq5UJgCSVU2/y3KKvB/6QdWgj3rg9vgys76dFLbn8h7MOs1qZAEhSeR1c5LWtzNi8IevARryV87shtPfbJsR5lgcuzgRAksqrWAKwnkIhyTqwUaF2yyrg/n5a7E63swDFmABIUnkVSwAeyDqoUWNlYSshXNh/o7iQhpbdsg612pgASFI5hbBPkVdNAErpsZ6LgEf7abE3hNOzDrPamABIUnnt+s0zRBOAUvrimQ8CK/ttE1niLMBTmQBIUjkFpuzyWpJ7KOuwRp0Q24Ht/bTYG/hQ1mFWExMASSqnWGwGgJ6swxp1OprvAi7rt00MTZxWmDK4Dkc/EwBJKpfj2ycCNbu8Hku8Ul1d61nMbjs06+FmLtIK9PbTYh+2Tp6XdZjVwgRAksplKhOLvp4LpUsAGpa/mcBnyCfLsh5u5rqa/gLxa/22CbHx8cRszDMBkKRyeYRtZe1/zvJZxGQNECC8kdln7531kDMXaBugxX5M7nEWABMASSqfdYu2UWxKOsYJqfueV5hEklwFPOPxV3Lk80dnPeTMdTT/Bvhpv20CTY8v0jSmmQBIUnltKfJa+m/qOyatBA576ovhPVkPtirEeN4ALQ4gN2lO1mFmzQRAksopxl0TgMA+w+jpCXWtDQROKrLlPcz97DOzHnLmDtx2FfC3fttEmpl3aW3WoWbJBECSyimEzbu8lrDXsPurO+dAAhf0sXU8vePmZj3kzBUKCYQLBmg1g56H3591qFkyAZCk8tq16l9g32H3FvKfBib33SCeOta/2QLQw2oGKrkcaaZQGLOfg2N24JJUIcWmomfwkQvGD7mnnc/6nzhAq2l0P+y9AJc1bgEGWCSIF3LHxHdkHWpWTAAkqZxi+GuRV/M8svU5Q+4rF09lUO/bYUHWw64KuZqLoMglmCcL4SwocWGmEcIEQJLKKfRxM1o+9/wh9VNXmECO9w6ucXwVpyz/96yHnrnVi/4J8dIBWr2Uhta3Zx1qFkwAJKmc+koAYhhaAhAmvJbInoNun+ttynroVSHf3TbgLEDMfWos3gsw5gYsSRVVE/5SfEN82dA6yr1xaO3Dccw+97lZDz9zqz52LyE5t/9G8cWsn3ha1qFWmgmAJJXTyiUPEOKfi2w5cojfOl89xCPnyfU4C7DTucC9/TcJyzil9dlZB1pJJgCSVG4xXFfk1b34++RDBrV/oVADDK7tk4VwMnNbpmc9/Mx1ND9K4NMDtJpM4L+Zs3xW1uFWigmAJJVbjNcVfT0XXzuo/TdMfj7QX+36xwh8r8jr4+hhcdbDrwo1u68kcnO/bQKHkiR/oL71Uua0DPESzchjAiBJ5ZbPF08AAu8e1P7J02v+7+JX5OIiii08FMIHmbc8Xenh0WDl/G7y+Tqge4CWk4B5JOFX1Lf+gfrWJZx0wdSswy8HEwBJKrfVS9YDdxTZ8lpmt08buIP44n43h3Arq5r/CFxZZOtkenrPzPoUVIXVi28EWoawxwuANsY9dicNbcuoa90v6yGUkgmAJFVC4FtFXs1R0/2+Qez8rH43x+SPAOTjpym6/HA4fSxd2+7X5q2fBn4/xL12J8ZmAndQ19rJnHMPz3oYpWACIEmVEHJfLfp6zJ088M5x5gB93wDQzyzAeGIc6Ca4sWFdYQeR44A7h7H3eAJ1JL2/pa7lJ9S1vGsk1w8YsYFL0ogyY/P1FP3QiS+mYdmRA+zdXwLQzaP5m/7v//qcBYgnPb6WgLqa/kJvz0uAlQx8T0BxIbyGEL7O+kl/oL517rDWdsiYCYAkVUKhkACri28Mp/e537zCJOAZ/fT8d9Yt2vZ//9f3LECOfLIs69NQNdae9Q86m+ZTWzsL4lnA34fZ0/OAL7D5sb/S0Fo3kmYERkygkjTi9dasptg3zhiOY845xRcH6pk4A+h7sZoYd11sqK9ZAMKbqWs7KuvTUFVWLrybzuZzmLX1YAivJ4RLgI3D6Gk6kU7WT7qB+rbXZT2swTABkKRKWbtoE5ErimypJcl/qug+CQNc/y+y2uDOWYCvFG+ftHP8lfmsT0XVKRQSOht/REfj6XQ2ziTmXkZkGZHbh9jTYRB/SH3rauYt2z3rYfXHBECSKikXl1H02znvpaHliF3b5wZIACi+1kA+fqb4ccLhTFk/N+vTUN1CpGvJr+lqOpOuxmdDeAVwPgOWE36KBrpzt9Cw/M1Zj6YvJgCSVEkdzbdR/F6AHDFcvmvRmWTGAD0WTwB2zgJ8qfgu8TOceM7gVxYc00Kks/FXdDadwayt08mFtxHil4Ftg9h5OjH5DvVtHdSt2CPrkTydCYAkVVpP+DjwcJEtz2PcYz+g/uwnbvqLA8wA5PpabRDIdy8BHiiyZR/G5wpZn4YRp1DoYXXjt+lofj+1yf4E5gO/HHjHWE/ovoWGtmOyHsKThfRdSJKGrK61gdDXUwHcD+EzhOSrJOHrBPqqS7+dzQdOZt0JvX0dhoa2E4ix2P0APSTJYaxZemvWp2LEm9PyMnr5BCG8hf4/VxNCaKNm6sdZOX94jx+WkAmAJGWlvvUbwDuG30G4ns7GgZcJrm9dDTTsujs/pKOpqr6Vjmh1LccSwkrgwAFa/op8eD+rGod6g2FJeQlAkrKS754H3Df8DuL3B9ds6+nAb3d9nddT1zKISoQalK7mq5m49d+IXAwk/bR8Ob3xRuraBlEGunycAZCkLNUvexXkfkj/y/0W000ud/DjCw0NbG7bQfTGnwNPX9DmAWpzL2DlkgcG1Y8GZ87y15Akq4CDB2i5kikTFnDhgu2VDtEZAEnKUufSnxPj+4GhfgBcNugPf4BVjbcTeTPwyNO27ENPbM/6NIw6q5dcx+aaFwPnUvyxz3+Zx+bHfsrsZTMH2XPJOAMgSdWgoe0YYvwaMJi1529je+8r+eKZDw79OC1HE8N3gafWro/xDXQ1X531aRiVGtpeSYyXAc/up9UDhPB+OhqvqVRYzgBIUjXoaLwG8ocQ+N4ALa8mctSwPvwBOpp/DPEDPP1baQiff3zdAZVaR+MvCPFwIl39tNqHGL9HQ+tSiBX5cu4MgCRVmzktLyMJdcCRwGQIj0L8NYQv0dn4o5Ico771VOCSp7wWYjsdzYuzHv6oVt/ynxAuBfbqu1H4b3qYzWWNW8oZigmAJI1VDS0fIoaLeWI2OIFwbMmSDBVX17ofIXZA6LtMcORm8rl3DOk+jyHyEoAkjVUdzZ8nhpN5YoXCHMQuywSXWVfTPcza9jagkb5KCgcOJUl+SUPbK8sVhjMAkjTWzWl7K0lcB0wEIPI1upr+M+uwxoSGc55FzF8K9FWQaTvE+XQ2ryn1oU0AJElQ13YUIX4T2A2AED9AR/MV6TrV4MRAXVs9OZYTKT77EsIn6Gj8dCmPagIgSdqpYdmLibmr2FnK9iFyucPKeQ1aT1PXuh85LiByfNHtJU4CTAAkSU+Yt3wfupN1wFHAb6nd+mpWFrZmHdaY0tA2hxgvolh1yBjm0dX4hVIcxpsAJUlPWLnkAWp3f8Pj9exfQvekjko9l67HdTSuJvIGii0ZHeKF1Le9vBSH8ZcqSSquvnUucAmE/6Kz8bNZhzPm1LW+hcC3i2zZQG3uJWnXbzABkCT1ra71TQS+Qoyn0NV8VdbhjConnrMn49gd8nsQc/mibXLJFcDzdnk98D1mbn0rhULCMJkASJL6V7f8pYTk6yTxFNY0/zDrcEaMect2p7fmxSTxBZC8EMJBEKdDmAbsW4IjtNLZ1DzcnU0AJEkDm3Pu4SS93yThfaxp+lnW4VSl0wpT2DrxDYRwDDvLOL+Ict9rF5lDV1PHcHY1AZAkDU5DyxHEsI4k95+sWXJD1uFUhbrCBJj8LkIyG8LrePoqi2UXvkpn4/HD2rOygUqSRrS5LS8gCZeRhCV0NV6bdTiZOL59IpN7j4HkneTCe/os3lMukdvJhe8S+A75LT8e7mOaJgCSpKGZ+9ln0lNzJYT/pqvp/KzDqZjZ7dOo6T2HGN8DTK7gke8FbgCuIcTv0NF8Wyk6NQGQJA3d8Vfm2e2OD5HER+hquhxCzDqk8o63MI4pk/4APLsMvSfAPRDugLgB2EDkTuBv5OJNdDTfVY4h1ZTvbEmSRq11J/QCF1MojI3PkSm7PRN6Z5Sotz8APwV+Q+Q3jNv9VlbO707b6VA5AyBJ0mDUt7YATUPeL8a7IfyIEK8mcHW5vtEP1djI3CRJSisfL6Q3LAbyA7S8FcI3If6efPglq5puzzr0YpwBkCRpsOpbrwLe2W+bGO9m0rbncklhc9bh9sfFgCRJGqxIAejpt00I+/PYpDOzDnUgA01jSJKkf7np6ns4/JjxEF4zQMsjOfyYO7jpmt9lHXJfnAGQJGkoNm/7FMQbB2gVIHyBhpaTsg63nwAlSdKQnNL6bHL8BthjgJYRwjI2z/r4449OVg0TAEmShqOu7e2E+HUGczk98DN6OYU1TX/LOux/8R4ASZKG46ar/8zhx94PvHUQrWcSQgOHH/sY7/qP33DttUnW4Zd+BmDe8n3o7nkuIfccIntD3JuQqwG2QLyXJN5OTc/NrPrYvVkPvirVte5HjkOBAyE8E5hMkuyA8A9y8QECf6F33J/pWvhQ1qFKkoCGto8T46cG3T5yM7nkdDqWXp9l2OkTgIaWA0hyR5FLjiKGo4CDB7nnH4h8E+igq+kvWZ6EzM0+97nUJA3E+E7g+YPYI7Lz/F1LiNdC70/oPOv+rIchSWNWfeupwIUMfmY9QlhLD01c1nhfFiEPLwE4uW1famIdkZMIHJoyhghcScLHqunaSEXMOec5JDXnQDyOdMlYBH4D4XJizVpnB8aeuy/gGb3dvJzA8wgcTGQGsNf//QTyRGqA3bKONY1cwgsOWMKfKnGsWCC3cSrPCoHDiLwYODBEZsbAVGBq1ucC6CHwKJH7YuRu4M8xz029O/jdQU3cU8lANrbzKDBl2B1E/t/0xXy2kjGXRV3rmwhcBuwzhL3+SQhNdCzpqPSCSkP70Jl3aS09D32MmFsMcfi/7OK2EFhER9PKSp6AzNS1nEYIbcCkkvYbeJDI2cza2k6hkPk1JpXPxhUcFhNOCvAmAi9iDNzUW84EIF5J/q5NvCJJeEcIHAkcSpoPtWzdG+BGAj9Mcnxjxkcp6yyrCcCTzG2ZTm/uSxCPHNqO4XqS3g+xZumtlQp18G8Y9Wc/A2q+Bby8zBFdSEfjR0ft0pKFQo47Jl1A4PQyH+lqQjyOjuZHsx6ySuf2FewxDuYRmR3hRVnHU2mlTgBigdzG3XljiBwPvA14RtZjLJM/hsA3e3u4fGYjt5S6cxOApykUalg/6bNAI0NLzHcAS+lsPK8Sn4GDC+z49olM7rmWwMvKHRAAMZ5HV/PCihyr0upaL6rAh/+/XM2srW+hUOhJ35WytPEi9qabhUQ+DOyedTxZKVUCcGuBcXtMZW4MLCKWZX33anZtCHx22kKuKVWHJgB9qF/2RsitAqYP8Xx8je4JDVyx4JFyhje4SoBTes6q2Ic/QAhn0NBaV7HjVUpDy4cq+OEPcCzrJ5+W9bCVzsZ2TmEHfyXyMcbwh3+pbGrnnbtP5bYIF4/BD3+Ao2Lk6o3t/PCu5YO66VjD1bn0+9QmhwBDu7QdOI5xj/2GhmUvLmd4AycAdSv2ABaXM4iiYriQuS1Dy5qq2ZxznkMM7ZU/cPw4xxfGZT18Dd2Gdvba2M63gC4GrjamAdx3MVM2tvOlCFcBB2YdTxV4XZLjpo3nckbWgYxqK5c+TGfTfGJ8NzCUx98PJuZ+Rn3r28oV2sAJQK7nOGBi+c/S08UpJLRV/rhlkuTPJ5PzyD5MmfzmrIevobn3PJ4Z4MfsvC6tlDa0M23HY/wCeF/WsVSZ8QRWbGznst9cSm3WwYxqXc1XMXHrc4hxKTDYe7MmA1dR11KWmdyBE4AkHl25M/Q0MZzAnLZDMjt+qdS1vAJ4S2bHj8lRWZ8CDd76c9izO+FaSP2Irdj54Q/8lMDIfy8pnw/sv4WvxCutDltWlxQ209XcQojPZ+dlgcHcn5UnhIupbzmfQqGkC/gN3Fn65/zTxZfEkX8zYAjZrgsdQlmvI6m08hO4lMEVhNIANrQzMQS+EeCgrGOpdhHevWkjLVnHMSZ0NN9FZ9N88uG5EC8Atg28U1jA+kmXQizZ476DySb2z+4sAXAScz/7zIxjGL661oPJfhp3v6xPgwZnwwpOYucjaSqBEPgMkX/POo4RZNGmFRyTdRBjxqrG2+ls/iiRZxFCCzDQXf9zqW9bUarDDyYByLpy2Hh6audkHMPwBRYy2Kctysc7x0eAGAlh553+ZT0MgQdH6k9vLYNeTvXu5byQyEcz/rWONCFGLo4FarIOZEzparqHjsalhDidyBnAXf20/ij1rSW5oXwwv+TxKY9xLXBUqh4CpzHv0jZWzu8uxaArZvbZewOnlKCna0l3DidkfSo0sI0reGOAF5Sou4eBHwI3hMjfevP8vaaH2w9YwgNZj7NSksBZlGfF0wj8L4GfEbk5BP6aBB5NIpsrMa5cjny+m6m9OWYCzwtwJPA6SneT8XM37c77gcsqMR49yc7CbedzfPtKJnfXE8JZwLQiLRdS3/YPOhtT1U6oRJb3TXZOQae5pjmNHY8cB3y5AvGWTr7mVNKX+v0NcB1pkyhVvQAnlKCb7REKtb1cuF8jW7IeU1bWn8OeMXBcibvdQqQ9F1l9wBLWZz1G4IZ//cddlzIp2cwpBJoowSOOIWEuJgDZWbdoG3AJ8wpd7Jj4kccTgaetPxE/TUPbX+hovHK4hyn/1HQIEbggfT9xZE3lfeSC8cRYikc3lhPi6CyLrKf7j7QdxMhJMxaxbCx/+APkxvFWSjvzdU13D8+ZvphPVMmH/1McMJ+t0xfzuZpehl50pogYePU9beyb9bjGvJWFrXQ1t1Bb+3ygg52zT/8SiLGDutbDhtt9Za5N125dA6mnHl9BfVt51yEopc3bTiSEtDdQrmfW1q9lPRSV38aL2JvBL6Xdl2tmLMa/FyAHry1VXyFyxbRHeHOlV9gbjv0a2TJ9EfMjqWuohJ4aXpP1ePS4lQvvprNpDpG3wVP+DicT+MZwb5SvTAKwsrAV+HzqfmL8SEXiLYlcKWYszreO/9gQe5hGytX8wki7RFZGMZRmoaQIfwhTmBcKg3peu2pMX0gz8PNUY0+sm1B1upq+Az2HErjqSa/OpLf2Wupah/y0V+XuTu8JFwKPpeojcAKz26el6qMSGlrfADHts/ePUJt0ZD0UVUYsQanfkHBT1uOoFqV67j8X+dQB89ma9XiGPP5AzMHSlH0cmPU4VETnWffT0fRuQpgL/3ep7/kErubktiFdtqlcAnBZ433EeEXKXmrJdc+vWMzDFcOiEvRxKSuXPpz1UFQZ+YQ9U3dSy/1Zj6NaxNI8vrzloUf5etZjGa79F3I9sHG4+4ddbjpTVeloXE3MHUHk5sdfOYSa+BPmrRj0pefKPp+eow1IUvURwoeoK1TvY21z2g6B+IaUvXST9F6U9VBUOUlM/0RO7MGbRZ+Q+j0iwB0vKrAj64EMO/5ADJFbU3SRxdolGoquJX9i3NZXQuh8/JXn0939A05umzyY3SubAHQ03wbx+yl7eQa5SdW7oMfO0sXpSjVGrmTt0juzHoo0lkW4L+sYUgv8I+sQVGYrC1vpbGwgcAo7SwofQn5wT81VvkJdwrmp+6jW6l47r7+cmL6j3PlZD0XSKJhRiaNgDBqcjqa15HJvAh4mcDrzLh1wdcfKJwBrmn8I8caUvRzGnOXV94hKPvkw6acef0zXkl9nPRRJ0gizesl15PJHA5Edjwy4pkg29Z4jKwisTdVHb7KAnRXyqsPx7RMJPR8qQU8lqfGsFOYsn0UP+wy/g57HWLM0zbVXSRqe1YtvZN6Kl9LdPeDnUTYJwLg9vkz3w58FZgy7j8C7mNt2EKsab89kDE83pXc28IyUvdzGrK3fyXoo/6e+dS7whVR9bN46nnWFkXUjVZJ8ghwNw+8gdxsu5yspKysX3g18cqBm2axSt3J+NzFenLKXPD2cmkn8u4gBSlCqOIZzKRTSPSVR0mHF7VmHoMELNSlvPpU0pmS3TG33xM8x8NrH/Qvxg4N93KGs6tveSvpV3O5jS/7yrIfyFCGMrG/uY1zsYe+sY5A0cmSXAFyx4BGgM2Uve1CbnJzZGJ6QvvAPXPz4ClDVwxmAkSXwvKxDkDRyZJcAAMTe8yB1je2FO6fgMzK77VDSL9X7GPnuSzMbQ5+cAaiUHHSn7iTy+qzHIWnkyDYB6DrzDkLKUpsxPJe61mMyG0MNS0hb+AfWsupj92Y2hr44AzA8YRgJaS59wZYYeN/jqwpK0oCyTQAAklzaZSuBjAoDzW6fRozvTdlLJB/PyyT+geRyFhEZjhiGfN4m5Pk9actkw5SwgwuyHr6kkSH7BKBrya8J/CxVHyG8hYaWyl//rOn9CDAuZS//w6rmP1Y8dlWVvRfwCPDTtP1EOHHjCi65tZD671LSKJd9AgBASFseOEA4vaIhn9w2mRjnlqCn9KWRNSoE+HxJOoqcOnUqN248l9n3tJH9UzKSqlI2hYCebuaWb7B+8l8hPmfYfUTqmLfs4xVbQreGOZDyemvgBjqaflKReIcjSQI5Hy2vlAMe4cpNu7OEyL+n7SvACwms6cmzcmM7vwT+GGF9CPwT2EbCY6WOP+R4sDewI8BDyTY2zDqTB7M4j5IGpzoSgEIhoaH1PCJplsDdjR25OqD8C+kcf2Ue7liQup8kLC97rBoxQoFkfTun5OHXlG4p1vHAa4HXBnhieZsy5HUxwr/uGsmPh43tPAzcESN/IPCrEPnVtlpuPHgB3lwqVYEquQQA1GzthNR3Qn9054dzme12x7uAZ6fsZSPjpn6t7LGmkffrf6XNWsStMfAB0t8QWA12B14cAu8PcB6BX0zs4cEN5/L1jSs4+fYV7JF1gNJYVj0JwMrCVojproEGDmLy+reUPdYY0hf+iWEFK+enf/Zbo86Mhfx3iJwIjMY6DBND4F1E1tZG7t3UzhUbzuPlWQcljUXVkwAA9OQugJTXJnMlqMnfn7rlL4X4qpS9PMq43tVljVMj2rTFfCWX8HpgU9axlNG4CCeGhF9ubOfnG9p5bdYBSWNJdSUAlzXeB+FLqfqIvP7x6nzlEXqXlKCXlRW7WTGNJPESQIYOWML1jOPFBD4H9GYdT5m9MsC1G9v55l3LmZV1MNJYUF0JwM6I2nniVqXhycfyPBI4Z/ksCO9J2UsPvYnFWka3khVQmv5h/jF9IafFHC8Brs16YBXw9iTH7zacyweyDkQa7aovAVjdeAuEH6Ts5WRmn136kqhJ8lHSPzlxJWuX3lny2MohF5wBqBIzzuDm6Ys4OpdwBLAS2Jx1TGW0ewhctqmd82N0iWOpXKovAQCISdriOBPJ5UtRpOcJJ10wFWhI3U8ulv8xRY1aByzhhumLmL99B9OJnAZ8h1GaDERYsGkFl2QdhzRaVWcC0NV0DZGbU/URwukUCqWrczB+2wfZ+VhTGj9hdfP/liwmVauyf2t99lIenr6Yz01fxFvvmcxeSY7XEvk0cA2wIesTUEIf2rCCj2QdhDQaVUchoF2ESGhph9CVopMZ3DHp3cC61OEUCjWsD+kL/8DIKvyTkHMCdlgquojSEfPpBq57/AeA+y5mSs82nhfzPDdJmBly7EZkArBbjOwWciX5tz+eyO4EphOZQfp1MYoKkeUb2vnujEX8tSInVBojqjQBAGr3+CLdD38GmD7sPnJ8lFIkAOsnHQ/MTNVHiH9m5rbvlPYklV11zhBpQPuezmbghsd/yi4WyG2cyv4hcjiBY4C3AAeXqPtxAT4LpF15U9KTVO8b/Mr53RDTXf+L/MfO5/ZTK0FtgXAuhcLIqu4WqvjvQ1UlFEhmLGLT9MX8z/RFnDHtEZ4f4P0Rbi/RId5l5UCptKr7DX578nkI6W5wCsmHU+0/Z/lrIHWlsvt5tOay0p6cCgixuv8+VLVCgWTaIr5c28srgBtL0OW4mp2FkSSVSHW/wX/xzAcJsTNlL++jrnW/Ye+dJOnL/oZ4CesWbSvx2Sm/6FoASme/Ru6LcAzw97R9hcCBWY9HGk2qOwEAyIUVpKuCNg7C/GHtWdd6MPD2lCPYThJKs857pXkJQCUwYxH/jJFPlqCrvbIeizSaVP8b/KrG24lclaqPEE+jrjBhyPvlwhmkP0dr6Gq6p1ynp7y8BKDSCLVjooqhNKKMkDf4XEvKDvaFiccPaY8Tz9mTGE9JedxIPp5XzjNTVjF6CUAl0buFLVnHIOmpRkYC0LXk18AvUvURwhlDaj8ufyowOWXk32ZV8x/LeWrKKuRGxt+HJGnIRs4bfCBteeCXUL9scMv4zru0lsCpqWOOIW3M2UpG0N+HJGlIqrcQ0NM9euBVTFn/V4jPGX4n4aPAzwds1v3QiRCGX4Bop9/S1XhtJU9RGZgADE9FKwGqutzZxiE1gfGl6CsX+dN+jV4+UXmMnARg3Qm91LecD+HC4XcS3kP9uTPoXDxArfQhXi4oZqR/+wfIJQFvA5CGJNSwT7LzxuW0a4eQBG64p4237NfIfVmPS6PPyPqGV7utA/hHih5qiL2n9duioe0Y4LCUkW5k3NT0JYiz5iUAachmLOTapJcjgU2pO4v8e0+eX2w4v2RllaX/M7Le4FcWtkJYmXLE85lXmNTn9liSwj/n7SxlPMJZB0AalpmN3JIPHAncVoLunhV6+eldK3hJ1uPS6DLy3uDzO84HHhv2/pE96Z50YtFtDS3Pg/DGlBE+Sk1cld0JKqmR9/chlc6kNDvvv5A78jW8msivSxDLM3sjP964gtcNaa8wQtbzHClxjjIj7w1+1cfuhfCVlL2cQbGL2zEsSX1OQvwCK5c+nNn5KaUY/EepkaqnBH28KBbSvR/sv4D7x03gdSHy/bTBBJhK5Dsb2zlhCLtNHO7x4tAqsG5PObg9U54eDcPISwAAemkn3Z3WL6J++dFPeeXktn2BD6SMrIeQvyDjs1M6OROAYfK8Pc24yRW/4fifJehjt7t3T30/EPuezua7p/B24PISxDQe+NKGFXxkoIYxEiIcPuwjBYayENujaQYVE/YvwbnREI3MBGBt483ANek6iU9d4jfPqcDQywU/1ddYvWR9lqempEpyE+DUfNbDyICPAT5NbzeHpu0jBHYMum1pEgCSyHGl6OeI+XRPW8hsSF3PBCAXIhdsXMHZMfadbG48n5fB8BdQCsngP9QjbBhs2+ID4ui0sy0auhF8wpO0/5DeRsM5zwKgrjCBEE9L2R/E3Mh/9O/JQnwkdR9Tel6Q9TCUrRgJBBaXoKsHBn1MuLckscOH7z2PZ5airxCI0xexBFhCKZLEyJmbVrA6ForPruQSCqm6zw3+HObgT+mGwn6bdufNqc+JhmTkJgCdzT8Afp9q7DH/YQDCpA8A+6aKJ8brHi9ZPHqEcGf6TlKvp6ARbmM7TVCCN/fI4P8eA78qRewBpu5IWPubS6kt1fmYvohzY2Q2UIonheo3TeXrd1361BsWN63g9AhvSjn2WwfbNkauTz2SyMW3r2CPEpwTDdLITQAIEeKKlJ00cNIFU4GF6cPJtWd9Rkru0S03QNoqZOE06ltfm/VQVHmxQM3GFZwdAstK0F3Ss33wHzJJ4CelGkeAN+y3la+W8sNpxmIuT3K8HYZ0nb0vb0u2cM3Gi9g7RsKGdj4aIykKpu3U2zP4L1g9Oa4m3bLtALNqIj+7s5Vnl+CcaBBGcAIATJn4RWK8O0UPuzPuscuBF6aKI8Q/M2vLt7I+HSW3rrADwldT9lIDfJe6lpOxrOCYEK8kv+Fcjts0lV8RObMkfcLPZp3Jg4NtP6GWn5E6eX1KAO+ojdy4cQUn9zXlPlQzz+D7SY7XAfeXoLtXsoOfblrB1QHOI/2NqHfOWDL4GYADF3I38L20gwjwwlwNt2xs5+K7VuDlwzIbOaWAi7lwwXbqWi8CPpuil7eXIJIVFApJ1qejLHppJ88HgDQ3800khLXUtS0htF5I6P0RHWf+PeuhVZPbV7BHDvbKOo6hqu1lXBLYg8DMEDgwRl62aSNHhcDeJT1Q5PyhNN/3dDZvamd1hAUljOJAIms3TeXsDe1cFSLfz+e4Zb8zWB/C8K7pzzyDX284n/+gl+8HOChlfC94/KcUvjbkMQXaiby1BMeeAJyWRE7b2M4GAj8m4c8xxx35XtYD2wJs25FPUQ+mwmpz9Bzw0SFcwqqQkZ0AAORrPk/Scxbpl+4drgeo2bY269NQNmsbb6ah9RLiwI8dDShwKPAFYh7qWzdBWA/xAXbe3FWK57ZL5T8qfcDahNMJfCbrgQ9V8qQ5xFi+Zx/+d/oMrhrqTiGhPeY4jdK/z00P8GECH+6NsGkF2za2s5nhPgq3c+J8SoljTKM76eHiIZ+UhfxoYzvfhpIkAf8yg8hsws6Lvk/+e8uPoGdtkl42ADOzjuPpRn4CsHrRP6lr7SJwekYRXLKzRPEolmxtIjfpVUT+vYS9ToM4Leuhqept74WGcMLQry8fsIT1m9pZHmFpmWOc+PjPMzI5Q6X3hZlN/G04O4bIqTFwEyNwNmssGtn3APxLZAXZfIPcRr77kqyHX3ZdhcfoqXknhL9mHYrGlF4iJ89aNPhr0U9392Q+Afwy64GMIH8c3z38hGnaYjZEOInSPOGgMhsdCcCapr8BX6z4cWO8dGdp4jFg7aJN5JOjgZuyDkVjQk8IzJu+mFSrah4xn+5cwvuAO7Ie0AhwX8jx7mc0p6vqN2MR32NnVVWTgCo3OhIAgMhnqOwswDbGjWvNetgVtap5Iz3hSGD03vOgavBPIm+atpCOUnR2wBLWRzhyKM+1j0F/SXp41bQzSrJ6IdMXcSWRN1Kiiowqj9GTAHQ1/QVCW8WOF+InWbkwzSOII9NljVvobDqFEN8JjJ6yx6oW3w6Rw6Yv5oel7HTGIjYl8BoC38x6gFUmxkhH73ZePtzr/n2ZvpgfRzgU+E7Wg1RxoycBAJgy/r9IVx1wsH7FoweNvsI/Q9HR/E2mTHgeIS5JWYtBAvgr8N7pi3jbtMXp6sr3ZcYi/jl9Ie8E3kuJSgWPZBF+GuHoGYuZM5QaC0MxYxGbpi/irbnAu4E/Zj1mPdXoSgAuXLCd2PsOYFPZjhG5nRDfw7oT0la9GvkuXLCdjuZz2W3iQQTqIVyPC+FoaG4LMHfaI7xg+iKurMQBpy/iyu7A84mcFeCerE9ABmKA989YxGtmLCpdxcT+HLCQq6ZN599i5D+Ba7M+AdppdCUAAF1n3kE+HguUo9DMX4A30tF8V9bDrCoXLthOR1MXnY2vJvY+C1gEXE3aNcI1Wm0DLktyvHbaQl4wbRGrQ6GyT/EctJCHpi/mnK01HBgDHwR+BozOYl67ChFaKl1pL5xA74zFfG36Io7uDTw7wpnA/5K+hLCGaeTXAShmVfMfmbfsJezIXUzgRNKXxYxEvkj3hNO4YkH6FfJGs64z7wBWACv4yAXj2bz9MODlEF8EPI8Yn0sIz2Q0Jp9PcBbkqSJwC3BNjFwzfgLX7Xv64zXwz8g2sIMXsB1YBay6s4UD8uN4d4y8G3gVO5/tH61mJpHrN67gbdMX8otKH3zWQv4OLAOW3b6CPcZFXhsDLweOIHIYo6emQlUbOAEI3JDqCDFmc61t5dKHgQ8wp20ZSWwE3sbQi1M8BPwPvaGNtY03ZzIOgJi7mxCH/3uIZJO0XLhgO/Crx3+ecPyVeSbf8QySsC81yTjI7ZFJfH2JsQ04rJKHDDnujqT8t5a1yIMxsjkENgN3EvhTEvjT5By37b0go7/BIZjZzF3AxcDFtxYYt8duHBEDL4/wogCHEJhBZD/Kl7xuAR4k8hA5HiLyEPBQhIfCzveih0LgwSTh4RwsiIHXpDzeXkSu2Xgu752+mP+p1Hl+uoMW8hDwjcd/ALjrUiaFRzmwJ8+skDCTHLOAaexMyvaIkQkhPHUFxKoWq/Oek7GzOMvxV+aZdMcryHEocDCB6STsTmA8O/9BP0bgIWK8mxD+TMj9nhmbf06hUE0lalUJ9a0/BF6Xooc/0Nn0oqyHodKLBWruHM9u+clM7u1lXCn6HJfn0U3jeeiI+YN/bv72AhNqp3IF8J4ShNATAvNL9dilRo6xkwBIg2UCoBEgXkl+0yYuJHJqKbqLkU/NWEwh63GpckbzdVhJGrXCCfROX8hpMZZkrYMQAp/ccC4XxYKfC2OFv2hJGsFmLKaFSD0lqIQaAqffNZWv3l5gQtbjUvmZAEi78rEkjSjTF9MVIsex8xHLVCK8u3Yq3/3bMnbPelwqLxMAaVf5dLtH6x+o4qYt5ptEXgf8owTdHTW+lus3tOOS3aOYCYD0FDEAz0vXRyjFG7A0ZNMX88t8wmugBOWUA4cEuH7TeWn/PahamQBIT9aw/PWQ+lvP/VkPQ2PX/kv4Q9LNKyjNuigHxoSfb1zBK7Mel0rPBED6l9ln702Ml6TuJ4T/zXooGttmNnNX73Zey84Sx2ntReTqDSt4c9bjUmmZAEgAdctfSr7mOuDg1H3FeF3Ww5FmncmDucm8AUpS5W9yiHxzUztzsh6XSsdCQBq7jr8yz5S/H0PMnUzgvZRmbYw/0dn4wp3rrUjZi1eSv2sjn4vwwVJ0Z8Gg0cMEQH07/so8u60/OuswSipJ9ieEQwgcSuQlwL4lPsJpdDZ9LuthSk8WI+HO8zioVP3NnMb6cIKPy450o3M1QJXGM/4wkW2Trs46jJIKj+e85fl+/ifi1s6shyg9XQhEyrNEukYwEwCpNBIS5rKm8FjWgUjSYHgToFQKkUWsaSrFHdeSVBEmAFI6EcL/o6vp/KwDkaSh8BKANHzbIcyls/HyrAORpKEyAZCGJfyOXK6e1YtvzDoSSRoOLwFIQ3MPMZ7OrC1H+OEvaSRzBkAajBD/TMxdTA+ruaxpS9bhSFJaJgBS3+4j8t8EvkxH03VW95M0mpgASE+4B+J1RH5CjD9hTfMfnvjQb8o6NkkqKRMA9a2HhMANWYdRUpHNwD+J8Z8E7iGEv5LEP5Gv/TOrF/3zqY2XZh2tJEmSJEmSJEmSJEmSJEmSJEmSJEmSJEmSJEmSJEmSJEmSJEmSJEmSJEmSJEmSJEmSJEmSJEmSJEmSJEmSJEmSJEmSJEmSJEmSJEmSJEmSJEmSJEmSJEmSJEmSJEmSJEmSJEmSJEmSJEmSJEmSJEmSJEmSJEmSJEmSJEmSJEmSJEmSJEmSJEmSJEmSJEmSJEmSJEmSJEmSJEmSJEmSJEmSJEmSJEmSJEmSJEmSJEmSJEmSJEmSJEmSJEmSJEmSJEmSJEmSJEmSJEmSJEmSJEmSJEmSJEmSJEmSJEmSJEmSJEmSJEmSJEmSJEmSJEmSJEmSJEmSJEmSJEmSJEmSJEmSJEmSJEmSJEmSJEmSJEmSJEmSJEmSJEmSJEmSJEmSJEmSJEmSJEmSJEmSJEmSJEmSJEmSJEmSJEmSJEmSJEmSJEmSJEmSJEmSJEmSJEmSJEmSJEmSJEmSJEmSJEmSJEmSJEmSJEmSJEmSJEmSJEmSJEmSJEmSJEmSJEmSJI1V/x/vRMo6+/TK6wAAAABJRU5ErkJggg==;fontColor=#000000;strokeColor=#000000;" parent="1" vertex="1">
                    <mxGeometry x="1200" y="860" width="160" height="160" as="geometry"/>
                </mxCell>
                <mxCell id="81" value="" style="shape=image;verticalLabelPosition=bottom;labelBackgroundColor=#ffffff;verticalAlign=top;aspect=fixed;imageAspect=0;image=data:image/png,iVBORw0KGgoAAAANSUhEUgAAAgAAAAIACAYAAAD0eNT6AAAABHNCSVQICAgIfAhkiAAAAAlwSFlzAAAN1wAADdcBQiibeAAAABl0RVh0U29mdHdhcmUAd3d3Lmlua3NjYXBlLm9yZ5vuPBoAACAASURBVHic7N15fFTlvT/wz/ecmclG2EMIioJ1w7oyCSIukbC7YAHBpWpra61dbfXXTbSR1u1eb2tv22tr7e2qguBWV2RJjKICSYp1waUq1C1hz57MZM75/v5Ab1GTkOWcec7MfN6vV/8wmXmeDxbn+c6zHYCIiIiIiIiIiIiIiIiIiIiIiIiIiIiIiFKDmA5ARMmlpaWh7Wgb6UZ0JByrwBLNElWB6t7PA9sWZ59/FoXAUoHaAnz4M0sFin+/BrbAUnFUxVbLdcXdI661wxZr5+7Izp2Hr3wzZuwPTERdYgFAlOK2lR41yI0MKoDjFNiKkWpZBaoYCdECAUYCUgDVAgVGQqQAwBBJ8n/7Cm0WxU6I7FBgJ1R3iGAnRHa6ruwQcXaKKzvEkp2RWNaOIevWNQigycxIlGlYABAF2Aezjy+wE/YR6lpHQnCEAAcAGKmqBRCMFJUCCLJM5/SaqjoC7IJgh6rshOgWATaLWJsdwebRqzduZYFANDAsAIgM02g0vHOwHOJYeqSofYSKHimqRwI4AiLDTecLJEWbCl4TYDOgmxW62ZLQ5oJhB70tK1Y4puMRpQIWAERJ8t60khFhV48QC0e6wBECOVKBIwD9jEBCpvOlBUUMoq8DslmBzaLuqw7szUWNzj+ltrbTdDyiIGEBQOSDnbMnDXZimAxLpwCYAuAEACMNx8pYCnSK6psK2SzQzWJZG6wQnhm5cmOT6WxEprAAIPJA/bTiQ6CYIoKTAUxRlaNFYJnORd3bu89A/q6ilQKpRKJ1XWHV5hbTuYiShQUAUR+9vPCoyMjdeVEo9n67F50ikNGmc9HAKDQhihqFVAJupZOLZw94tLbNdC4iv7AAINqPuhknjRI3fhLUOhnAFAGK03HnPX2cAp1QbBRopVryVLzFfu6g9evbTeci8goLAKJP0HJY258unqwW5opiLkQmmM5EAaCIq+h6gVS6cJ9qDjc+zwuOKJWxACACUDfj2DxxsmdAdK4ozoKgwHQmCjrtAPC8QipsV1cUVNa8bjoRUV+wAKCMtX1WtMhNyNlQzBXBNECyTWei1KWKTSK6NCF67wFrat8xnYdof1gAUEapLzvxWIg7VxRzVVCc7CtxKf0poFA8K6JLnXBixZiVL+wwnYmoK/zwo7Sm0Wh421Ap3fstX+YCONh0JsocquoAWCOQZXZEHuC9AxQkLAAoLW2bET1ZXbkMKvNEMMR0HqIPbyl8XNRa2tFmPcoTBWQaCwBKG3UzThplJTovUZEvi+BI03mIuqNAiwAPiesuLWjCal5TTCawAKCUpgsX2jt2vj3LFevLEJwtQNh0JqI+Ud0FkftEdGnByTXPyBK4piNRZmABQCmpbsak8ZbjfkkFXxTIgabzEHlBoe8L5PeuFbq9aPXz203nofTGAoBSxhuzD83Kjw+dZwGXqUgZd/BT2lLEFLhbbb2taHXNy6bjUHriBygFXv306DFw5TIBLoLIcNN5iJJsNYCfj1pb/aQAajoMpQ8WABRILy88KjJqd+5FqnIFBCWm8xAZp/qqCn4Rbw39lScIyAssAChQ6mYcmydu+HJArhbIAabzEAXQTqj+Fo78T2FVdb3pMJS6WABQILwzc/LwSCLxTQG+DZERpvMQBZ4irtClotZthZUb/2E6DqUeFgBk1PZZ0SJNyNUK+aoAg0znIUpNWiFi/bxgzcbHuU+AeosFABmxbWr0MxDr+wC+AEGW6TxE6UCB16H4hZPr/uWAR2vbTOehYGMBQElVPz16jKj1I1VdJCK26TxEaUl1N0R+m0i4tx1QVbvTdBwKJhYAlBTbphZPgeBHKnImz+8TJYcqGkX0P2KtoV/w5AB9Ej+IyVfbppfMUhc/EkGp6SxEmUqh74mLH486rebPvGqYPsICgHxRd3r0RMuS2yBykuksRPQhxUsC/cGoiponTEch81gAkKfem1k8NpzAzSpyIaf6iYJKKyzX/n5B5YZa00nIHH5AkyfqZhybZzmRH0Dw/wDJMZ2HiHqmgAqwzLVkcdHqjVtM56HkYwFAA6KAbJ9WcokqbhLBGNN5iKiPFHEA/xML2TcctGr9btNxKHlYAFC/bS+bdKor7m0CiZrOQkQDo0CDqNzc5uT8cnxVVYfpPOQ/FgDUZ3UzJo0XV/9TgHNNZyEib6niXRFcN+qU6r/yxEB6YwFAvbZz9qTBiU53sahcydv7iNKdvgiR7xeuqX7SdBLyBwsA2i9duNDetuvtywTyE4iMMp2HiJJIsQY2vle4uvoF01HIWywAqEd1UyeVWaK/gOAY01mIyAxVdQDc2hRpuP7wlW/GTOchb7AAoC7tnD1psBN3/wsiXzGdhYiCQRWvieqXCytrnjOdhQaOBQB9yrapk2aq6O9FMNZ0FiIKFlW4IvhlIsddzCcOpjYWAPR/ds6eNNjpdH8GyGWmsxBRsCnwlsK9rGht7VOms1D/sAAgAP/30J47+a2fiHpr722CeofVHvl+wXPPNZvOQ33DAiDD8Vs/EQ2Y4h1YuJxHBlMLC4AMxm/9ROQlBf6YlYhfNazqHw2ms9D+sQDIQB9+6/85IF82nYWI0osq6qB6xejKmodNZ6GesQDIMNumlcxW6J0COdB0FiJKa0sTCffbB1TV7jQdhLrGAiBD7J4eHRJ3rZ+L4EumsxBRhlDsEAvfHLWmernpKPRpLAAyQP204ukA/shv/URkhj6IhHy9sKq63nQS+jfLdADyjwJSP63kOqg8ycGfiMyRebD1le3TSxaZTkL/xhmANPXOzMnDI45zlwBzTGchItrHf49qcL8ntbWdpoNkOhYAaeiDacUlNmQFgINNZyEi+iQFngupvWhkxfr3TWfJZFwCSDPbppd8zVZZBw7+RBRQAkxxkPh73dRJZaazZDLOAKSJ98+K5obarTsAXGQ6CxFRb6iqI4LrRq2tuUUANZ0n07AASAM7phYf4YrcB8HRprMQEfXDI5FE/BLeIJhcLABS3Lay6Lkq8geB5JvOQkTUb4q3RfTcUWtrNpmOkilYAKQojUbD24da/wngO6azEBF5QzsE+MaotTV/MJ0kE7AASEE7yyYfkIBzrwhONp2FiMhrqvhDu5P7jfFVVR2ms6QzFgAppm7qpDJL3KUQGWU6CxGRX1SxCaLnjl5b87bpLOmKxwBTyLbpJT8UcVdx8CeidCeCEwCprSsrPtt0lnTFGYAUoNFoeNtQ6w4BLjWdhYgomRRQKG4pHDHuOlmxwjGdJ52wAAi43dOjQzpd6z4IppvOQkRkjla4VviCotXPbzedJF2wAAiw96dHDwq51mM8309EBCj0fbUwu2h1zcums6QDFgABtb0sOtGF9agIikxnISIKDNXtVkhLC1bVvmY6SqrjJsAAqptWcpbCepqDPxHRJ4iMchLWjaZjpAMWAAGzraz4G6L6EAR5prMQEQWRAIeZzpAOQqYD0F5aDmv7M8W3QuQqrssQEfVAcKfpCOmAY00AvDN5ck4k17lLBPNNZyEiCjKF/mn02hoeifYAZwAM21N63NC4nXgCIpNNZyEiCjIF7itM5H3FdI50wRkAg94vjY60bVktIsebzkJEFGSquL/QyT1fqqoSprOkC9t0gEy1fVa0yIJUisgxprMQEQUZB39/cAnAgPdmFo91E1IhwKGmsxARBRkHf/9wCSDJtk2NfgaWtRbAwaazEBEFmSoeKHRyz+Pg7w/eA5BEO2ZGj1SxngYHfyKiHnHw9x9nAJKkvuzEYwXOaj7Kl4hof/TBUQ16ntTWdppOks44A5AEH0wrLhE4lRz8iYj2h4N/srAA8Nm2GdGTLcUaiAw3nYWIKNg4+CcTlwB8tH16cam68hjv9Sci2h99aFSDLuLgnzwsAHzywbTiEgtYK5B801mIiIKNg78JLAB8UDe15LOWaBVERpjOQkQUbBz8TWEB4LH6acWHQGWdCIpMZyEiCjTF30Y1ugs5+JvBTYAe2jH9hDGiWMPBn4hoPzj4G8dnAXjkvWklIyxIJUQON52FiCjgHubgbx5nADywY8qU/JDqSkCOMp2FiCjgHh7V4J7Lwd88FgADtKW0NNvJ7nxERIpNZyEiCriHdwxv5Tf/gGABMAAajYZz7Nb7RFBqOgsRUcA9smN468KjV2yOmw5Ce7EA6Ccth7V9qPUXETnTdBYiooB7ZMfw1nM5+AcLC4B+2v5MyX8BON90DiKigOPgH1C8B6Af6stKLhPBnaZzEBEFmuqjO0a0LeDgH0wsAPqoblr0dIG1SoCw6SxERIHFwT/wWAD0wbap0c9AZAOv+CUi6p6qPrZzRNt8Dv7Bxj0AvbR7enQIRB7h4E9E1D0O/qmDBUAv6MKFdtyVeyEywXQWIqKg4uCfWkKmA6SCbbu23CYis0znICIKKgUeb4o0LDh6xZsc/FME9wDsR31Z9Ksi1m9N5yAiCioFHm8K75l/+Mo3Y6azUO+xAOhB3dRJZWK5TwqEMyVERF3g4J+6WAB0Y/v0Ew9z1dkgkGGmsxARBZECTzSF98zj4J+a+DjgLtTNODZPXKtCRMaazkJEFEQc/FMfTwF0QZzI7dzxT0TUNQ7+6YFr25+wfVrxlxRyiekcRERBpKormyINHPzTAPcA7KNuRvHRliMbIMg1nYWIKGg+HPw/x8E/PXAJ4EN1M47Nsxws5+BPRPRpqvokB//0wgLgQ1z3JyLqmqo+2e7kcfBPM9wDAK77ExF156PBf3xVVYfpLOStjN8DwHV/IqKuKXRVeyLvHA7+6SmjZwC47k8ZRREHUA9BPYB6KOohqFNFPSD1sFAvoh3iqkBVxLKsTlURVYELkZC99+euCkIq4tgWVAW2iqrkwNUiFRRBpAiKIgiKBDoGwGhAsg3/6amPOPinv4wuALjuT+lEgQZRvADBCwq8C0G9OlKvgvpEyKo/aNX63aayNZxyyrC2SLzIsrRIHB0DsYogWqSKsQKcAMEhprLRp3HwzwwZuwSwrazkixD80XQOov5Q6Pui2ARgk0I2qWNtKqrasNV0rv5qOOWUYR3ZsYniolhFo6Iohsh407ky1Oq2RO5cDv7pLyMLgPdmFo8NJfCyiAw2nYWoJ6pwAX1TIJsAbILKJicrvmnMyhd2mM7mt3dmTh4eSXRGxbKiqogKtBiQcYZjpTsO/hkkIwuA+mnFTwpkpukcRF3TVxR41BI8oZ1ttYVVm1tMJwqK96aVjAi7ElXREgBzAJwkwuPMHuHgn2EyrgCoLyu5TAR3ms5B9G/aoZBKUX3MUefRMZWb/mU6Uar4YPbxBXY8fCZEz4HKDAjyTGdKSYo1sTZ77kHr17ebjkLJk1EFAKf+KSj2ruHLY6r6mJOnaw54tLbNdKZUt6W0NDsv3D5NXZ2rwNkiKDKdKSVw8M9YGVUA1JcVrxSRWaZzUOZRhSuCagUetaCPjVpbs8l0pnSmgNSXRUsskblQmQvBMaYzBRIH/4yWMQVAXdmkL1uivzedgzKL7t2p/zu1Qw8UrX5+u+k8mapuxqTx4rhzAZknglLTeQJBdW2sLXQ2B//MlREFAKf+KakUrRBd5gB3jFlbU206Dn3cB9NPnGCp+3VAvyCQfNN5jODgT8iQAoBT/5QMCv2HiNxhh+TukSs3NpnOQz3bMWVKvpsdvwSCrwNylOk8ScPBnz6U9gUAp/7JV4o2FdyrjntH0VO1G0zHof6pmzqpTES/Aeg5ImKbzuMfrYi1hs7i4E9AmhcAO0snHZiw9WURDDGdhdKM4iVA7whbetfwNbWNpuOQN96bWTw27MgVUL0MIqNM5/EWB3/6uLQuAOqnlTwuey8LIRowVXVEZKkCt49eW/286Tzkn5cXHhUZuSt3kQDfgMhk03kGTisTOXoWj5vSvtK2AKgvm/Q5EX3QdA5KfQoogPtt272uYFXta6bzUHLtmHpi1BH3GhHMN52lfzj4U9fSsgDYUlqanWu3bubDRGigFHjCUvfaURW1fzedhczaNrV4ilpyqwBTTGfpPQ7+1L20LADqp5VcJ8BPTOeg1KXQp0V0ceGa2nWms1CwbJtePF9d3Cwih5vO0iPFU4lc90wO/tSdtCsA3ptZPDackNcgyDWdhVKPQmtFZHHhmuonTWeh4NLS0tD2UOvlUJQHcrMgB3/qhbQrAOrLiu8VkUWmc1Cq0c0QXFe4puYB00kodXx4l8D3AbkqMF86OPhTL6VVAVA3LXq6BavSdA5KIYq3oXr9qNNq7pYlcE3HodS0Y/oJY1y1l6jiUpP3CKiiysl1z+DgT72RNgWALlxob9+1dRMf+kG9omhTca8tbMCvpba203QcSg91U0s+K6L/ISJnJrtvVVSpHTuzaPWLrcnum1JT2hQA28qi34RYvzKdg1KBVipw2ei1NW+bTkLpqW5a9HRLrV9BcHQy+uPgT/2RFgXA+6XRkXZI3hDIMNNZKLhUtQmC7xWurblT9p7tJ/LNG7MPzRocH/ZTAFeLwPKrH4U+rVb8DA7+1FdpUQBsKyu5A4LLTeeg4FLgiVBCLh9ZtfE901kos2wvm3Sqwv2zH/eScPCngUj5AmB7WXSiC6vazwqbUpjqboj13cK1G/9iOgplrm2lRw1CKPc2QC7zqk0O/jRQKT9oqsitHPypK6p4AI58loM/mVZYtbmlcG3NV1zgbEC3DbQ9hT7DwZ8GKqVnAHjsj7qkul1gfXNUxcYVpqMQfdL7pdGRtm3d0d9nC3w4+M/h4E8DldIFQH1ZyToRnGw6BwWI6j2dIt8+cG31LtNRiHqybWrxxSryq748rlyhz0ii7YzCqs0tfmajzJCyBcC26SWzoFhpOgcFg0KbRfBF3uRHqeS9mcVjww7+BEjZ/l6rinXitM7h4E9eSd0CoKxkIwQlpnOQeQq8pS7OKaqsfsV0FqK+UkC2lRV/WwQ3A5LT5Ws4+JMPUnLzXP3U4rkc/AkAFLoqO5ZVwsGfUpUAOrqi5r8tFyeo4tlP/l6Bv7Y7uTM4+JPXUm4GQAHZNq14k0COM52FTNOfjRo+/geyYoVjOgmRF7Qc1vZ1ky5S6NkCtV3F8qKKmmWmc1F6SrkCYHvZpIUqutx0DjJJO1TxldEVNXeZTkJElKpSaglAy2GpuNebzkHmKPQ9S+RUDv5ERAOTUgXAtnUlFwBylOkcZIYCz0Ht4oI11TWmsxARpbqUKQC0tDQE4HrTOcgQ1Tt3Dm+dOrpiw4BvUSMiIiBkOkBvbbfbLhLgUNM5KLkU6BTodworam43nYWIKJ2kxCZAXY5IPD/78aa/HJrjbs+ZYjoPJYcqGi1Lzxm1pqbKdBYionSTEksA8aHhz0vInTb4S298Nnvy9vuUz3JPe6poVLgzOfgTEfnDNh1gf1Qh7hb7bkAKBMgOj2s5KnJo4wMd/xhRJN3cmkWp7aPBv6iidqPpLERE6SrwSwAdqyJzLcHfPvlzNy4bm+88MtttjhxrIhf5Q4EGFzpzzNqaatNZiIjSWeCXAETw/a5+bkV00uCvby6MTGh4JNmZyB8c/ImIkifQMwDxtaEpcK1P3Y29L1UkOt/Mv7/1/vFzu3uQBgWfAg22YAbP+BMRJUewZwBc+cH+XiKCUOSw5vOGXvnK85KdeCsZschbHPyJiJIvsDMAHasiEwR4RaQPGV19u3npZ7Yk3s2f5mM08pBC99iuPaOgckOt6SxERJkksDMAluB7fRr8977pkEEXvj0lZ8Z79yo04VM08ggHfyIicwI5A9C6KmdMSJwtAkT624azJ/xI8++PLFHHGu1lNvKGQvdYqtNHVdT+3XQWIqJMFMgZgBAS3xnI4A8A9rDOs4de9fIOa2T7eq9ykTc4+BMRmRe4i4B0NYY4ErpbgKwBN2ahMGvirjx0WI91fpA3QQI645FJFOgU0dmFa2s3mM5CRJTJAjcD0KmRKwQY7FV7AgzLnla3YPDF/7xPLW3wql3qJ8E3CtfUrjMdg4go0wXqG7E+jqx4OLxFIEV+tO/G5fmm303I15bw0X60Tz1Txe2jK6q/YToHEREFbAYgHgpf7NfgDwBWRE8a+s1XhocOb3zUrz6oa6qoKnRyrzSdg4iI9grMHgAth+UeZN8NkZH+9iT5kSMbxtsjO1Z0vj7kUEBC/vZHgG51HJ0xuOr5FtNJiIhor8AsAXSsiXzOUjyYzD611V7d+LsJh2nMHpfMfjOKohUqJxdWbvyH6ShERPRvgVkCELfrh/742meeM2Pola90hsa0VCa770yggALuFzn4ExEFTyCWAGJPho8WS24y0rlgROS4PaMQch/o3DJogogEpihKdaJ6Y2FF7f+YzkFERJ8WjMHOwudNdi9AXs7kHecP/urrj8LW7SazpA3F30ZV1PzYdAwiIuqa8QJAFSLAhaZzAEBoeOycYVe99L41vGOj6SypTV+xOsIXC6CmkxARUdeMbwKMPxk6DZZVZTrHvlSxq331gU/F/j5igeksqUahe8TVksLKWj6amYgowIzPAEAso9P/XRHBiJyZ780bdOFb9yq0yXSeVKGqDoBFHPyJiILP6AyALkckPixSL8Awkzl64sblmabfHjVC20JHmc4SdKp6y+iKmh+ZzkFERPtndAYgNjxyRpAHfwCwInrq0G+9nB/+TNPjprMEmuKlnSPayk3HICKi3jFaAFiuXmSy/14TGZu3cMv0vLPfWQpFzHScoFGgEyoXH71ic9x0FiIi6h1jSwC6GkPiGqkXQbapDP3htoRXNt1x5ATttA42nSUoVHHt6IrqG03nICKi3jM2AxBHeEGqDf4AYA3qnD30uy+324WtT5nOEhAbCkeMu8V0CCIi6htzSwCK1Jj+74qlR+Z/8c1o9qn1y1Thmo5jjrZbrn5BVqxwTCchIqK+MbIE0Lom54CQOu9IEI4hDpCzM+v+pj8ccRpcKTCdJdkEuHLU2upfms5BRER9Z2QADqtzYToM/gBgj4wtGHLVS/+SIbEa01mSSysL1lb/ynQKIiLqH1ODcOAu/xkIK6TFQ7726kHhY3c/YDpLMii02XGdS3nVLxFR6kr6EsCHT/57Kdn9JoMCTufWQctblh1ylkDyTefxj36/cG3NraZTEBFR/yV/BsDwk//8JIAdGddywbDvvlKL7M7XTOfxgwKvj2rQX5jOQUREA5PUAiBIT/7zk2Q5pw+78pXs8LjmJ0xn8ZoIrpTa2k7TOYiIaGCSugQQxCf/+UmBWOeLw+5rfeygcyHIMp1nwBR/K6yo/pzpGERENHDJnQEQOTeZ/ZkmQFbk2D2fH/ytzRUScbaYzjMw2uHa8l3TKYiIyBtJLQBEMD2Z/QWFPahzztDvvNIZOqCtwnSWflPcWrR6Y4oXMURE9JGkLQG0rsoZExbn/WT1F0QKtMY2FjzcVlG0UCAh03l6TfFOrM0+8qD169tNRyEiIm8kbQYghMS0ZPUVVALkZU/accGQy199DLbWmc7Te+7VHPyJiNJL0goAgWR8AfARe3jnOcOufmmHVdDxrOks+6cVhRW195lOQURE3kriHgBlAbAvS48d/OXXj86evH15kB8o5AA/NJ2BiIi8l5Q9AB1rI0dYLtLyYhwvONuy72/68+GlcGWk6Sz7UtWVoytq5pjOQURE3kvKDIDluvz23wO7sGPBkKte2hK4BwqJ/MR0BCIi8keSlgAkI4//9YUV0pIhX3vt4KzjdgbjgUKKNaPXVj9vOgYREfnD9wJAy2Ep5HS/+0kHAhTkzHn/c4M+/8/lKmg0m4Xf/omI0pnvewDiq0LFEKva737SjRuTdU2/mzBUW8NHJ71zxVOFFdVTk94vEREljf9LAGJx+r8frCw9Zei3XhkeObLhkWT37fLbPxFR2vN/CUB5/K//ZEzuOf+akzf/7WVQtCWjR1WsK6rYWJmMvoiIyBxfCwB9HFmAnOJnH+lOBKHI4c3nD/3OyxuQ4/zT/x5dfvsnIsoAvhYACTvrZBFk+9lHppAcZ+qwb78UDo9rftK3ThTVoytqV/vWPhERBYavBYBr8fy/p0TG5Z3/9uk5c95dBkXc++b1t163SUREweTvHgDl+X+vCZCVfdzu84d8a3OFhN1/edWuqjY5Vvxer9ojIqJg860A0NUYAkHUr/YznTWoc/bQ77wcs4taq7xoTwT3FK1+sdWLtoiIKPh8KwBiiJwugO1X+wTA1sPzv/BmcfbUD+5VVWcgTQnwO69iERFR8PlWAIjqyX61Tf8mQF7OiTvOG3LFa4+J7db3pw1VrRm1tmaT19mIiCi4/NsDIDjWt7bpU+xh8blDr3p5h1XQvr7Pbxbc6UMkIiIKMP9mAIBj/GqbumHrMYO//MaE7BO336eA9uYtCrTY7ZGlfkcjIqJg8aUA0NUYAcgYP9qmngkwJGdq3blDvvj6g7DcXft/vS4reO655mRkIyKi4PClAEggi9/+DbNHd8wfctXLW6wh8R7X9h1u/iMiykj+zABAuf4fAFZIiwd/7dUDs47d+VBXv1do7Zi1NXxSIxFRBvJrDwBnAAJCgIKcM96fm3/hWytU9GNT/ZZY5aZyERGRWf7MAChPAASJAFbooJaFQ7/z0osyKL4ZAKD6/Kg1Gx8zHI2IiAzxvADQclgQfNbrdmngrCw9eeg3Nw+NHNH4mKvWtabzEBGROeJ1g+0rsw61bU3CY2up3xSbIjPjE03HICIic0JeNygWNwAGnQo2mM5Aqae8XK11oZYL1MI3VfUgEYwCxPPPECLqJdV2QLZBUK2u+4vK64Y815e3e74EYHEDYPCp9ukvCREAPB1uvkwt3AVgsoiM4eBPZJhIDgTjACyEJZWlNzRO7svbvd8EKJwBCDrXtZ43nYFSkVxtOgERdU0gERvy2768x49TAJwBCDAFduTMjr1pOgelGFWB6DjTMYioByLHld3YdFRvX+5pAaAPI1chn/GyTfKWQPntn/ps5vWNwwQSMZ2DiPbrrN6+0NMCoDM3dLT4+YRBGjgVrv9Tn8XyQhz8HoUpxAAAIABJREFUiVKAKk7o7Wu9nQGAcPo/6NTlDAARUZoSETMFAFzeABhkqugM5yd49z8RUZpS6GEzbq3L681rvZ6u5wxAkAn+IVPQbjoGERH5QyBWoiP3uN681tsCgFcABxvP/xMRpT0VOb43r/OsANDnkCOQUV61Rz6wwPV/IqI019t9AJ4VALHWyFiv2iJ/OGpzBoCIKM2JanILAFuFBUCg6Qe5MzreMZ2CiIj8pcDRpeW636u6PSsAXLgHedUW+UDBb/9ERBlARLLCdsuE/b3OswJAICwAgkyE6/9ERBnCCe1/I6CXpwC4BBBklrvedAQiIkoOUT1sf6/x7hQAlDMAAaWAE25NvGA6BxERJYseur9XeLgEABYAASXAqzIXbaZzEBFRcvTmwXzezQAITwEEWI3pAERElFTJmQHQ1RghQK4XbZEPXGEBQESUQQQYfsrNDcN6eo0nBUAcYU7/B5rDAoCIKMPYTrjHZQBvZgB4CVBgqSIRjiT+YToHERElly1uj8sAnhQAAuUzAAJKBK/IVHSYzkFERMml+zkJ4E0BYMlwL9ohX7xkOgARERmgPW8E9GgJQFkABJRC3zKdgYiIDJCejwJ6tATAGYAAe9t0ACIiMuKAnn7pzT0AnAEILIGyACAiykACFPT0e2+WAAAWAAHVqWEWAEREmWnQ5J9pTne/9GoJYIQX7ZC3VNGeO6O9znQOIiIyI6etvdtTeh5dBcwlgCAS6BYRqOkcRERkhiva7TKAN0sAwk2AQaTcAEhElNEsq/t7egZcAOjjyOJzAAJK5D3TEYiIyBxxHR+XACSX3/6DSrXZdAQiIjJHezgJMOACIB7pZAEQUAJpNZ2BiIjMEYh/MwDi6uCBtkG+YQFARJTJBD4WALCzBtoG+cVtMZ2AiIjMUciw7n438D0ALiIDboN8oVwCICLKaKLa7Sb9ARcADpQzAAHFAoCIKMOJ+HgToMUZgKCyVbgEQESUwVR9vApYOAMQWAqHMwBERBlMRPxbAuAegODiEgARUWbzdwbA5gxAUKmwACAiymQCP/cAqM0ZgIDKckLcA0BElMkEfhYAnAEILG3jDAARUQbzdQkA4B6AwGrhTYBERJlMROyF5drlOD3wpwEKZwCCSIGYLIJjOgcREZn1fu7OLsdpD5YAEB5wG+SHhOkARERknhsa2eV44MHjgNE54DbIe4pcLfdkiYeIiFLYrCbEuvr5wI8BqsQH2gZ5TwSCGcgznYOIiEzSxJIl4nb1Gy9mAFgABFRbW06+6QxERGSOqnT57R/w5hRAt42TWbbtsAAgIspk0v0Y7cEmQJczAAFlOS4LACKiDCZQ/woARffTC2SWWDYLACKiTObrEgD3AASW4yoLACKiTObnEoAKZwCCSlQHm85ARETmqPq4BACXMwBBJRZnAIiIMpx/BYDNPQDBJRYLACKiTNbDLP3AZwAszgAElXIPABFRRhM/lwBUHM4ABJWABQARUQbTHjbqD7wAcKV5oG2QP0SFBQARUSbz8xhgQkO7BtoG+YQzAEREmU18XALITbSzAAgoVRxgOgMREZkjfp4CkDMQU6B1oO2QLw43HYCIiAzy+WFAEOhuL9ohb4lgpFZiqOkcRERkhvq5BLCXcBkgoDqdEGcBiIgylfr5NEAACmUBEFDqCAsAIqKM5fsSAGcAAku4D4CIKHNpS3e/8WgGACwAAkrAGQAiokwl0LrufufNHgDlEkCAsQAgIspQatkfdPc7LgGkOQUOM52BiIjMsBM+zwCo8BhgUIlgkD6RW2Q6BxERJZ+GXH9nACy1tnnRDvmj045zGYCIKMOoamztNUO6naH3pABwXP2XF+2QP5QbAYmIMo5Aup3+BzwqALIGx1kABBmPAhIRZRwF/C8AZAraVZXLAAElyo2ARESZRgTdrv8Dnl0FDEBkq2dtkdcmmA5ARERJppqcAkAUW71qizwmcrg+jgLTMYiIKHk0WTMAKrrVq7bIe7FIpNR0BiIiSh5LLP/3AACAKAuAIBNVFgBERBlEk7YEIPZWr9oi7wmEBQARUQZRJ0lLAI7DGYAgU8XRuhLDTecgIqLk6Aw7ySkAeBdAsIlAYqHIaaZzEBFRMmjHuh8N3dPTK7xbAuBdAIHHfQBERJlB93MLIODlPQAAILLF0/bIU6LcB0BElAlEe17/BzwuAETxipftkbdUcJyuxhDTOYiIyGf7uQMA8HoGAHjJ4/bIQwJYCURONZ2DiIj8psldAhAVFgAB54L7AIiI0l6ylwBCTowFQNBxHwARUdrTXuzJ83YG4Azs4EmAgBNM1HXINx2DiIj84wKb9/car/cAANwHEGgC2In2rJNN5yAiIr9oYlR80Bv7e5UfBcCLPrRJHnLVZQFARJS25K0VSyS+v1d5XwAoZwACTzDJdARKLXanqukMRNQ72ovpf8CHAkC4BBB8iuOgENMxKHXYkZYW0xmIqNfMFADh/M7NCrhet0vecIAPvt180s6JyxacaToLpY7V3ytqVVXHdA4i6hVDMwBT0C6qb3rdLg3cdjer+qzds3JqOws+K8CVpvNQahER/ndNlAJcFTMFwIe4DBAgCjiPxw58at7umcWNGhkGACKYXnLPgs+azkapQ6E/M52BiHqmUBedea/15rX+FAAiG3xpl/rMVWz7fvOkl29oOeF0lY+v+7uinAWgXht5WP4foPoVKLaazkJEXROVt6uWSEevXutHgPja0BS41rN+tE29t8eJbLq4qfTA3W52QVe/V9V2K8sdWz3/oV3JzkapbWG5RhpD7YUJyxmmlnzsc0Tcrk8MWA4+9fNO+9M/6+p1Yn+6zd6318V7Q130keiivVDv/yxdtWklPv3+eJevy/rUz+xwF6/r/PTPYuFP92F38WcBAKuLNmNdnPCwIl2///+4EkICo204v4VItMfXUnIpHq64Nv+c3rw05Ef/4ViiNh6OxATI8qN96pkCblV89NPXNkdPc2F1O8sjIjkaty4HcHMS41Ea+PCM8bsf/o8y03tlNzZXAGABECy9Wv8HfFoCkDMQA1DjR9vUMxeyu7wluuma5pLTexr8P6KQr5dWlvpSCBJRmlPETEegj1OrdxsAAf82AQKqXAJIsiY39NK5u6fF1sTG9LoiF+DA1voRC/zMRURp6wDTAegTJAAFgIo851fb9Gkb4yOrztg9e0K95hT19b3KI4FE1B+is01HoH2oaijU1KsTAIBPmwABQCsxsjMR2eFX+7SXCzT+Z/Nxrz0cP+jEgbSjlnVi7aIVG73KRUTprfSGluNt0U2mc9A+FFsrrs0f39uX+zYDIFOxE6r7fRoR9V+ba796QUNZ00AHfwAQ1+UsABH1mi3uGaYz0CcIXunLy/3bAwAAItwH4JMXE8OenrNn9iHvOnljvWlRF55wz9wx3rRFROlOIXNMZ6CPU9U+3cHjawGgwo2AXlOg9b9bP/vcFY2nnNYJy8NjlhK2rfDXvWuPiNLVKTc3DIPqSaZz0MdZKs/36fV+BQEATXAGwEsxtd+8pOG07fd2HDLFnx70q6V//EK2P20TUboIu/YMEbFN56B/U6jbHukIzgxA1qz466rgLXMe+Gcif92c3bPGvOUM6fUGj76TkW25LRf71z4RpQVVrv8HjCheeu4HBc19eY+vBYAIVKCVfvaR7lTR/r9th6/7QuPpp3TAzvW7P1fxPZSX+7s3hIhSl6oA4PG/gFHp2/Q/4PcmQABqYaXffaSrOKytlzWe8t7/th9xSrL6FOCw6IRXeDEQEXVp6i1tE0Wk0HQO+oR+3L3jewGQQIgFQD+86+Q+f8aumSNfdYYdluy+RfWHye6TiFKE63D3fwC5SARvBiBvevv7AF7yu590oUB8Wfv4p89rmHZSG8KDjIQQTIzeM2+Gkb6JKNhUuP4fMArdXnXN0Df7+r6krPWqKmcBeiGheO8bjVPe+mXb0aeZziKWxVkAIvqYmeUNwwGdZDoHfZyg7+v/QJIKAEstFgD7sc3N2XjW7lmDXkiMmGA6y4fKossX8j90Ivo/Tsiew+N/AaQa3AIg1Bhbp4qWZPSValSReDg2tmr+7uklTYgMNZ1nX+I615nOQETBoRYuN52BuiDo18P3klIAyCLERbQiGX2lEldRf3XziZtvaTm+VMW/BzP1n5xVvHxhqekURGTe9J80HwPA+PIkfYJqZ1t2fk1/3prE897cB7Cv3W7k73P3zAiv7xx1rOksPVHHvRUaxOKEiJLJsfAN0xno0xR4Yf3V0t6f9yatAHBcmwUAAAXcNfExT83dM+P43Zo9wnSe/RFBSfGy+YtM5yAic6bfsnsIgItM56Au9Wv6H0hiAZAzK7YFqq8nq78gchU7r2uOvvDj5ujpLqyUuW1PRW46avnCiOkcRGSGmwhfKoI80zno0/r6AKCPvdfLIPujkrm3Aja6oRfnNUxzKuJjJprO0lcCHJLrJvikQKJMpCoq4H//AWXDDv4MAABYrvV4MvsLAlXo8/GCqjN3zz5qh5ubstdnqlrXRpcvHGI6BxEl1+k3ts4UIOk3ktL+qeKNVdflvtvf9ye1AAiNiFUqsCeZfZrkKhpuaj2+5urmyaWuSMh0noEQwQhx3ZtN5yCi5BLoN01noK4J9LGBvD+pBYAUo1OAh5LZpymtrr35vMay1sdiY0tMZ/GM4oqSpQummY5BRMkx46d7xkP46N+gEpUBzaonfSOaCFYku89ke6FzxNNn7J516PtO3gGms3hKICr43ykPzc03HYWI/OdYoa8JJGU2LGeYluGJQU8PpIGk/x8bGhpfo4qGZPebDK6i5eetRz//9aYpp3WKna675g+OtYd+ZjoEEfmrtFyzFfiy6RzUNVWsWbFE4gNpI/kzAHuXAf6W7H791uHab1zUWLrzvo7xJ5nO4jcR+Up06YKZpnMQkX+srKYLBBhuOgd1baDr/4CBAgBIv2WA1zuHPDNnz8yxW53B40xnSRrB//JUAFF6Ki9XCyrfNZ2DemI/MdAWjBQAoT3x1Qo0mujbSwq03dF6xLpLm047NYZQjuk8ySTAgXCc20znICLvPRNu/pJAjjGdg7qjL1Rcm/f+QFsxMwOwCHEBHjbRt1dirvX2pY2nfvDnjsNPMZ3FFBG5NLpsPncIE6WR2eU7Bytwg+kc1D0d4O7/jxjb3em6qbsMsDUx6LkzGmYVvpEYeqjpLKYJ5M7jHjwnUI8xJqL+i4WzFotIyl5alhHUHfD6P2CwAMhy4qsUaDLVf38oELur/dCnL2ycOqVdQ7wXe68xoVjol6ZDENHATbu54RBArzSdg7qnwO6RRwze4EVbxgoAOQMxUTxiqv++6oS8+7WGk7fc3jaBz8P+BAEuLr5n3lzTOYhoYNSxbxWRLNM5qHuiunLFInG8aMvoBQ9uipwGqHNyNpy5a+bgF53hR5rOElQqcsfk5Qt5ZIgoRU37afPpEMw3nYN6NtDb//ZltADIGhZ/XFW3mczQE1UkHu4YW7WgYfqJLYjwyFsPRGR0wnF+bToHEfVdeblaailP9QScQl3YrmdP1TVaAEgxOiH4o8kM3XEV265uPnHzLa3Hl5rOkjJELihedu75pmMQUd88E27+EiDHm85B+6GyYe01Q3Z51ZzxO55dWHeqQk3n2NduJ2vT3IYZ9vrOUceazpJyVP+3+J4FJ5iOQUS9w2N/qcOL2//2ZbwAyJkRexvQNaZzAIAC7lPx0U/NbZh+3G43e6TpPClJkKsW/nbiPWfzGBFRCuCxv9Qhlnq6b854AQDs3UBmOoML2X19y8RN1zSXnO7CCsS/l1QlwFhHIvcftXxhuj4QiSgt8Nhf6lBg49prhrzhZZuBGOiyhsUfVtV6U/23qP3yuXvKOlbHDoiaypB2BCfnOM5vTMcgou6pa/+Sx/5Sgyj+6nWbgSgApBidgJnNgLXxkVVn7J51RL2bO8ZE/+lMRL5UvHQ+v10QBVDZjc1XAjjTdA7qDU3ERe/1ulXxusH+an8ya7wl+pZIcjK5iuaftx7zygOxcZOT0V+mUlUHqnNqL3xwteksRLRX6Q2txZY4zwqEy3QpQBWPVl6bf7bX7QZiBgAAcmbFtkB0VTL66nDtNy5qLN3Fwd9/ImKLJfeeePf8w0xnIaK9u/4tuPdy8E8h4v30PxCgAgAAVOV3fvfxemLwujl7Zo7d6gwe53df9BEZ5tjy8KS/fn6w6SREmS4ejtwpgkNM56DeUaDJjQ/y5em5gSoAssLxhxVa50fbqmj/fevh6y5tLD0lhlCOH31Qj450Qx1LUV4eqL9zRJmk7IamKyCyyHQO6j0B7qtaIh1+tB2oD2OZigSAP3jdbhzW1q80nvLuHzqOOMXrtqkPBGdEJ7x8i+kYRJmo7MbmYyHgdb+p5y6/Gg7MJsCP6Jq8wrjbuUUEnnxLf9fJff7ShtOOaUN4kBftkQcEF9ecd79vf6mJ6ONm3FqX58QH1QI4wnQW6j2Fvlt5Tf7BEPHlttxAzQAAgExv3QbonQNtRxWdyzvGVZ3XMO0kDv7Boqp3Tly64FTTOYgyhRPL+w04+KccUbnbr8EfCGABAAAJK/SfCsT6+34H+ODbzZPf+EXrMXyQTwAJJNuCPs4igMh/ZTc0fhEiF5vOQX2nrn/T/0AAlwA+Elsd+Y0AV/T1fTucrJpLmk4/pNGN8Nn0gaetApxRff4DT5tOQpSOpv+kaYJjSbUI8kxnob5R1U2V1w6e6GcfgZwBAADHsm5RRWdvX6+Auyp2wFOf2zMzysE/VUieAo8XL1/ImRoij824tS7PtbCcg3+KEvHl7P++AlsA5E7r+Jegd5cfuIqd1zQX/+P6lomna5JuEiSvSB4c9/Ho0gWnm05ClC4WlmskEct7ECJHm85CfaeqjhuWpX73E9gCAAAcV25WwOnpNY1u6MV5DdOcqngRn0GfqgS5AjwWXTZ/qukoRKmuvFytXZGWu0Rkhuks1G+rq74/yPcH5AW6AMiZHXtTgC6rIFXohnhB1Zm7Zx+1w83ls6xTnSBXVB6deM+8MtNRiFLZM5GW3wBYaDoH9Z9l6f8kpZ9kdDIQruImBdyP/QxovKX1uOrvNk8udUVCprKRxwS5IvJo8bL5001HIUpFZTc23wTgctM5aEDeOiU2+PFkdBT4AiB7ZvxVAe776J/bXPvVCxrKmh6JHTTJZC7yh4jkqOLh6D3zOH1J1AdlNzZfDeBHpnPQACl+vWSJuPt/4cAFvgAAABW9URX6SmLo03P2zD7kXSdvrOlM5B8RyYElD0eXLphpOgtRKph6U+OlUL3VdA4asJZIZ8zz6/C7kxIFQNb0zhdvaj3u9q80nnpaJ6ws03nIfwLJhujfJi6bP8t0FqIgm3pj09eg8nuI8ARUilPVP69cMrIpWf2lRAEAAI/FDvwtoEmZFqFgEEi2AA9Fl86/0HQWoiCaekPzEoHcLpCU+SynbqgqXP1VMrtMqYoxunT+XSLyedM5yADFz8bb1g9WLFrR47FQokywcLnau/7Zcju44S+N6JMViwfPTmaPKVU1urZ9vSoSpnOQAYKrt7juE5OXL+Qtj5TRSss1e+c/W1aAg39aUbF+mew+U6oA2LRoxZsQJG2DBAXOjE7XrY4uX3iM6SBEJpSW7xlqR1qeFGCe6SzkHQX+WfmjvCeS3W9KFQAAYHe6P1Voh+kcZIYAh4jrPB+9Z965prMQJdPMn7aNtSL20wBOM52FvKWKX/v52N/upFwBsPHiB98T4Demc5BJkieWtSK6bP6NKC9Pub/DRH1VdmPz1IQ4tQLh7Fe6UTTHwx1/NNF1Sn54Jiz7Zqi2mM5BZgnkmuIjX34kunzhENNZiPwy7afNV6nqaggKTGch76ng9ud+UNBsou+ULABeWLRiByC/MJ2DAkBwBlx34wlLPzfBdBQiL824tS5v6o1Ny9TCz0TENp2HvKeK1k7oz0z1n5IFAACobf0XoHtM5yDzBDjcEmt98T3z5prOQuSF0psaDnVieesFcp7pLOQfEdy+bvHgHab6T9kCoHbRikZV/KfpHBQMAhkMsR6KLl1wfWllKR8QRSnr9Bsaz7TVrobI0aazkH8U2mbH8V8mM6RsAQAAyIv/UoFtpmNQQAhEBOUt9SOqJy5fGDUdh6hPVKXshqZyC/IIgKGm45DPFL9ZvSR/u8kIKXUTYFeiy+Z9S5D8CxQo2FTVEcgvNC/249q5j7aZzkPUk+m37B7iJMJ3ieAs01koCVTbITK+YnG+0S+wqT0DAKDdCt0B1XdM56BgEREbgqvRGnmZTxWkICu9sfloNxGu4eCfOVRwh+nBH0iDAmDzohVxWLLEdA4KJhEZL4Ino8sW/CV69wUjTech2te0nzafZynWQ3Co6SyULNqRUCsQ+9dSvgAAgPFi/VmBN0znoOAS4GKxY68W37vgItNZiBYuV3vqDU3/pRaWiSDPdB5Kqt89c+2gOtMhgDTYA/CR4qXzz4PIMtM5KAUonrSRuGLDBX/bajoKZRiFlCxfsBCJIV/L3/qzA4EQv/lnEFWN2WH7kDU/yPvAdBYgjQoAKCS6bMEmERxnOgqlAm1VxY8Pse3/5iOGKRmKl80/W1V++tFnlCRGvDlo660REesg09koORT668rFg79lOsdH0mIJAAAgUAF+ZDoGpQrJE5Gfve0663lkkPwUXTb/jOjSBRsBeXjfLyga2nVo8/jvWq7VWm0yHyWJolkgN5iOsa/0mQH4UPGy+csBWWg6B6UWBR62XPy0+sL7a0xnofRQcs+82SqyBCKTenyhWrGcD66uCLcfNRsiafeZTB/RxRWLB99kOsW+0u4v24n3nF2YkPBmERluOgulIMXjqvhJ7YX3bzAdhVJTdOmCmQIsgWByX94XaZxakbXjC1ER8OFWaUZV33E784+oWiKBepR92hUAABC9d8EXRPEn0zkolekqqCypueD+50wnodQQvWfeDFhyvUCm9LcNiRe9Oujdn0AQ5sOt0oi6uLDyuvylpnN8UloWAABQvGzBKgAzTOeg1KbQtRbwk+rzH3jadBYKppKlC6bp3m/8J3vSoIab8t79SbXdWTTNk/bILMWGisWDToKImo7ySWlbAJy49JxxjtgvA8IztjRgqloFwZLa8x+oNJ2FgiG6bP5UAZYAcqrnjSs0a/f5T0b2zJoqIlmet09JI+JOWXvNkOdN5+hK2hYAAFC8bN53AOs20zkojaiuU9Wf1F744GrTUSj5Fi5faG9JJM5UkatEpNTv/uz2I6pzP/jBaIE11u++yHsKvbdy8eDzTefoTloXACgvt4onvPQcICeajkLpRVWfhyW/Cov10PpFK9pN5yF/nXDX/INtWy6D4EsAxiSzb3Hy6wa9c+O/xB3cp02FZJaqxlzbObLqR8O2ms7SnfQuAAAUL5t3NCB/ByRsOgulH1U0A3ofBH+tPe+BpyAI3Dof9U9pZWmorW742a5lXS7QmYCYvDelM6f+22tCrSfMErM5qJcU+I/Kxfk/NJ2jJ2lfAABAdOmC60VQbjoHpTnVdxRytwvnr5sueOhV03Gof4rvnn+IWnIZoJeKyGjTefYVbj65Knv7ZccIeMw5yBS6PSseP2zlkpFNprP0JCMKgKOWL4zkOM4mETnKdBbKDAqtgSt/dULW0hcWrdhhOg/1LHrH5WHk7zhHLOtyKKZDgvvZKJ0Fbw5654Z2QdYxprNQ1xR6eeXiwXeazrE/gf1L7rWJy+ZNtiDPGp7GowyjioSIrhSRv+a2DXq46tI/B+oikExXcs+Cz6rgEgi+CGCU6Ty95oZa8t6/7nk7fjCPOgeN4tmKxYNODeKxv0/KmAIAAIqXzf9vQL5tOgdlKNVGACsUcne7bT23edGKuOlImab0j1/Ibs1umaqiZwJypgDjTGcaiKxdn3sy0nDOqQLJNZ2FAIXGbQfHr/nx4JRYAsyoAuDYv1yUF4m0vwLgYNNZKMMp2hR4ToBKAE9p04jq2q/+rtN0rHQ06a/zDnTC9plQPVOAaRCk1WBptR+yadAHi4cB9jjTWTKdAksqF+dfbzpHb2VUAQAAE5fNn2VBVprOQfRx2grgWQBPudDK/MLdNVVTqxKmU6Wk8nKr+MiXJ6vomVA5MyMeEe7mbs9/96Y3JDH0FNNRMpbitUj+oONXXikx01F6K+MKAAAoXjr/zxC5xHQOom6ptgDyrAKVUDw1qGhnLQuC7p249JxxCSt0Elw9A5A5IhhhOlOyqaqTs/1rT4abT5wlIrbpPBlFVSEorVg8+BnTUfoiIwuAkgc+N0Lj9mak0qYfymiqaIboOgBPiWVviHckXn3xkge3m85lQvHd8w9R0YliWVEAUVVMzMQBvzvhlui67G3fOFxg8fMteX5XsTj/q6ZD9FVGFgAAEL1n3rliWStM5yDqP92jwKsCeRWK11TdVyH6Wu1rx23BkiWu6XQDppDoss8dYll2VF1EVTQqwERAhpmOFnTSOXzroPduahA3+3jTWdKear3T6UyoWjKswXSUvsrYAgAAipcu+CUE3zKdg8hLCu0Q4A1VvAbIqwJ91RJ9zbJCbwTt2uJj/3JRXo7dNsYJ22NU3TFQHQOVAwU4DsAJEAw1nTFVqWu359X98OlQx2GzTGdJa4pFFdfmp+SXyYwuAKJ3XB6WwbsqPXuMJ1HgaSsUu1SwSyA7VXUXBLsA2QUXuyxLdsF1dgHWTglZuxCL7Np48d3/vs1MIdHfXR4aFInZe2zHDmfHQmHAbutIhMIC2wZsCbmhBMSGa4URtkda6o5RdccorDFQHSMiRQDGKHSMQAab+3eRGcINc1bn7DrvJACDTGdJNwo8Urk4f67pHP2V0QUAAJxwz9wxloRqg3blJ1FQfHiZkUIlFOQb8qh7VmzsS3nv/zhbNHyY6SxpQ9EcUvuzq67Lfdd0lP7K+FvxNl348AeW4DxVcIc1URdEEAIkzME/dblZ7x7TfPA3Rzj2zirTWdJXVTY8AAAQz0lEQVSFWPKtVB78AYBHRQB8cN+r/xqz4KgWEXCtjIjSk+XkdA598iBxhq20Ow4eBx4V7DeF3luxOP860zkGKuNnAD5Se+H9tylwr+kcRET+Eauj4E9z2opuqwXcOtNpUpFC33XjzhWmc3iBBcA+OuM5X1boK6ZzEBH5KZH34uSmcd91XKu12nSWVKJQV4GLU/HIX1dYAOzjxUvuarXUna/QQD/DmYhowOzGA1vGfevYzuxXnoBq4J9cFwQC+Y+nFg9Om30ULAA+ofqCh96wXP2i6RxERL4TN6v9gFvndBT8pVIVjabjBJmqVjeOHFRuOoeXuAmkCx/c/9prY849KhsAH6xBRGnPyd46vnPQhi2RptKdArvAdJ6gUUWr7erMZ6/O3mE6i5c4A9CN8ZZ1rULXms5BRJQMGqmb0HzI1w9wwnX83PsEEb1yzY+H/NN0Dq/xXG8PondfMBJ2/O8CjDWdhYgoKRSatfv8JyN7Zk0VkSzTcQLg/orF+eeaDuEHzgD0oPbzS3fCss6FImWe70xENCACiY1YNrvtgFteVLgpfdHNQCn03VDcudx0Dr+wANiP2kUrNgL6bdM5iIiSycl5vaRl3JUhtZrWm85ihna4as9ftWTobtNJ/MJNgL3wwf2v1hYtmHCwiJxgOgsRUdJY8fz4sCcKrfhBq6zO0Z8RSOYsG6t+5alr8x83HcNPnAHopUEd+V+H6kbTOYiIkizcPvqXczpG/f4Zhabtt+F9KfTXFdcO+ZPpHH5jAdBLVZf+uUPdrDP/f3v3Hxx1fedx/PX+7CYhWULib6Q1EYbqiD9xs8rpOJHeOVAsARJ2JdD6a3qnVzs67f2wI0LFX+PNzdU5K9fWu6nVWhJ2m2DVw18QpCpnm0SdoCIVtfJj1eKP8kOSTfL9vO8P8eZ65w9+7O57f7we/zDDj90nM7D7yne/+X4BvGrdQkSUbyO1zzbvbfjHDxSZjdYtuaSKp3cfXfs964584AA4CP2LOt5zI/4iqG61biEiyjet2Dl5z8RrJgaVbz1p3ZITqtvDI5jff5WMWKfkQ/l8npNFTcn4yfDBM4Acbd1CRGSh6v25j1f+ac4FAqmxbskGVc04F7pg7Q2Rsrk/AgfAITo7GY9K4NeJoNa6hYjIghuc9MLY9OIjgNCJ1i2HS8Vfue6GunutO/KJA+AwRDtbp4vKoxDwYhlEVJ58zR9rt93+exmtL9pLp6vq8nU3jvuOdUe+8RyAw9C/oHudqG9X1cC6hYjIhNt37O6G6/5ieOxzq4vxtVAVT+8+pva71h0WeB2Aw5TuevXVLyWmbAcwx7qFiMiCiLjRsX1f0crtG8IfxcYIJGLddIBeD49gxjN/X7XHOsQCB0AWpH+16YUJbafsg8hF1i1ERFZ85dsNI7VP76zc0/wH0fB4657PpdgZuGB6z9K6sr3cMQdAlqS7Nm2Y0DalBoLzrVuIiMyEBuszdY/WhYem9LjRoyZb53wahe4T+BlPLa4v6WsafBEOgCxKd21aM2H+lBMAnG3dQkRkRUQrRsY9Pdm7zJMVg6cdB6DSuukTqho4p/N7Ftevs26xxpMAs2yic1cptNu6g4jI2kj9oxft/fKSN1VGXrNu+V++vfaGukesIwoBvw0wByavnllVvzuyGsBXrVuIiMwFVR9Ett22MRQc3WxcckvP4tqlxg0FgwMgR857sKU2MxTuEUiTdQsRkT31Y3Ze8Xjlrua/gkhF3p8d+Pm6xbVX5Pt5Cxk/AsiRDXMf2oOg6mvgzYOIiACIGzrm51/bd/yd/YB/O5/PrKqP+eGxf53P5ywGPAKQY00dc05QCT8lwCTrFiKighDUbR+79fa3nY/Ecv1UCn3eDw82r1923N5cP1ex4QDIg1gyPl598DggZ1i3EBEVBHWZ6vTf9VQMTpkJkVy9F20G0NyzuPbdHD1+UeMAyJMzV82prxgKPQyRor1eNhFRtlXumt5TtfOyqAjqsvrAii2uwjWvuT6SzurjlhAOgDyaloxXj3qfAnCxdQsRUaGQ4eM3jd12MwQVp2Tj8VTxhg+75vXfj2zPxuOVKg6APGte1xze+85R94rIN6xbiIgKhlbsjmy7uTc0cvxfHt7j4A8uHGpe8/2arVkqK1kcABYUEl3ZdqcA11mnEBEVDIVWfbDg8coPZ0wXkYO+zbpCt4V90PzkkiPezEVeqeEAMBTtaF0sIrdadxARFZLQ4Mm9NenrxwvcCQf6ZxS6A943r1tS/3ou20oJB4Cx6Mq2q0V1OSC8JgMR0X4S1L49duttb4kfN+2Lf7e+7QJtXrO0rpAuOVzwOAAKQLRzflzUPwCRgrlhBhFRARipfufaNeGPps6Qz/giSVXf9YIL1y8ex4uuHSQOgAIRXTHvInGyCpCIdQsRUSGp2HP++jF//NbpAjnyz35BsROiF/YsHveKUVpR4wAoINFk/BwEfrUIjrJuISIqJDJyzJaxW28dFFSdvv+nnlMffIOf+R86DoACM7Vj7ilOQk8I8GXrFiKiguLDe2t2LH02lDnh2aNPqr09lZDAOqmYcQAUoGgy3oAgeEJETrZuISIqHPohVL7e1961wbqkFHAAFKizkvFjwkHwKESi1i1ERNZUdYdTmdG7sOtl65ZSwW89K1AvJlI7K6tHpwPosW4hIrKkqpt9gPP55p9dPAJQ4CavnllVt7tmhUBarVuIiPJNFb3wlbP6F3W8Z91SangEoMBtmfVYZpILJQDcAYVa9xAR5dGTgyH3Vb755waPABSRps7W2VC5H4J66xYiolxSYOWgc5e+kkgNW7eUKh4BKCJ9C7ofhteoqr5o3UJElEN39286bSHf/HOLRwCKUPO9l43ZO2bPchG50rqFiCibVLG0v73rFuuOcsABUMSaVrZdqarLBTLGuoWI6HCoYlSg1/S1d99j3VIuOACKXCwZP8t73yXAJOsWIqJDocC74twlfYnUeuuWcsIBUALOXDWnPpwJ3ydAi3ULEdFBUTwXDrn5zyVSO6xTyg0HQKlQSLSz9XoAt4pIyDqHiOgLqf5kXyh0HU/2s8EBUGKina3TBdIJ4FjrFiKiT6PQIYH7dt+CX91r3VLOOABK0NQVLRNCUpGE4HzrFiKi/+Mt71zb84lUv3VIueN1AErQCwsfSkfGv3choHdatxARfUIVa6QyiPLNvzDwCECJi66YNx/ifiaCWusWIiprd0x07sZUIhVYh9DHOADKQFMyfrL6oEsgp1q3EFGZUd0FyJV97V3d1in05/gRQBnoS6Q2jwzXnKuqD1i3EFH5UMUaIDidb/6FiUcAykxsZVtCVZcDcrR1CxGVKMU+hV7fv6B7OYR3MS1UHABl6Iz75x1bUSk/FkirdQsRlRr9rai/tLf9wd9bl9Dn4wAoY9GVbe3wereIHGndQkTFTkdUsWxSKHQHT/QrDhwAZS6WjI/33v+UlxEmokOlipdcyH2zN5HircqLCAcAAQCaOlq/CcG/AnKEdQsRFQv1CvmXXeM+WrJl1mMZ6xo6OBwA9D+mrmiZEHIV9wC42LqFiAqbAm/Aucv6E6lnrFvo0HAA0P/T1NF6CUR+CGCCdQsRFRjVYYj8UGsyt/S3PLLPOocOHQcAfarzHmypHR6quEkV14ogbN1DRPYUuhYBvtO/qPtV6xY6fBwA9Lmiyfjp4oPlgFxg3UJEZtJQ/V5fe/dK6xDKHg4AOiDRzvmXCvSfwdsME5UNVYyK4K7KMSM3bZj70B7rHsouDgA6YGeumlMfHgrdJoKrAeFlpIlKmCp+I+Kv6Vuw6iXrFsoNDgA6aGcn41EX+LshmGbdQkTZpcC7ovoPfe3dv7BuodziAKBDFu2cHxf1t0NksnULER0uHQHwY3Whpf2J1C7rGso9DgA6LNGf/k0F6nZeLZClvMEQUTFSr5BfSqA39S3qfsO6hvKHA4Cy4pxfLBoXVAxeD8V3RaTauoeIvpgCq0LO3fi7ROoV6xbKPw4AyqppyfiXRoLgZhFczhMFiQqVPiFeFvcu7OqzLiE7HACUE02d806Dun+CYJZ1CxF9TKEbxIVu6Euk1lu3kD0OAMqppo6281SwRICZ1i1E5UpVX4Tqjf0LV/2ndQsVDg4AyoumznkxVbdEBLOtW4jKhapudk6W9ia6UhCodQ8VFg4AyqtYMn6WD/yNArRC+O+PKCdUt8LJsoni7kslUoF1DhUmvgCTidiKtlNVdDEEl/BkQaLsUOBdeNw+GHY/eSWRGrbuocLGAUCmYh1zT1K4GyBYCEiFdQ9RMVLVN6Hyo5HR6nsGLn3gI+seKg4cAFQQpq5omRCSir8F9CqIHGPdQ1QMFLpWvN7Vt/mMR7BsmbfuoeLCAUAFZfLqmVVH7Kpp94JrBTLVuoeo4Cj2qeAB53FX78Kul61zqHhxAFDBOruj7QIBrgN0roiErHuIjL0F1eUZP+Y/Ni5a8aF1DBU/DgAqeNFkvEECf41CvyUiR1r3EOWXPiVe7zoxHH6IZ/RTNnEAUNGYloxXj3iNi+rlAC7ktxFSqVLVQQF+Gaj86IWFXQPWPVSa+AJKRencjjknBhK6TBWXichE6x6ibFBgG1T/zVX5f+9tffB96x4qbRwAVNwUEu1saxboFRC0ARKxTiI6GKoYheiT8PqzSeHwKh7mp3zhAKCSMSUZH1ujPgHVywG5wLqH6LOph8p6QDulynfxq32ywAFAJSmajDfIqJ8Npy1QXAiRSusmKnMKVdH/ArTTuXCqN5F6xzqJyhsHAJW88x5sqc3sC80QkdkKuVgER1k3URlRPA9op4ZCK/sTqa3WOUSf4ACgshJPxkOvB/48EcyGaouInGzdRKVHoS8D6AwHWPnbRd2vWfcQfRoOACprsY65J3lxs6HSAuj5vOAQHTLVLRBZCfjOvgWrXrLOIfoiHABE+01Lxo8cVT8Lqi0KzBDIOOsmKlz7z97/nQBrvQv9+vlEqt+6iehgcAAQfYopyXhl9ehoszjXAmA2gEbrJjKmUAUGRLBWve+pqgl+s2HuQ3uss4gOFQcA0QGYuqLtDOd0JoBzRdEEkQbrJso9BV4T1R4VtxZBxbr+RR3vWTcRZQsHANEhOOP+ecdWhBGDuJgAMQiaABxr3UWHLa3AWqfaowjW9rX/ept1EFGucAAQZUk0GW8QH8QAxACJQTUKkTrrLvpsqngfousFbq0Gvqd/Ufer1k1E+cIBQJQrCol1zv0KJBzz0BigMVE5C4Ia67Rys/+Evc2iGFBgAKobRfwAv8KncsYBQJRH8WQ8tGXUn+pEP/7oABID9DReqTCr0lBsVMGACAac+o17XXjTK4nUsHUYUSHhACCy9oMfuHMmD0zwYdegDo3waBBBIxSNCjQAaBRBrXVmwVHsA/QliGxUjwEIBlxVsJHX1Sc6MBwAREXgzFVz6qsyrtFDGlTRCJEGqDaKoBGQBijGQ0rn/7NCdwskrdAdgKQFmlYvaXG6Q1wo7YEd/S9P2Y5ly7x1K1GxKpkXDKJyNiUZr6wORk5QlcaQSIMKGlXRICLHARpRlQhEawCJiGpk/22Tq/M6GlSHFZKBYKeophVIf/zmjh0KTQOSdgjSmZGxOwYufeCjvHURlSkOAKJypZDow1+vDoaqI1XBcMRrOOLDLoLA10B9xIVcRFUiqj4iQLWqjEJ0SJxk1OuQCD7+0UlGXWhI/Ggm8C4TlmBoNHCZSjcyNFTtMvV/qh9af/l9GQjU+q9MRERERERERERERERERERERFRq/hvNxTX+Ee22kgAAAABJRU5ErkJggg==;" parent="1" vertex="1">
                    <mxGeometry x="100.01" y="60" width="80" height="80" as="geometry"/>
                </mxCell>
                <mxCell id="82" value="" style="shape=image;verticalLabelPosition=bottom;labelBackgroundColor=#ffffff;verticalAlign=top;aspect=fixed;imageAspect=0;image=data:image/png,iVBORw0KGgoAAAANSUhEUgAAAgAAAAEACAYAAADFkM5nAAAoSElEQVR42u3de3hcVbk/8O+7ZpL0XqAgUrmUNpmkVCqSNpO0BQLtTBpq60EtF+WiRwUPCB5vyDkqN/1xUA96lINIRVEUEIooFJpm0kJAaTIJOUKxNJkEKbdyEUpLL2kys9f7+yNpaUsve889me/neeqD7dp7vXtnMvPOXmu9CyAiIiIiIiIiIiIiIiIiIiIiIiIiIiIiIiIiIiIiIiIiIiIiIiIiIiIiIiIiIiIiIiIiIiIiIiIiIiIiIiIiIiIiIiIiIiIiIiIiIiIiIiIiIiIiIiIiIiIiIiIiIiIiIiIiIiIiIiIiIiIiIiIiIiIiIiIiIiIiIiIiIiIiIiIiIiIiIiIiIiIiIiIiIiIiIiIiIiIiIiIiIiIiIiIiIiIiIiIiIiIiIiIiIiIiIiIiIiIiIiIiIiIiIiIiIiIiIiIiIiIiIiIiIiIiIiIiIiIiIiIiIiIiIiIiIiIiIiIiIiIiIiIiIiIiIiIiIiIiIiIiIiIiIiIiIiLKCMl1AHlHVXDdELgv10CHRJw7YxXRXIdBRETvGRofINm07OX7ACzOdRgHU7QDLxyxTo/PdRyuiP5yw3ePuzjXYRAR0XtMrgMgIiKi7GMCQEREVICYABARERUgJgBEREQFiAkAERFRAWICQEREVICYABARERUgJgBEREQFiAkAERFRAWICQEREVICYABARERUgJgBEREQFiAkAERFRAWICQEREVICYABARERUgJgBEREQFiAkAERFRAWICQEREVICYABARERUgJgBEREQFiAkAERFRAWICQEREVICYABARERUgJgBEREQFiAkAERFRAWICQEREVICYABARERUgJgBEREQFiAkAERFRAWICQEREVICYABARERUgJgBEREQFiAkAERFRAfLnOgCiXJtWWzumb1vJcX6jI2BQAos+a+07RSjevrZ9+RsANNcxEu3P9Onh0TtK7JE+NaOs0REioo7Y7T74exOHyms9DQ19uY4xWwIz5002xhyqio1dbZEXch1PvmMCQAVn6ozwhx0fFgKYA6Ay3osjjVFYAAP/A8AYxJFAIBjeJkCXAs+JotkRX2NPtOGVXF8DZVdpsP5on9jPuGnrqFnWE214LhNxHB+ce2Sx+E9TxamAngggsAP4IGDgAAAECkDUwMLCbIQtrw6/oornofI3QP9iS3xP9vyl4Z+5vqfpUlpfXyIbncuN4HJVHGsHbgMCwdCLgLm5aOu4m9euXdqf6zgDlbWHS1HJ5920FdWVndFIR6ZjYgJABWFSbe2Ikh3Fn1PFvznAiR4OHa3AyQBOVsH5Bg4CwXAHRG4bsV3vXrMmsi3X10aZZ9Qer9Ab3bT1ifMKgLQlAKWn1B8hcedcUZwPoErV0wMpo4pjARwL0dMBfM30OzYQrFsNxb1xSSx9IbrqjWzey3SadFLtIWaj8zCA2e+/LXIcoP8dH/Puv0yunPexf3Ss3JzLWK1/5AeMOq5eQ1bwFQAZTwA4B4CGOwlUhS8q7i3uVsXP4e3Df38qobpkx0i8XFYV/mZpfX1Jri+Shp/yGfPLA8G6O0y/86oofgagKk2nNoDOgejNRep7sTwY+nVFzbx0/F5kXXFx8T0AZh+4lc7x++WuXMeaj5gA0LA1ZVb4A4FguBGC3wA4OgNdHCqCH5qNzrrAzNDcXF8vDQ9TK+uOCgTDv1OffQ7QzwIoylhnghKFfM5a80x5dfiuKTPDx+T6+t0qqwp/DIL5Li90QSAYOjPXMecbJgA0LFXUzDvR5+ApAKEsdHc8jDQFqupuqqyszNybNQ13UlYdvtzx6zoA5yO778+iik/7DTrLqsLfBK7N+88GgV7g8QiP7Ye/vP8hE3lVWjPvo9aaxwBk89uMQPRrW/wTGqfV1B2W63tAQ0tF1dwJgWBo2eCj/vG5ikOBUSL4YSC4emXePw0Qme7xiI/kOuR8wwSAhpVAzRkfMtY8DGBCjkI4PW51dWmwPhNDDjQMVdTMO9GK72+ALMh1LLs53WfQHqipS9e8g0wYkeH2w15WVgG0vNN/0ZaE86+5vlg3Lo/+c1PXO/2P5zqOg1Fr+hIl/q5cx+GKkZez1JPA+u8EMDHHV1xu4Dw+ddaZZ6xbvfzFHMdCeay0an6NtfYRAIfmOpZ9OFKsPlZeHTqvq7XpoVwHsw8vAJjkurXIP3IdcL7JSgLQm3DOfGG7c2quL9YNf9zG0O8Ech3HwSTEWf/mCUWTch2HS1lJAMqCdZ8F9IxcXywAiOJl9Dk5X3tM+au0an6NEdsEYHSuY9kfBUZB5f7yYN3irmjjg7mOZ6/glkFwutvmonZZrkPONxwCoGGhtL6+RKDXJXl4lwK/BvR6EblKBd8B8HMATwDw+iGuUP3BUaP6563raHwt1/eF8lP5jPnlRvQh5PGH/26KFHpf2cxwXn2JKxrV/0sAr7ps/sqWxIhf5jrmfMNCQDQsyNuJT0DE66SlJljz7Vj7ivb9NSgN1o8TTZwnkG9CMOUg53vHCi7qiTYti+X6hlDemnRS7SHqs8sBHJ7iqRTAMwBWA/qcwLyigm0AoIrxIvZQKCoA+SiAIFJLNorF4IHSWfXBntUNz+f6HgLA2ubmraVV8xcbsREAYw7QdKuFXbyhY9n2XMecb5gA0LAg4m2JjwA/6opGvoWD1PnviTa8C+C2SbW1vy3eXnQtRK4cOPx9OkSxuCfK+uN0YMUlxb8AMDn5M0gMYm8rcoruXtu+/HU3RxxdUzNytB27QAUXQbEA+34NH8wE4zh/mDZt8ex8KK0LAD1tK1rKg/Nnqzi3Q2XmPpq0GWO/EGtZ+WyuY81HTABoyJtUWztCenGa2wKpCmmMRRsP+uG/u/XNzTsAXFVWFXpGRO7Ebr87qrhVJ/i+WkibrlByAsG6CwA9J8nDX1aVq7qPG3cvli51vBz4SktLL4D7AdxfXhWaocbcCNVkilfNiI/ZfC2A/8zundu/ruiKNQCCpVXzq43YWqgcDtG3rJrmnrYVreBmXvvFBICGPH+ff6oCo9y29xm9Hkm+KXS3Nd1TXhUepYLbAWwTwSWxaIRlRumgJlfOGw/ofydzrIr+onhE/Jtrm5u3oi21OLramp4CECqrDn9ZFD+E9+Vx36iomXdPZ359q9aethUtAFpyHchQwkmANOT51FfmofnmzpZZran019UW+RUg11j4qrpa+eFP7viLzDUAPuDxsH6BXtDd2vRva5ubt6YxHO1ujdwMa04FsNHbkdhkref5NpSHmADQkKeqh3ho/jpwrfXQfp9i0cbrM7XlKw0/5bNDE2FxqcfDdoiRj3dFm36fqbhi7SvaBeZ0KNxsD2wB/LLIJxWxaNPyjN4wygomADTkicDnofkHcx0vFR6N4woIvOwaaRVyfldL44pMx9YVXbEGYj8BIH6AZk9b2NmxaOTitS2N3p4YUN7iHAAa8lRlq4ch/fEVNeFZnS2R1bmOOxmBmjM+ZOA/zqqMgtUxMLJVrN0ksC90tq16O9fx7W3SSbWH+ItHTPUjMc6K+ETxZtzRN+3YxJuDEyuzSUqD9R8yao8XH0ZbR/1iZIfCeVUPLfpHpiZxTqxcOArSd4mngxTXd7c1/jFbNyYWXfnXQDD87wBu2euf3hXo1UeNjN/S3NycyFY8+ax8dmiiJnSyUYxOGFNsIL2+hL7eO6a/Jwev6ZQwAaChT/Calyl91uKnEysXnjYU1gVPqakr9VldDOB0ANWwGDswfqEDC7lUoSJQ+BAI1r2lwGoD+6ga5/5Yy6Nui6TsYWpl3VGOz37F1b0U/XNPdOUecyqmBkNlFvJFBRYCqAAs7ODDRhXA7xegtzgRCIafBnS5UXtXZ9uqjJROmFpZd1SiSD8lFmdCUAM44yGAWkAG75/AQDY6TiAYflpFVonF3bG2xmfSFcOYor6FUBzi4ZDW2HHjv5/qZD+vYtHIzwPB8FkA5g3+1b3i1691Pdm0wU3N8cDMeZMhcrGrznzym1hLpHNf/1QarD/aB1upYqcAMg5W95ikaIzvF52tK9YDkLJg3XWitvhg3Qmke2DujneBytrD4S/+BAQLoajRBCYAAiuAUQBQOD6guLfYBoLhv0OwSoF7u1sj0XT9bDKFCQANfRJfB/X0Up4x1te3fMqs8NnPr468mevw93VF5dWhharyDVidA9drtvVwARYpZBGs/8flwfBKtfrDWHvTKi+dOz58ACLfctPWJ/IigFYAmDIzfIzfhxsdxXkuYvYDmAHIDCu+75QHw39Sa6+Mta9MS732imC40op8y1E9SxR+F3fQB6BSVCshuDIQDD9hjV7d09KU+r4gA/fDLWtFLvO6zC9dfNBLHcgfFfh6dzTS5OVY4/Mfa9W6et2oI38BsCsBqKysLNrin/A5ABcDTuXA5+rgD012/+HJW74tY68GgPJgXa1Cv7vnv++nP6AJgKcEoDRYf4JB4iqonA2gxMWXDANgOhTTBfhqoDrUDsg1sdZIg/efRHYwAaAhL9by6KuBYPgFAMe7PUYFp/kcWRuorvvPoi3jfpsvhU0CNXVVsHqLKmakeCqjQBhGwmXBULPCf1kmJy0GqkJnQfBr9fZNd/dYPwljziwL1l3WHW28I9k4Sk+pP8L0Oz+2wGegmkyxm51ONVYeC1SH7ywa0f/leJLPio6uqRkJB/M9lN25r6e18f9SiDsl66JN3RjYNtfzMllN8n5XBMOVW4C7AJQftA/grp2/qwr7ueTqGR3Y5Mp544v85gcK5wuA+JLuYqAw0fLyYPiPfiMX96U89Tj9OAmQhgfFw0kcdDhUlyTGbu4urwpdOW3mmTmbIFhbW+sPVIVuhNUWIOUP/z0IpNbA+VugKvxVZOAdMxAMXwqR+4GkPvx3N1Kgvw4E665O5uDSYChs+p1nAZyfpusUKC6K9xa3KmxS2zuPwJgqL5P/DJBUnYA0y1rhnNLq8EKreBIuPvwBQBR3AIMluiGfTHc8FTXhWUVFZo0ClwCeJhfvlwKfjFt9ygfrZblyVjABoGHBZ7EESb5xqeJYFflB3CReCgTDj5RVhz574pwFWdue9cQ5Cw7d0Fv86OBj90z9ThZD8ONAMHz3tGmLDzpm6pYqPgHg5vTGrdcFgmF3Y8mDyqpClxjIIwCOTF8cu0wTkaTGj30WXjbQWdMZjXRkIP68VBqcV20U97tOkFT+tnNuhhF7jpfiX24EguFzrcUqVRybgcs9XqH3ZOC8KWECQMPCuqcifx/8FpqKIgBnisodffH464Fg6OFAVfiigQpumXF8cO6ROxLxJwCckqVbdW58zOY/pTEJmIfMvI/8NFATrnDTMBAMXSYityKzQ5ojkzlIRT7qvi3uy2D8medhCMDAjjKQPwBw/TpUo+8NDVn9bDpDL6sKnQfg9/BeFdGLpF5DmcQEgIYNx9Gvw2tVs/0rBmQBBL/x+8wb5VXhhwLV4XNK6+u9rOU+oNJg/bgi9TeI4sNZvlVnxsduXoL9PCZXtekfWPVuBCx+drBG5dWhRYDcjEwMBqeDotRtU5/gsVyHmy0q8nVAjnN/APp81rkbAAI14QoIZqUrlkBV3Ski8luk6ZH/UMJJgDRsPN8eeTkQDF0AyINI52tbUKLAQigWmo32rUAw9FtY/XmKM9ZFYH8HUdffENNKcVEgGGqPRZtuSf1kGRM6UM2Giur5k6zaO5GvH/4D89enuByXchKH+FJ6/D+4yc+V2b5IW2Qu6/lLg5tKgrsLempt5KHO1sE6F45+1s3MfzdKT6k/Av3OfRh4+ldwmADQsBKLNi0PVIfPh+JOeHi86J4eDsjXYeSKQHX4TgPz/cE1yZ4MbMSii3J7t+RHFVVzmzK0Bn8rgH9i4JHq4UjyDdZaXAJgnwmAVftzABkbnklVabB+rMJxN06tWJ9yISKDiVBdnO3r9Mf1SgD/VFVJ1wfz+++P/Q0wMFl2Q6+3rb8PxPQnbgKkYKuDcgiAhp1Ya+RetQgB+mIGuymC4vNWbVd5MPTd2tpa18l0abD+aFHc4Kk3RR9Elqrqp0UxuX9k/8hYNCJFI/vHCsxHAFwCkVXwNhFypDW+m9J4T+IQ/V+1+tFYNDI2Fo1MjkUjE7ebLeON2vlQJFPWdp9715dV1S0AUJ9knJsVuF+gVwO4bOCPXg/gQQC96boZRQk72nVjwYZ09TsMbYgde0gjALy6vaQOwMR0nLQ0OK8aSDqZ2KaQhwC5BtAvi+BSCK6DyFIMJL9DAp8A0LDU3R55onz2ohPV6b0BKpcig7PrFXL9ht7iRYGa8AX7q262O4PEDYCMcduBAH80fv/X161e/r6EZnCHuDWDf5YM1hG4DcBJrk6u+Fh5dWh2V2vTk6ndBnlLRT/W3dr0vupng3vRNwJoLKsKXSIit8D9eOuE0mD91L1rGIjod5IIcr2KXjcuvvGujo6Ofda9nz49PHrHCFwMwXcBpLYSxG/HeBidGDIfGhnWC+ibULMRohYAFPjDzsJIIrYKkPeGShQf9rjHwi5GzLeTWDf0GoDv28N8v9rfE5tJtbUjinuLLwTwPXjf/TGrmADQsNX15ENbAFweqKq7HaJXAViMzE30mQGLlorq+Wd1tq5o3l+j8qrw8QrXleEsoFd0eRinj7U0th1dUzNrtDP2XhUsdHOMKr4GIJUEwAGcs7pbVx609Gl3W9Nt5VXhY1TwbbcnN3DmANiVAJRXhWYoUO0xxjv7R/ZfcrBa7WvWRLYB+MmUWeG7fA4ehPd+dlG1AnH3clPIkH0aK2agIC58RqBJrcSNq+iv1PruPHrUjvYD7TkQizZdA+Canf8/UBXuATDFa4flVeHjVbHA42F/Fv+ICwffV/Zr8DW2ZNJJtfcVlxTfByCU7L3NtCH7oiNyK9bW+EwsGjnPMVIB6E0AXs9QV4dYtQ8PPFrcN2vkS3CdeOsVyUzSe6WlpbdvVP/ZAJ5yd4QsKj2l/ogUrvu2WHTlX902dib4vudy+9mBuwA5Yc9wPT62FbkhFo1c5GWjludXR97cmiiZCyQ/M1+LjOtv9QK4Hy7IM/1IpDJs8qY1Ntjd2vRvPW0rWrK24ZCop2JRqrg1Fo184mAf/rtb/3TzprGJtxdgYGgpLzEBoILxfEtjTyza9I2JI/uPUZWPAbgTwDtp7ma0gXlgyqzw+x/9LV7sE9XPuDqL6n2pzNBf39y8wxj7rwDc1JT3m37nrCS7Uhjc7OWAnoaGPhW52217gT1szw7hevKkAvfHWhuTGS7Aho5l2x0fzgWSG593En4Pj/X1Q8n0kQ9Gb8W2JA91RHVBT8vKv2U7ZoV4mYC78kOj+q9AEoXGOjo64ha+CxXozvY1usEEgApOc3Nzorut8ZFYNHLR2MTbR1ponSpuBfBKmro4yufgp3v/ZfmLmz4K4OBv9Io+R+UbqQbR2bLyWQH+7KqxyDxX7d5/YLebeQ97M1DXTwwA7EoAps468zgAk1wet9mnzpeQQmnb51dH3hRBUkvreqIN7wJ412XzY9NZYyKL4mvWRLYD3vcCUMWSrrYml0+p0mewsJe75beKvkTCfj6VJxM90YZ3jZErsn2dbnAOABW0wclgkcE/l1UEwydb6CIAn8Lej569OScwc/6PY+0r2nf+hRWpdfsO6TNoDgTDKV+fQsa5+vxTnb3rP/0q4roWkLa6bLgHx8q6nUPHB+9Cdk3Gs05ipoeL/0ln2+Da8RR0HTP+D2Uvbb5GgGRquXcDqHTRzud7JzEDqc3FyIUXkWwJbiO35yLgIr/vZIW6nQu05B8dK19Ktc+ulsYVgepQ++AGQXmDTwCI3qOd0UhHLNp0TSzaNM0AM6ByOxTJrM8WGLtn1q8uZ+YPzGqenJ4/erjLeCdOOqn2EO8XiaTeHI0/vslDJ7u+qKiXD2G1v0smtvdZutSRgeVdSRDXNRYs5PS0xJtFAiRbDOvlXO16qOK+OiPUpOc1NOAPubjeA+ETAKL9GNyY5YuBmjOuhfXfBOAcj6c4q7S+vmTnciExGkBKO9Rmln9EyWQAnt6UFbIpmb6KUNQbT+6Lo8stnyWWYqXGPRhIk4X+p9fjBDaqEFerPkSxGMD3kw7SYgNMsonKbhQfATTgrsv3VmcoVMT1vDpdk3KcSV+funsNKf4Za6/uQFLlK97PiDbZPPv9ZwJAdBCxlkdfBXBueVW4SQVL4P7J2WjfRjsLgzPJBXJk1vZZTYKoTvB8jOj2LIc5zl0zfT6dnVrp74Z6f7t0xPzFuF8aN70iGK5MdkfAwfH0s1O91kAw3O62rVFd7bbtHtR0pRpn8lwOiwleAK616ep1K7b1jMLY3F32PnAIgMilrrbIr1Tgda/6j+z8D1W4Lv6TCwIdAvXQ1eU91LfS2evY/s1vIomx7p5jxj0DDxtUWSDlyZ+pKJ8xvxzADNcHFCU5Z0GwOWcXKW5fQ0jra2iwIJbbSaFZwQSAyINe2fJjAG+4ba/wMN6YY6J4M9cxpPFq0prM7Bg7tgTJbDo0UMHujx6OOLsiGHYzaTAj1G8v8dB8TdeTTbuWSPq9rAIQm7PKh6Lq9lt9JhLiDOxPkjwmAEQevNLS0iuKNvdH6K7NakRY7jV14uoeym5LB9NhR19J0hvGiHqa/GUscIuXvSXSZeqsM4+DxaWurwt6f7J9KSSe7LGpUnX3GkKaX0MnzllwKAY2x8obTABo2DpxzoJDA9XhH1dWVqY1k1fBa+4b666MX6GunxzQvgmwyU07VXwUuDZt728+1aS/lXcdN/5xAD0eDgm+2lvidagpZY6TuNFDXX3VdEw4zAEV1xNXTzi6pmZkuvrtSyRy9mRnfzgJkIal8uD86X398QcgmPJu0YSNSGV29V5EcZTbh50qu33bUNMDqJt1wK8hjbvSub4un6a2HW0WWKDH1a0XHBGY2VoZa4frCW0HpDI/6XpCS5c6CIZ/AsB1ZUeBfjsQDD8Xi0aysnQsUF33Raie6+GQlXsXgFKfT2DzeZrrAFH0uBzMGTka405DupYBqJ2fzChSJjEBoGGnvDr8GahdAsEoABDF1eVV4dVdbZFHUz33wH7kmOW2vdmtjKwInlF1tRHQzbFo5L9ycvPynaLT9XuocS4HcGGqXZaeUn8E+p1PpXKOrYmS34zx910D97vDGSh+E6gK9cXamv6U6jUcSEVNeJZ19GYvn02q8lP3rfOMD51wOQtArV6ONCQA06eHR+9QXJhnn/8cAqDho7Kysqg8GP6pKn6vGPjwH1SkgqWBqrqPJH3yQa9tLzoLgIflcrpruZOI/sXdMfLZdI0BV9SEZ5VXh7zUPQfUl2dvU+/xwWkB3L59y6crauadmGqfpj/xLSC1FRwbOpZth4i3PQkEJRBZWlYdzlgZ2YqqeXXWotHTlrqi7d1tjcszFVOmFb077mkB3C5fPTNQVXdKqn3uGIkrIEhlw62MYAJAw8LUyrqjtvgPf1SB/b1ZHgbR5rKZ4VOT7ePEOQsOVZEbvRwj4ttV8/6DJf1t7nbB08Cr20u+kOo9mVZbO8Za/EpVHgwEQw+Xzqr3vG1qvhks7eu2iIzPWnPfYO33pARmhuYC8u/piD12zLhfQ8Xrxjc+Ufw0EAz9cWpl3VHpiAMAsHixrzwY+ooV8xA8JjdW8E3sYzzE614AubJ27dJ+AO73ohC96/jg3COT7a+8KjQD+t4WxvmECQANeeXVodmOX58CdM5Bmh4iBqsCVeFrpk1b7Gk5zqSTag/ZEe9/AAMldt3q7GxdsX7n/2lubk4o4GrmtIj+dypPLGpra/3x3uLfAagYPOMC4zh/DwRD16VzYlNOqHqZfFbh95s/Dc7A9iQwc/5MiNwDwG3d+ANbutQxol8E0O/9YPmE49fOQDD8H6XBepfFkPatrDocDLy8qUUh/wOvy9JElva0ND2elvuRQyqeXkPHFIlZNm3mmZ5XgpQG609QkQc8PWHJIiYANKQFquq+rCqPAZjo8hA/BNfGx2zuKq8Kf35abe3Bvv1IeXVoUXFx8VMCqfUSm0Dft+Wtz2dvhbvZZKMhGikNzqv2ek/KZy8au6G3+H4A/7LXP40A5OpRduxaz8MCecSK/0642+Z4p9N3xOPRwMz5bjdikUBV+CIY+1i6H9t2RiMdqkhqe2IMVEG8wcB5qaw6dGvZzPCpboeKptXUHRaoqrswEAy3iqI1yU1p3kC8z/UywXxm1X8f4GEbY5WZcZNor6ieX+v2kLJg3ScNnL8COCbX17s/nARIQ1JpfX2J2Zj4JaAXJHmKSSq4PdFb/LNAMNwE1TYButWYdwAtgpUjVHCyAPWqGkhi8k5vP+ySvf+ys2Xls4FgaDkgC1yc4wMG5vGy6rr/ie/o+6/1TzdvOuh9qQ4v1PiOn0BwoMf9xw8OCzxiff6v9KxuSGvZ3EzriTa8EgiG7wFwvttjBCiDsdFAdfjPxtrbdoxKPL6+uXnH7m0mV84b7/P5FojoFQCCmYq/u23WTWXBljkysOtkMsaLypdg8KUNvcVbA9V1Uah2qWK9CDZD0Seih1iYCSI6Eao1catT4b5Q/75YVfl8d0fz/qvjqUq+zXLfn55ow7uB6vASKL7q4bCjrdrHyoJ1jSp6y6jteHTNmsgeScT06eHRfSNRr8ClgOb95k5MAGhI6mlo6A8E65wUtnoHAAxOFvw4RD6uALCzbrtoam9lKre+0LZqn+v+LfxXGjhhuKs0ViyqVxaXFF8RCIYfVJVmFedpn5o3iouLNiWsjrOOMxmwcxQ4F4oT3AcuC4zjzK2omvuRzrZVrnetywdGne9Z8Z3j8h7uumAozrJiziruLe4NBMPdCt1oVEQFH8TA7olZKId8rd2WWHjeGH/fYwCqUjzZGKjOBTBXdv7cBVAIBDr465GWD+XvdLc1PpL5e5M9RY7/h3GT+CI8zoEQaJ0o6naMQF8gGI6JYqMVVYEcuUMxGcjPx/37wiEAGqo0duy4L4i3MqvZ8poVc93+/rEn2vAcgJs8nnMEgHNE9FYD06KCf/TF4xsdJ7FeoY8q5HpATvAaqAgeGGof/gDQ2bYqJsAPUjjFSADTBVKrgtMAlCMzpV/3aUPHsu2ODwtV8Pds9Zksgd4xHJelrm1f/roKPO/wuMvAuP6JKjhtcHhwar6O9e9PVp4A/M+Kd6MvvRXPuypI+zJ/xlj/2aXj3Y8N5Yjfh+JvP79tXq7jcMe8mpHTLl3q+Kct/nR8zKbbAUl2KCDdLEQu7GltOOCmH2MTb1+9xT/hDKT+DTAV6/0il+ew/5Q4h/m+bzY69QCGxHvL3p5fHXlzWk3daXHVRwB4nuuRFYJfdbXOvhhoOmhTVSMi+V8IaHfdrbNuCQRXLwIwRN5L0ysrCcBT6/v6oBgSS5BGiO/tD47zj851HAczzm+KsPDQVbmOI9cGl/RcFAiGXwVwVa7jUcVV3dHGlQdr19HRES+fHTpLE/IkgEk5CHWThW/B2pYG1zvV5Zuehoa+KTPDZ/kM2gEkvUwrl9a2NG6cVlsb6u8tvkOAlIoNpZ/eFGtt+iYQGVqf6p5ca43OPdeKrw3eVvgMCxwCoOFAY9HIf4jq2XBZKz4jRG7obov8yG3zriebNhh16gC8nOVIN0Nl0eBQxJD2fHvkZWNsyF19hfy0trl5a3c0slgFX0FSSwTTS4DtqvKZWLTpG0h1ks0Q0Nm26m0jZq4IXsp1LNnGBICGja62pqU+n/8khTZnues4VC6PtTZ+2+uBnW2rYo7FbADPZinWVwXm1Fhb436rEnra1jUPdLasfFaNPQ2KTK1m6FeRH2b6OrpbIz+zVk4G8ESm+9o/+asaVHa3Nd7t/dih9brZXWfrivXG+E8F8EyGunAgckOur3NvTABoWFm3evmL3dGm0wVYDOCFTPenQLcKTom1Nf5vsud4vj3y8nazJQjgl8jgNy5RLCuy/hld0RVuK+kNGd2tK9cZOEFAH0jzqd+B1TNVbFZK3/a0N66NRSO1MrC81csOgql6DcAlsWjjqXtv8lMo1q1e/mLRyP45Ar0jzafeBtXFVs1dub7GvTEBoGGpKxq53x7mm4qBymtPp78HeUtUv6WH+U7sbo1EUz3bKy0tvbFo5GK1qE1/vPoiVC7qaossWtu+/PX034v80Nm26u1YtOmTInIOgPUpn1BklRFzcqy9KdtzbbQr2vT72LHjK1T10wCeymBfLwv037ebLVNi0cgSFMAj/wNZ29y8tSva9K9ipB7AujScslXFzsz0hk7JYh0AGrZ6Ghr6ANwO4Pby6tBstXKOCuYLUJbkKS2AFlX5/Tan+M4NHcvcbijiWnd75AkAJ5dVhRfIwJjw6Ui+FO3TEL2laMshdw5OliwIXa2N95XW1z9o3klcAJUrAHjdEKhNRP9fV2vkoZxeyNKlTjdwD4B7yqrnTTXWfMYafFwU05Da4v63ATRA5Lex1ppHgWtdbq50YGow1BYB7FdXS+OK2trala/tKD5HFVfA+2qdNap6Y3fb7HvTdX8zgQkAFYSu1qYnATwJAFNq6kr91larmKlQWwHIZAyUWR2DgfX2BopeCN4CsF6BLhG0+uLyxLqOxteyEK52t0UeBvDw1Mq6oxI+u8gYOVUtghAch/3/3r4AwdMCiRq1D6yLNnUn03lRUdE/+vv7z3bT1vH5/y+pK3x33FYZvclVH6rwvFJh9+Rv6ozwhx0fFgI4BcCHARyNPT9AXwXwHFSbfVYeWvdU5P1r8/3+56Qv4SreeEJTfiK0t+7WlesAfAfAd0pPqT/C1++cpkClAGU6kNAeDWAs9qxl0AtgM4AYVGIiWGutbe5un73mvQ+lxrTF6PNpB+Jw97oxxuumSPtmcLlYPWghH6vyhpvT7a65uTkB4C4Ad00NhsoSkI8bxakqOh2QY7DnE/Q3ADwHxeNG8HBnNNIx8Nd7LJ98ZXCi8sHvZUaeWr5fViZtTPzeS5dBkfQYaTZ97oxxbx97jN/Ddq+5Mc5v+s/70KghVXSCUldZWVm0veTIiYl4/FAj8ItP++IJs2l0HzbuXZaU9m3atMXFGPfuGOPz6wT/ti2Db/TDwrRpi4vNodtHP/vXmZvz+ZvnUFdbW+t/OzF6rHUSMqL/rS0dHR3xXMeUDCYAe2ECQEREhYCTAImIiAoQEwAiIqICxASAiIioADEBICIiKkBMAIiIiAoQEwAiIqICxASAiIioADEBICIiKkBMAIiIiAoQEwAiIqICxASAiIioADEBICIiKkBMAIiIiAoQEwAiIqICxASAiIioADEBICIiKkBMAIiIiAoQEwAiIqICxASAiIioADEBICIiKkBMAIiIiAoQEwAiIqICxASAiIioADEBICIiKkBMAIiIiAoQEwAiIqICxASAiIioADEBICIiKkBMAIiIiAoQEwAiIqICxASAiIioADEBICIiKkD+rPSi0FxfqGuOfWNCsS879yUFIww25joGIiIauiRrPV2rQ+Npw7Vicx0CERERERERERERERERERERERERERERERERERERERERERERERERERERERERERERERERERERERERERERERERERERERERERERERERERERERERERERERERERERERERERERERERERERERERERERERERERERERERERERERERERERERERERERERERERERERERERERERERERERERERERERERERERERERERERERERERERERERERERERERERERERERERERERERERERERERERERERERERERERERERERERERERERERERERERERERERERERERERERERERERERERERERERERERER0RD1/wFjgGC8V0EOJQAAAABJRU5ErkJggg==;" parent="1" vertex="1">
                    <mxGeometry x="914" y="30" width="166" height="83" as="geometry"/>
                </mxCell>
                <mxCell id="83" value="" style="shape=image;verticalLabelPosition=bottom;labelBackgroundColor=#ffffff;verticalAlign=top;aspect=fixed;imageAspect=0;image=data:image/png,iVBORw0KGgoAAAANSUhEUgAAAgAAAAIACAYAAAD0eNT6AAAABHNCSVQICAgIfAhkiAAAAAlwSFlzAAAWIQAAFiEBtq+j4gAAABl0RVh0U29mdHdhcmUAQWRvYmUgSW1hZ2VSZWFkeXHJZTwAACAASURBVHic7d1/chvX1ebx5zYgUYplE1qBkBUIqvyyY+cV+CYZ2W+SEbwCQSswvQLBKzC1AoErEJlkRnG9mSJYsSMrVgrgbMDgCkDEzsgkgT7zR5MU9YMiSDRwu29/P1Wu2LJEnqIZ3qfPPfe2BAAAAAAAAAAAAAAAAAAAAAAAAAAAAAAAAAAAAAAAAAAAAAAAAAAAAAAAAAAAAAAAAAAAAAAAAAAAAAAAAAAAAAAAAAAAAAAAAAAAAAAAAAAAAAAAAAAAAAAAAAAAAAAAAAAAAAAAAAAAAAAAAAAAAAAAAAAAAAAAAAAAAAAAAAAAAAAAAAAAAAAAAAAAAAAAAAAAAAAAAAAAAAAAAAAAAAAAAAAAAAAAAAAAAAAAAAAAAAAAAAAAAAAAAAAAAAAAAAAAAAAAAAAAAAAAAAAAAAAAAAAAAAAAAAAAAAAAAAAAAAAAACATnO8CACCTulaRVFNJFVlckySZapIqR7/HuZtv/iA2lKl37Bf6cupLkuKoI0m64TpplQycBQEAALpWV6SaLK5KqsmpJrnF+RVwFBR6clFPsXq64Xqn/jFgCgQAAMXStYpKqiuO65Lqcu6675JOZLYpp47iqEOnAGkjAAAIX9fqcnFDWV/wT2O2KRetKVaHDgGmRQAAEKb/aw3FcUNOjfm28+fFtmVak0VtwgDOgwAAIBxdq8nFy+Eu+ic5CgMruuH6vqtBPhAAAORb1yqK1JTiZcld812Od8k2QVvXXdt3KUHrWi3vnRcCAIB86lpVLm5JRXvan5QNZVqRojZdgRQl8yTtg27Liu9ypkEAAJAvyQ/glnTaGXw8Z6uyqEUQmEISOFckd1uSZO7Hef96EgAA5AMLfwoIAmfWtYoUt+TcJ89/0bZUK9X8FZUOAgCAbGPhnwGCwKmShX9ZTsuvbDGZu6sb+Z+xIAAAyKajPX53x3cpwTK7L0Ut3XA7vkvJlK4tH3zvvX62xNzVEL5mBAAA2XL05OXu+S6lGGx40A3I9UBbKrrWPFj433CaxFZVKzXnVNFMEQAAZEfXGgeDVhznmzvbkkXNvB9tO5eJFv4D5pZCuZaZAADAv65V5OK2pNu+Syk8UzG2BY46TdacPHDalmrl3A//HSIAAPCru9+Qc23O8meJbcusqRsXOr4rSd3zhf/V4b7TmN3VjXJ7NoXNHwHgUHe/HuQ3O5BVPPVnn+kz3Si1fJeRiucXR51zqNSGqpUraZbkW+S7gEzoWlXOrak7bvkuBSiErtXkxj2x+Geb0z31Rj11req7lHPr7jfUG3Xk4m917sVfkoU3JEkHQJK647aOvjHCavEAmdMdLUvuc99l4CxsKFlTNy6s+a5kIl2rSnFTOsv+/pvYUCpVQ5uLIAB0rSbF3ee/YEOpVC/kJCwwS8nea1s89efZfd0oLfsu4kTd/YYUNZX+91g4WyHHEAC6o86rN4yFmfYAb7pWlcZrkrvuuxRMyzalUiMzPx+Tp/1lyRqzOT4a7npQ7ADQ3a9L0cbr/6VtHXQCgvuPDsxV12rSuMOUf0hsSyr5uzMgCZQNSc05hMogn/6lwgeA1z39v2BdN0qNeZUDBKc7akruge8yMAtz3i7tWiVZ9F1Dc9tGCvfpXypyAHhl7/9Eq7pRas64GiA8LP4FYENJyzMbnH7+pN/w8zKosIfCCxwAjk/+n8Y+1Y1ycEdAgJnpjlckfXLq70MgUlwok4ezxsGevseZEdvSjXBu/XudYgaAZGjk27P9obCTIJCaM4VrhOOcPyOTp/y65OoHi35GZkXipdAvhyv7LsCP+BzHWNwDdfd3cnMOFvCBxb/A3AN1Rzo1BHStKo1qUlRPFvz42vNn0cw8k66GvvhLGfpqz1V3tHO+lMkdAcCJWPwh6ZVOQHIKpC65mmT17L/pMezBv+OKFwC6o6ZsmsEkG8oRAoAX/HO8IseePw6YViWryvkY3JuSiz8uSqe3eAHgn6PO9N+UNpQr1XTD9VOpCcizqUM1kBGmdf2kOEe/ixUAulaVnXX47wRmW4q4KAgFx+KPYNhQrhit/0PFehtgHDdT+1jOXVc87iSXUwAF1LUaiz+C4axZpMVfKloAcNZM9+MRAlBQXavKxh3fZQCpMN0vyr7/ccUJAF2rzWT6lBCAoulaRfF4LTvntYEpmG0pilq+y/ChOAEgzfb/ywgBKJI4XpHjrX4IgQ0VlQrX+j9UnAAgq8/0wxMCUARPR8tynPVHIJJ9/8Ie6S7GKYA0p/9Pw+kAhKprNdlEL9ACss/0mX4S5mt+J1WMDsB4PL9znXQCEKKuVWTjwg1JIVCm1aIv/lJR3gXgVJdsnp/vMATQCUAY4nFbTtfm+v8jYBZMW4pK53gfTHiK0QFwM97/f+3nFJ0AhKG735DTbd9lAFNLFn8ezA6EPwPQ3a0pLvnbtzRtqcQ3HHKqaxXFoz5H/pB/NlRU5gr3Y8LvAIxLda+f3+m6xnQCkFPjcZvFH/lnQ0VxncX/ReEHAKnuu4BkO2DUV3e35rsUYGLf7Ndp/SP/Dhf/BX/H/b7Zr+vpqOnt85+gAAHAMrLoukXFUYcQgFzoWkVObd9lANPxvPg/HTX1dNRT5DZUGmfuvoGwTwEkV5amf/3vuR2EgG/2G/rZhY7vaoATxaNluRlcnQ3MjafFv2tVxaNlSU1JB9tn9pnXDsQJwh4C/Ga/rsht+C7jtUx39dNy23cZwCuSH2A99v6RW2bbKsWNuS66SYv/1RMzpi39tJzJzm/YHYAoA/v/J3F6oKcjEQKQOfGoxeKP3DJtqVSez8mr7m5NcdTUC0/7LxQzVKk8v4vozijsACBVfRfwRk4P9M/9un5yoem7FEBS0jWT465/5JNpU6VSY6aLf9eqye2ytqz4lG0yc8tZPnkQdgAwV83+Joe7o3/uS1F5mbsC4J1zLd8lAOdjq/rpjB6mjhZ9NRWPryfryimLi2k96x3ezC+PU/nn/k5uWplcGATfsjwzA7zJLGaquru1g3tkmnI62+uvzbZVKtey/vM87ADwdJSvi8vNthXHDf0ie9OiKICno46km77LACZnQ43jemo/M5/uN2SqS2pMdQpmPL6Rh5/j4QaAJ7s1lTxeAXxuNpTU1E8v8OY1zM83+3U5nv6RK9Pv9yfrRF3JhXFpXXr1qX5aXknpY81UuDMAUZTTq3fdoqSHejrKzTcRAuAcb0dDfph9pp9daJ35z72w4Ft9BlvE63n6uR1uAHCu6ruEKX2up/s1lRgOxIwlA05c+YvsO8s2adcqGo1qkupyrvbqgp9yA9y0pXKpme4Hna1wA4BZVS7vOxzujkbjmrrGcCBmZzxqhbwbiECY3Ve53Hrtz8IXFntVZa6m8fj6i2vALL/Hbag4bupGOVc/p8MNAKFwuq7xqM/1wZiJrlU0HmX2ohJApi3JlvWzC8lbVZN5lZrMKnKuLllN4/HiC4v9/PNsMw9Dfy8jAOSCW5TTBnMBSN143MjNUVkUkA3l3I7kWno6uqnxWEcL/dGC77l7lcwj5HJoO9y+X7BHmmyVuQCk5ptR78xnnAEcmOHlQ3NQgNcBh8bd0Wjc0RNeK4wpPdmtsfgD55S8cyDXp2cIAHnkdF2lqHPw9ingfKKo6bsEIJ9sqHL+b24lAOSWW5T0QE/32+paTu88gFdOTd8lAPlzcPtgzhd/KeQhwHxdAjyFg6OCT3ZzOYUKT57uN2QM/wFn5vI58f864QaA4iQASbou5zr6x15LP7/IKQGcLrZGwCPAwGzE8V39YiGXE/+vwxZAKJxblHOf6x97a2wJYAKc/QfO5jP9YqHtu4g0EQBC49xt7e/39c1+3XcpyKgnuzU52v/AxMxWz/XugYwjAIQo+eG+oW/2V+gG4BVRxNM/MCmzVf38YtN3GbNAAAjbJ9rf73FnAF5CAAAmYbYe6uIvhR0AgpjSnJpz1xRFXX2z3/JdCjIg6Qhx+Q9wui1dyO8tf5MIOQDk/oxmyu7pG7oBhTce1X2XAOTAlsrlIM76v0nIAQCvuk43oOBMdd8lABlXiMVfCjkAxHHfdwkZdk//2OOkQDHRAQJOVpjFXwr5bYDf7Ndl2vBdRuaZ7utiuVWUb/jC+8d+oW7IAs5gSxeKs/hLIXcAMBmnT7S339fX+0yGh475D+AkhVv8pZADwM8udHyXkBvOLSrSQz3Z7+jxs6rvcjAzBADgVYVc/KWQA4AkmQ19l5ArTjdVKn+rJ/stLhAKUUQAAF5gq/r5hVoRF38p9AAgx10A5+F0T3v7PbYFgkMAAI6Ee8PfpMIOAM76vkvILeeusS0QGiMAAJJY/BNhBwBzfd8l5N7zbQHeK5B3vAAIkCy+y+KfCDsAROr4LiEYh6cF/rG37LsUnAN3PgDJ4h/YK32nEXYAKJeZAUiTc4uS+1xP9vp6stv0XQ4ATMRsKItvsPi/KOwAcMPtyGzbdxnBce6aXPRAT/Y7PFnmRMwVwCisLcnq+sUCD4QvCTsAJPiPPitON2Xa0JP9DpfMAMgc06YulFn8T1D2XcDMmTqSbvsuI3A3pairr/dWZeOW3rvc910QXmJWDfnmb+AVZqt6l2G/Nwm/A2DcBTA3zt1RVP5WX++1OTqYNa7quQBgjuK7LP6nCz8AvMeVwHNHEADgg9lQYthvUuEHAEmSrfuuoJAIAgDmxbSphQtV9vsnF/4MgJTMAThjDsAXpztypTvJjIBr05XxwHGJE0Jmn+ndhZbvKvKmGFNBj59VFZW+9V0GDphtyqIWQWCOnuyZ7xKA1JkNJWvq3UtrvkvJo2IEAEl6steXdM13GXjBtmQt9uvmgACA0JhtauFio6hv8ktDQWYAJMlIiNlzTXIPDm4W5BXEACa1pXcX6iz+0ylQAFDbdwE40TXJ3dPe/kBf77W5VAjAG5mx8KegOFsAEtsAeWK2Kac22wMpYQsAITEb6t0FOoZTKlYA+Hp3RXKf+C4DZ2A2lLQixW1uGJzC1wQABObdi8Vav2agWF/Ax8+qcpwGyC3TumRreo+uwJkRABAaAsDUivcFfLzXk9N132VgCmZDObUPtgi49GMSX+92JHfTdxlAaggAUyvSEOABW/FdAabk3KLkPpG5rh7v9fT13jInCADgbIoXAC5dXDvYV0YIkm7O59rdH+jx3poe7zYJAwBwuuIFgBtuR3LcCRAip9ty7sFBGGjr6x8avksCgKwqXgCQJI1bvivAjDndkaKHery7cxQGit0ZYFYCwAuKGQDeu9xPJsoRPOcWj8JAkbcJTFycAuAFxQwAkiTHMGARvbhNkAwQFuHmQceVqQBeVOxjFByNwnPbyWuj4zUtLHSCu2P88X5dzjZ8lwGkhmOAUyv2F5AfijiRbcrUkaJOEK8tfrJbk7mu7zKA1BAApsYXkC4AJmFal1NH5nq5DQTcBoiQEACmxhfw8X5doguAs7JN6aBD8EO5p6UcbBk85mVYCMh7BIBp8QWUpL/vrcnptu8ykGOmLTn1JOtorJ4+yOAVxY/pdiEgBICp8QWUkpcEiZcEIW22KVMvCQZR3/vWwePdluTuea0BSAsBYGpl3wVkwnuX+/r77n05XhWMNLmbcjp44jbp8V7SKZD6ctZTbD2Z68+xW9Cf0+cBkAMkqEMbVtHCXj950QwwZ6YtOduR1JG5HTnXk0Z9vXe5n9rn+HK3phInARAIOgBT4wt43OPdpuQe+C4DeMm2ZH3J9SXrPw8I0pkHEP++u0PIRRAIAFPjC/gyBqWQR2bDZNbgSOfY3/elqH/w+1YO3qAI5Jht6r2Fuu8q8o4ZgFfETZnr8ZSEXHFalHQ8uL4UYuPD3wcEgCst0lDgdwGcINlzbXmuAgCAmaID8Dq/vLSir35oyLEVAACZQwMgFXQAThJZU2ZD32UAADALBICTJFsBTc9VAABedngKBlMhALzJ+5fWJN33XQYA4BhT9t+9kQMEgNP8cmFZsi3fZQAAkCYCwCR2F+rMAwBARiS3ZmJKBIBJLLkdmav7LgMAIMkZMwApIABM6oOFnpzu+i4DAIA0EADO4r2Ftkyf+S4DAIBpcTHoeXz1Q1vO3fFdBgAU0i8XWLtSQAfgPN6/1JTZqu8yAAA4LwLAee1xPBAAPNj2XUAownwXwONn1YOb/GZnye1ow+q6uNuRHK9XBYB5MOv7LiEUYXYA4qipL3f7+nK3OdPPs+R2tLdQpxMAAMibMAOAJDldk9ODmQcBQgAAzI9zHd8lhCLcAHBoHkFgye3o/Us1icFAAEA+hB8ADh0PAl/ttrRhldQ/x/uXmoQAAJglbgFMS3ECwCGna5Lu6eLeQF/90NbfntVT/fjvX2rK2aepfkwAQCLmPQBpCTMATPyiCHdHUbShL3f7+vsPy3r8rJrK5//lpRWZ7vICIQBI2egSHYCUhHmb0t+e1RVFG+f7w7Ylp7acrU19lPDL3ZqktYOuAwBgWu9zC2BawuwATMVdl7nPFUff6qsfevpqt3WwkJ/dBws97V+syWwz5SIBoIA4bZWmMJPUVB2AE5gN5VxHzjoaW0+/utw505//arcl6V6qNQFAkZht6oNLdd9lhCLMALBhFV3YHczhM21K1pO5vjRBKPjbs7rk2mwJAMA5mH2mX11u+S4jFGEGAEn68gfz8nmTTkFPZjuSDodVOkf/vqy+RlqRc7d9lAcAuWX6VL+6tOK7jFCEGwD+9mxHzi36LgMAkBKzpTNvv+JE4Q4BOsdREQAISVl93yWEJNwAYFwWAQBBmfVbXgsm3ADwfP8dAJB7HAFMW7gBwNgCAIBgGO3/tIUbACLX910CACA1PNSlLNwA8MEC3ywAEI6O7wJCE24AkMSeEQAEghMAqQs8ADAHAABB4ARA6sq+C5ipsXUUuTu+ywAATIUXqs1A2B2AUkQHAADyzoyf5TMQdgD4YKEn2dB3GQCAKRgnAGYh7ACQ6PguAAAwBbq5M1GAAOA6visAAEyBY90zEX4AGNma7xIAAOfGAOCMhB8Ali73Zdr2XQYA4BwYAJyZ8AOAJIkuAADkEgOAM1OMAOBEAACAPIoZ5J4V57uAufnbsx3JLfouAwAwKRvqV5crvqsIVdg3AR5nbk0StwICQH50fBcQsmJsAUhS5FZ8lwAAOAP2/2eqOAHgg4UepwEAIEciOgCzVJwtAEmStSXd810FAGACv7rc8V1CyIrTAZCkWG3fJQAAJmBcADRrxQoAS5f7kq37LgMAcKqO7wJCV6wAIEmOYUAAyDz2/2euOPcAHLf5rC+na77LAACc4D8uF3N9mqPidQASLd8FAABOwP7/XBQzANy83OZIIABkVsd3AUVQzAAgSYqZBQCALGL/fy6Ku8eyMagoWujzfgAAyBIb6uaPuP9/DorbAVi6uiNZy3cZAIBjjKf/eSluAJCkm2+tSMwCAEBmOMfr2+ek2AEg0fJdAADgQEwHYF6KOwNwXOf/9eTcdd9lAEDBbevm5arvIoqCDoAkmVv2XQIAwGj/zxEBQJKWLndkWvVdBgAUWsz+/zyxBXCIY4EA4BHH/+aNDsAhjgUCgD/G0/+8EQCOu/nWCndQA4AHjun/eSv7LiBzTE3JemwFAMAc2Q90AOaMDsDLli73ZWwFAMD82HqyDYt5IgC8ztJbK5Kt+y4DAAqB/X8vCAAnsd2mZEPfZQBA+Gj/+0AAOMnS1R2Za/guAwDCRvvfFwLAmyxd7sjiT32XAQDBov3vDRcBTWLj3205d8d3GQAQHNu9SgfADzoAE9lblrTluwoACAztf48IAJNYuroj261LYigQANJC+98rAsCklq7uyOK6CAEAkBKm/30iAJzF0pWezJq+ywCAAND+94wAcFZLb63J3F3fZQBArpm1fZdQdJwCOK+NZ03JHvguAwByaKglXv3rGx2A81q63JboBADA2Rl7/xlAAJgGIQAAzsFWfFcAtgDSwXYAAEzItrX0VtV3FaADkA46AQAwKZ7+M4IAkJYkBCyJewIA4A322r4rQIIAkKalyx2Jy4IA4ASc/c8QAkDalq70pN2qeHcAALyEs/9ZwhDgrGwMKtLFFYm3CAIAw3/ZQwdgVpau7mjpraZkn/ouBQAyoO27ALyIDsA8bHxfS9565a75LgUAvHC7V9n/zxY6APOwdKUnt1eTad13KQAwd2arLP7ZQwCYl6WrO/r1jxpy9rE4JQCgSKKo7bsEvIotAB82BhXFC2053fZdCgDM2Jb+80c130XgVXQAfKAbAKAonOPmv4yiA+Bb0g1oyekT36UAQMqG+k9e+5tVdAB8S7oBy3LuxzLb9F0OAKTGeOtfltEByJqNZ3VZ3ObIIIDcc+7HWrrc910GXo8AkFUb3zdlahEEAOSSaVW/fqvpuwycjACQdQQBAHnkIp7+M44AkBcb39UVu5acu+m7FAB4I7NN/fpK3XcZeDMCQN5sPKsqjluSGpIWPVcDAK+K4yX99u2O7zLwZgSAvNoYVDS+0JDUpCsAIDPMNvUbnv7zgAAQgo1nVY3jgzCg677LAVBgZnf1mytt32XgdASA0ByFAavLOa4aBjA/Ztv6zZWq7zIwGQJA6P7674ac1WWuTncAwEzx9J8rBIAieT5AeMd3KQACw9N/7pR9FxCkjWfVTJx//e/v6nJRTU41mdUVx9wlAGBWWr4LwNnQAZiFv36/Juduy2xTzvUl9WXqyeIdlUc9LV3dSe1zbTyrajSqyrnkL7O65Cq0+wHMDU//uUQHYDbWJN0+OJ6XHNFzklwkxRel//NvSRrKrHf0Jw6DwknM6i/88+HRvziWouj4r09fPQCcTct3ATg7VotZ2BhUFF8c+C4DAGaOp//cogMwC0tXd/TX79cljuEBCF7LdwE4n+j034LzcW3fFQDATCVP/23fZeB8CACz8pu31iQNfZcBADPj3LLvEnB+BIBZMmv7LgEAZsM2Dx50kFMEgFkql1Z8lwAAM2HW8l0CpkMAmKWly33J1n2XAQDpsk1e95t/BIBZM6MLACAsY7H3HwACwKz99u2OZJu+ywCAlKzq1pXe6b8NWUcAmI+27wIAIAVDlaKW7yKQDgLAPPzmSltm277LAICpmFYy8aIzpIIAMC+O27IA5JjZtsp7zDQFhHcBzNN/f9eTHG/pA5A/se7qFrf+hYQOwHwxOQsgjzZZ/MNDAJin5NwsJwIA5AyX/oSIADBvo1LTdwkAMDGzVS79CRMBYN4+utyXdN93GQAwgaEujNi6DBQBwIfyfku8KRBA1pm1tHR1x3cZmA1OAfjy1383ZPbQdxkA8Hq2pd++XfNdBWaHDoAvyWs0GQgEkE2xa/ouAbNFAPApGQhkKwBA1tznvv/wEQB8+uhyXzF3AwDIELPtgzklBI4ZgCz44rs1OXfbdxkAoNh9rA/fWvNdBmaPDkAWXBw1eVkQAO/M1ln8i4MAkAVLV3cUqem7DAAFZhrq4qjpuwzMDwEgK377dkeyT32XAaCwljnzXyzMAGQN8wAA5s20qVtX6r7LwHzRAciai6OmZFu+ywBQEKah4lLTdxmYPwJA1ixd3dG43JBxPwCAOXDWOnhHCQqGLYCs+uL7mpy6vssAEDCzdd16u+G7DPhBByCrbl3pyXTXdxkAAsXUf+ERALLs1pU2IQDATJhrMvVfbASArLt1pc3xQADpslUu/AEBIA/+x9srkq36LgNAAMy2dWHEO0jAEGCu/OW7tpy747sMADkW25I+ervjuwz4RwcgTz58uynTfd9lAMgr+4zFH4foAOTRF983JT3wXQaAHDFt6kNu+8NzBIC8+mLYlCJCAIDTmYayUU0fXe37LgXZwRZAXt1abMvsY24MBHA6a7L442V0APLui+9rMuvIadF3KQAyyOy+PnyHqX+8ggAQgo1BRXuljuSu+y4FQJbYlm69U/NdBbKJLYAQLF3d0a13ajLuCgBwwDTUxXHddxnILgJASD58pynFd5kLACBTg6t+8SYEgNDcWmzLubpkW75LAeAN5/1xKmYAQvaXf61I7hPfZQCYq3V9yCt+cTo6ACH78J1lmZYk2/ZdCoA5MNvSAq/4xWQIAKH76O2OFsY1ybhCGAiZaago4hW/mBhbAEXyxfc1xXFbjuOCQHjsY334Dq/4xcQIAEX0aNiUohUuDwKC8ak+fHvFdxHIFwJAUW0MKvqhvCyne75LATAFs1V99E7TdxnIHwJA0T0aVKVSS87d8V0KgDMy29JH3PSH8yEAIEEQAHLGtrUwrjH0h/MiAOBFjwZVudKyzDWZEQAyyjRU5Oq6daXnuxTkFwEAr7cxqGi33JRsWXLXfJcD4BjTEjf9YVoEAJzuL/9qSK4p6bbvUoDCs/iuPlps+y4D+UcAwOQeDipaKDcla3KXAOCB6VP9F8f9kA4CAM7n0aAqKzcIA8C8cNwP6SIAYHoPBxVdihqSq0uqMzMApI3FH+kjACB9jwZVKapLri5TjQ4BMAWzLf0XZ/2RPgIA5uPRd0kYkFXlXPK/dAqANzPb0u64ro8564/0EQDg16NBVSpXFVtFkXv+lGOqyaly8E83vdQG+MTijxkjACC7Hg2qsmiNLQQU0LZ+GNdY/DFLke8CgNf6X/9qyEo9Fn8UjmmocdRg8cesEQCQPf/7XyuK9JCriFE4pqHiqK7fc8UvZq/suwDgyFHLXzz1o3hY/DFnJd8FAJKkR8Om4mhNjpMBKCDTUBax+GOuGAKEXw8HFS1EbcnxngEUE4s/PGELAP48+q6u2NYk9vpRUCz+8IgOAObv4aCihVJL0ie+SwG8YfGHZwQAzNej7+oya0tirx/FxeKPDCAAYD7Y6wcSLP7ICO4BwOw9GjZ1sdRn8UfhmW0pGtdY/JEFdAAwO48GVcVRW85xlz9gtqW9mLv9kRkEAKTv4aCii9GynLvnuxQgE1j8kUEcA0S6Hg2bit0K1/gCh2xde3GTxR9ZQwcA6Xj0XV1x3KLdDxxjWtXv3mn6LgN4HQIApvNoUFVcKOxtagAABp5JREFUakm647sUIFNM9/X7d5Z9lwGchACA83k4qOhCqSXHZT7AK8zu6veLbd9lAG9CAMDZHA74mVtmnx94iWkop6Z+986a71KA0zAEiMkcX/ilRaIj8BLTUIrq+h1n/JEPBAC8GQs/MAHb0n5c18fvMOmP3ODHOV6PVj8wIY75IZ8IAHjR4VS/qcHCD5yCSX/kGAEAiT99V1dkTXGcDzidaSjZMpP+yDNmAIruz8OmpKaccYEPMJltKWrwQh/kHQGgiJKX9DRlOra/b35rAvLAbFP71mDYDyFgC6BI/vivhlzclOO1vMDZ2X39vsJ+P4JBAAjdo0FVY7cscw05XfNdDpA7pqHMNfU/udwHYSEAhOjRoKpR1JBTU9J13+UAObalUtzQR1f7vgsB0kYACMXDQUUXoobMGrT4gTTQ8kfYCAB5dvikL6uz6AMpoeWPgiAA5M2fBzVZ1JBTQ7T3gbTR8kdhEACy7rC1L6vLXJ1BPmBGTJ/pD4st32UA80IAyJqHg4pKpbqiuC65unjKB2bLtC3FTf3hasd3KcA8EQB8ezSoahzVJaux4ANzZraukfEiHxQSAWCeHg2qGqkqRfWjBZ8X7gDzx6AfQACYiYeDisqqyUXVZKFXTeZqLPZABvDUD0jKWgB4OKjokiq5mMA9fJp3UVWmqpxVJVVZ6IGM4qkfeEG2AoAk/WnYknRPpqGcJW/bMvXkXJLWY/UVxf2j3z9SXx+nEBj+PKjJVDn65ziqKlI1+fxWkVMt+XsWeCB/eOoHXpa9ACBJDwdVlV1bcryiFsD5mYYST/3A62QzABxaHzbltMITN4AzM7uvsbV46gdeL9sBQDo4F+9W5Nwd36UAyAHTlly8zLl+4M2yHwAO/WlQl0UrcpyTB/AapqGcWvrD4orvUoA8yE8AOMS2AIBX2LpGtpzKQDBQEPkLANLhtkBLzn3iuxQAHtHuB84tnwHgEKcFgGKi3Q9MLd8B4BDzAUCRfKZRvMJ0PzCdMALAoWQ+oMUrc4EQsc8PpCmsAHBofdiS07LEoCCQe2abiqzFPj+QrjADgJQMCkZalnMEASCPTFuKjAE/YEbCDQCHCAJAvpi2JWvp9tW271KAkIUfAA4RBIBsY+EH5qo4AeAQQQDIFhZ+wIviBYBDBAHALxZ+wKviBoBDh0FArsnxQWAOTJuStVn4Ab8IAMetD5qS4x4BYBZMHOcDMoQA8Dp/HDRkbllOXDEMTG9Vka3o91d7vgsB8BwB4E3+PKgpdsuS7vguBciZocxWFKvNzX1ANhEAJsGcADAZ05ZkK+zvA9lHADirPw4ail1TTrd9lwJkhmlVZiv6mDY/kBcEgPN6OKgqUlNGVwAFZdqWO2rz82Y+IGcIAGmgK4DiGMq0xtM+kH8EgDQlXYHGQVfguu9ygNSYNuWsrVhrPO0DYSAAzMrDQU2Ra8rUYIsAuWTaOrbo932XAyBdBIB5SLYIGnJqiGuHkWWmbTmtKbY2LX4gbASAeSMMIGtY9IFCIgD4RBiAL6YtOXVY9IHiIgBkBTMDmDXTupx12NMHIBEAsun5aYI6RwtxbqZtSR1FtqaxOkzvAziOAJAHDwcNydXlVJc4XogTDWXqSNaR1KG1D+BNCAB583BQlVQ/FgjYLii2TdnRgt/xXAuAHCEA5B2BoEgOn/B7YsEHMCUCQGgeDiqS6pJqcq4u6abXejCNrWMLfo+WPoA0EQCK4OGgJin5y6kmQkEWbcmULPTJYt/xXA+AwBEAiup5KKgebB3UxF0E87AtqZ882asvnuwBeEIAwHPJ9sFhMKgcBIOqmCs4j02ZdpQ80fcl9XmqB5AlBABMJukYHAaEw3AgFbdzsCVp56Btf7jQJ//LeXsAOUAAQDqS0whVPQ8JUrK9UD36++x3EpJFXZLs4Kk9cbi479CuBxAKAgD8eN5ROK4+w894uIgf1+dKXAAAAAAAAAAAAAAAAAAAAAAAAAAAAAAAAAAAAAAAAAAAAAAAAAAAAAAAAAAAAAAAAAAAAAAAAAAAAAAAAAAAAAAAAAAAAAAAAAAAAAAAAAAAAAAAAAAAAAAAAAAAAAAAAAAAAAAAAAAAAAAAAAAAAAAAAAAAAAAAAAAAAAAAAAAAAAAAAAAAAAAAAAAAAAAAAAAAAAAAAAAAAAAAAAAAAAAAAAAAAAAAAAAAAAAAAAAAAAAAAAAAAAAAAAAAAAAAAAAAAAAAAAAAAAAAAAAAAAAAAAAAAAAAAAAAAAAAAAAAAAAAAAAA4NX/B8dHYXaBQSovAAAAAElFTkSuQmCC;" parent="1" vertex="1">
                    <mxGeometry x="220.02" y="60" width="80" height="80" as="geometry"/>
                </mxCell>
                <mxCell id="86" value="" style="endArrow=classic;html=1;fontColor=#000000;strokeColor=#000000;strokeWidth=3;edgeStyle=orthogonalEdgeStyle;exitX=1;exitY=0.5;exitDx=0;exitDy=0;" parent="1" source="82" target="28" edge="1">
                    <mxGeometry width="50" height="50" relative="1" as="geometry">
                        <mxPoint x="1141.6461981682266" y="110" as="sourcePoint"/>
                        <mxPoint x="1280" y="50" as="targetPoint"/>
                        <Array as="points">
                            <mxPoint x="1080" y="70"/>
                        </Array>
                    </mxGeometry>
                </mxCell>
                <mxCell id="87" value="&lt;font color=&quot;#000000&quot; style=&quot;font-size: 16px&quot;&gt;メール通知&lt;/font&gt;" style="edgeLabel;html=1;align=center;verticalAlign=middle;resizable=0;points=[];" parent="86" vertex="1" connectable="0">
                    <mxGeometry x="0.0545" y="3" relative="1" as="geometry">
                        <mxPoint as="offset"/>
                    </mxGeometry>
                </mxCell>
                <mxCell id="89" value="" style="rounded=0;whiteSpace=wrap;html=1;" parent="1" vertex="1">
                    <mxGeometry x="220" y="637.5" width="120" height="40" as="geometry"/>
                </mxCell>
                <mxCell id="90" value="&lt;span style=&quot;font-size: 16px&quot;&gt;develop&lt;/span&gt;" style="text;html=1;strokeColor=none;fillColor=none;align=center;verticalAlign=middle;whiteSpace=wrap;rounded=0;fontColor=#000000;" parent="1" vertex="1">
                    <mxGeometry x="220" y="637.5" width="120" height="40" as="geometry"/>
                </mxCell>
                <mxCell id="92" value="&lt;font color=&quot;#000000&quot;&gt;CloudFormation&lt;br&gt;(本番環境構築)&lt;/font&gt;" style="outlineConnect=0;dashed=0;verticalLabelPosition=bottom;verticalAlign=top;align=center;html=1;shape=mxgraph.aws3.cloudformation;fillColor=#759C3E;gradientColor=none;" vertex="1" parent="1">
                    <mxGeometry x="403.5" y="60" width="76.5" height="93" as="geometry"/>
                </mxCell>
                <mxCell id="93" value="&lt;font color=&quot;#000000&quot;&gt;VPC&lt;/font&gt;" style="outlineConnect=0;dashed=0;verticalLabelPosition=bottom;verticalAlign=top;align=center;html=1;shape=mxgraph.aws3.virtual_private_cloud;fillColor=#F58534;gradientColor=none;" vertex="1" parent="1">
                    <mxGeometry x="810" y="335" width="79.5" height="54" as="geometry"/>
                </mxCell>
                <mxCell id="95" value="CloudWatch" style="outlineConnect=0;dashed=0;verticalLabelPosition=bottom;verticalAlign=top;align=center;html=1;shape=mxgraph.aws3.cloudwatch;fillColor=#759C3E;gradientColor=none;fontColor=#000000;" vertex="1" parent="1">
                    <mxGeometry x="584.5000000000001" y="64.5" width="82.5" height="93" as="geometry"/>
                </mxCell>
                <mxCell id="96" value="IAM" style="outlineConnect=0;dashed=0;verticalLabelPosition=bottom;verticalAlign=top;align=center;html=1;shape=mxgraph.aws3.iam;fillColor=#759C3E;gradientColor=none;fontColor=#000000;" vertex="1" parent="1">
                    <mxGeometry x="724.5000000000001" y="76.5" width="42" height="81" as="geometry"/>
                </mxCell>
            </root>
        </mxGraphModel>
    </diagram>
</mxfile>
